<svg width="22" height="30" viewBox="0 0 22 30" fill="none" xmlns="http://www.w3.org/2000/svg">
<path d="M1.83703 30C0.984309 30 0.294379 29.3515 0.294379 28.5532L0.294379 16.9064C0.29438 16.5227 0.456909 16.1547 0.746211 15.8833C1.03551 15.612 1.42789 15.4596 1.83703 15.4596C2.24617 15.4596 2.63855 15.612 2.92785 15.8833C3.21715 16.1547 3.37968 16.5227 3.37968 16.9064L3.37968 28.5532C3.37968 29.353 2.68975 30 1.83703 30ZM11.1472 30C10.2945 30 9.60454 29.3515 9.60454 28.5532L9.60454 2.36596C9.60454 1.98225 9.76707 1.61426 10.0564 1.34294C10.3457 1.07162 10.7381 0.919189 11.1472 0.919189C11.5563 0.919189 11.9487 1.07162 12.238 1.34294C12.5273 1.61426 12.6898 1.98225 12.6898 2.36596L12.6898 28.5532C12.6898 29.353 11.9984 30 11.1472 30ZM18.9147 28.5532C18.9147 28.9369 19.0772 29.3049 19.3665 29.5762C19.6558 29.8476 20.0482 30 20.4573 30C20.8665 30 21.2589 29.8476 21.5482 29.5763C21.8375 29.3049 22 28.9369 22 28.5532L22 11.0902C22 10.9002 21.9601 10.7121 21.8826 10.5365C21.805 10.361 21.6914 10.2015 21.5482 10.0672C21.4049 9.93284 21.2349 9.82627 21.0477 9.75356C20.8605 9.68085 20.6599 9.64343 20.4574 9.64343C20.2548 9.64343 20.0542 9.68085 19.867 9.75356C19.6798 9.82627 19.5098 9.93284 19.3665 10.0672C19.2233 10.2015 19.1097 10.361 19.0321 10.5365C18.9546 10.7121 18.9147 10.9002 18.9147 11.0902L18.9147 28.5532Z" fill="#FF842E"/>
</svg>
