<svg width="34" height="34" viewBox="0 0 34 34" fill="none" xmlns="http://www.w3.org/2000/svg">
<path d="M17.0255 34C16.1222 33.9956 15.2569 33.6365 14.6166 33.0003C13.9763 32.3641 13.6123 31.5019 13.6034 30.6H20.4136C20.4178 31.0544 20.3315 31.5051 20.1599 31.926C19.9397 32.4304 19.6025 32.8753 19.1762 33.2241C18.75 33.5728 18.2468 33.8155 17.7083 33.932H17.6299C17.431 33.9731 17.2287 33.9959 17.0255 34ZM30.646 28.9H3.40511V25.5L6.81022 23.8V14.45C6.72052 12.0515 7.26299 9.67151 8.38338 7.548C8.93472 6.57436 9.68656 5.72851 10.5893 5.06625C11.492 4.40399 12.5251 3.94038 13.6204 3.706V0H20.4306V3.706C24.8215 4.7498 27.2409 8.5646 27.2409 14.45V23.8L30.646 25.5V28.9ZM34 13.6H30.5949C30.5166 11.4287 29.9586 9.30146 28.9608 7.37061C27.963 5.43975 26.5501 3.75298 24.8232 2.431L27.2409 0C29.2772 1.58181 30.9227 3.60928 32.0506 5.9262C33.2168 8.32495 33.8802 10.9362 34 13.6ZM3.40511 13.6H0C0.119179 10.9361 0.783175 8.3249 1.94942 5.9262C3.0773 3.60928 4.7228 1.58181 6.75914 0L9.17677 2.431C7.44971 3.75282 6.0367 5.43955 5.0389 7.37044C4.0411 9.30133 3.48319 11.4286 3.40511 13.6Z" fill="white"/>
</svg>
