<svg width="1239" height="1243" viewBox="0 0 1239 1243" fill="none" xmlns="http://www.w3.org/2000/svg">
<path d="M1238.65 1178.38C1238.65 1213.67 961.315 1242.09 619.327 1242.09C277.339 1242.09 0 1213.67 0 1178.38C0 1143.08 277.339 1114.66 619.327 1114.66C961.315 1114.66 1238.65 1143.08 1238.65 1178.38Z" fill="#EBEBEB"/>
<path d="M883.236 0H355.418C326.06 0 302.012 24.3608 302.012 54.3434V1141.21C302.012 1171.19 326.06 1195.55 355.418 1195.55H883.548C912.906 1195.55 936.954 1171.19 936.954 1141.21V54.3434C936.954 24.3608 912.906 0 883.236 0ZM903.536 1107.79C903.536 1136.53 881.986 1159.64 855.752 1159.64H383.214C356.667 1159.64 335.43 1136.53 335.43 1107.79V95.5694C335.43 37.1659 356.98 34.355 383.214 34.355H477.847C483.468 34.355 487.841 40.6014 487.841 48.4093V51.8448C487.841 69.9593 497.835 69.9593 510.015 69.9593H728.951C741.131 69.9593 751.125 69.9593 751.125 51.8448V48.4093C751.125 40.6014 755.498 34.355 761.119 34.355H855.752C882.299 34.355 903.536 42.163 903.536 95.5694V1107.79Z" fill="#37474F"/>
<path d="M903.537 95.5694V1107.79C903.537 1136.53 881.987 1159.64 855.752 1159.64H383.215C356.667 1159.64 335.43 1136.53 335.43 1107.79V95.5694C335.43 37.1658 356.98 34.355 383.215 34.355H477.847C483.469 34.355 487.841 40.6013 487.841 48.4093V51.8448C487.841 69.9593 497.835 69.9593 510.016 69.9593H728.951C741.131 69.9593 751.125 69.9593 751.125 51.8448V48.4093C751.125 40.6013 755.498 34.355 761.12 34.355H855.752C881.987 34.355 903.537 42.1629 903.537 95.5694Z" fill="#EBEBEB"/>
<path d="M903.537 95.5693V520.947H335.43V95.5693C335.43 37.1658 356.98 34.355 383.215 34.355H477.847C483.469 34.355 487.841 40.6013 487.841 48.4093V51.8448C487.841 69.9593 497.835 69.9593 510.016 69.9593H728.951C741.131 69.9593 751.125 69.9593 751.125 51.8448V48.4093C751.125 40.6013 755.498 34.355 761.12 34.355H855.752C881.987 34.355 903.537 42.1629 903.537 95.5693Z" fill="#FF7C25"/>
<path d="M461.606 57.1543C461.294 57.4666 460.982 57.7789 460.669 58.0912C460.357 58.4035 460.357 58.4035 460.045 58.7158C457.546 56.2173 454.735 54.968 451.3 54.968C447.864 54.968 445.053 56.2173 442.555 58.7158C442.242 58.4035 442.242 58.4035 441.93 58.0912C441.618 57.7789 441.305 57.4666 440.993 57.1543C441.305 56.8419 441.618 56.5296 442.242 56.2173C443.179 55.5927 444.116 54.968 445.053 54.6557C446.303 54.0311 447.24 53.7188 448.489 53.4064C449.113 53.4064 449.738 53.0941 450.363 53.0941C450.675 53.0941 451.924 53.0941 451.924 53.0941C452.237 53.0941 452.861 53.0941 453.174 53.0941C454.423 53.0941 455.36 53.4064 456.297 53.7188C456.921 54.0311 457.858 54.3434 458.483 54.6557C459.108 54.968 460.045 55.5927 460.669 56.2173C460.982 56.5296 461.294 56.8419 461.606 57.1543Z" fill="white"/>
<path d="M445.366 61.5267C444.741 60.902 444.429 60.5897 443.804 59.9651C445.366 58.4035 447.24 57.4665 449.738 57.1542C453.174 56.8419 455.984 57.7788 458.483 59.9651C457.858 60.5897 457.546 60.902 456.921 61.5267C455.36 59.9651 453.174 59.0281 450.987 59.0281C448.801 59.0281 446.927 59.9651 445.366 61.5267Z" fill="white"/>
<path d="M455.672 63.0885C455.047 63.7131 454.735 64.0255 454.111 64.6501C453.174 63.7131 452.237 63.4008 450.987 63.4008C449.738 63.4008 448.801 63.7131 447.864 64.6501C447.24 64.0255 446.927 63.7131 446.303 63.0885C449.113 60.59 453.174 60.2776 455.672 63.0885Z" fill="white"/>
<path d="M452.549 65.5872C452.549 66.2118 451.924 66.8364 451.3 66.8364C450.675 66.8364 450.05 66.2118 450.05 65.5872C450.05 64.9625 450.675 64.3379 451.3 64.3379C451.924 64.3379 452.549 64.9625 452.549 65.5872Z" fill="white"/>
<path d="M372.283 59.9651C372.283 57.7789 373.845 56.2173 376.031 56.2173C378.217 56.2173 379.779 57.7789 379.779 59.9651C379.779 62.1513 378.217 63.7129 376.031 63.7129C373.845 63.7129 372.283 62.1513 372.283 59.9651Z" fill="white"/>
<path d="M384.151 59.965C384.151 57.7788 385.713 56.2172 387.899 56.2172C390.085 56.2172 391.647 57.7788 391.647 59.965C391.647 62.1513 390.085 63.7129 387.899 63.7129C386.025 63.7129 384.151 62.1513 384.151 59.965Z" fill="white"/>
<path d="M396.019 59.965C396.019 57.7788 397.581 56.2172 399.767 56.2172C401.953 56.2172 403.515 57.7788 403.515 59.965C403.515 62.1513 401.953 63.7129 399.767 63.7129C397.581 63.7129 396.019 62.1513 396.019 59.965Z" fill="white"/>
<path d="M407.887 59.965C407.887 57.7788 409.449 56.2172 411.635 56.2172C413.822 56.2172 415.383 57.7788 415.383 59.965C415.383 62.1513 413.822 63.7129 411.635 63.7129C409.449 63.7129 407.887 62.1513 407.887 59.965Z" fill="white"/>
<path d="M419.756 59.965C419.756 57.7788 421.317 56.2172 423.503 56.2172C425.69 56.2172 427.251 57.7788 427.251 59.965C427.251 62.1513 425.69 63.7129 423.503 63.7129C421.317 63.7129 419.756 62.1513 419.756 59.965Z" fill="white"/>
<path d="M860.749 68.0856H830.142V54.0313H860.749V68.0856ZM831.703 66.524H859.187V55.5929H831.703V66.524Z" fill="white"/>
<path d="M852.316 56.5298H832.64V65.8994H852.316V56.5298Z" fill="white"/>
<path d="M863.56 57.1544H860.749V64.65H863.56V57.1544Z" fill="white"/>
<path d="M389.148 152.411L372.283 136.483L389.148 120.867L391.647 123.678L377.905 136.483L391.647 149.6L389.148 152.411Z" fill="white"/>
<path d="M685.226 402.891C674.295 409.762 662.427 414.759 648.997 417.882C614.954 426.314 580.912 419.756 553.428 402.578C526.568 386.025 505.955 359.166 497.835 326.06C481.595 258.912 522.508 191.139 589.657 174.898C656.805 158.345 724.578 199.571 740.819 266.72C753.936 321.063 729.888 375.407 685.226 402.891Z" fill="white"/>
<path d="M657.43 282.336C657.43 303.262 640.252 320.439 619.327 320.439C598.402 320.439 581.224 303.262 581.224 282.336C581.224 261.411 598.402 244.234 619.327 244.234C640.252 244.234 657.43 261.099 657.43 282.336Z" fill="#FF7C25"/>
<path d="M685.226 387.276V402.892C674.295 409.763 662.427 414.76 648.997 417.883C614.954 426.316 580.912 419.757 553.428 402.579V386.963C553.428 350.734 582.786 321.064 619.327 321.064C655.556 321.377 685.226 351.047 685.226 387.276Z" fill="#FF7C25"/>
<path d="M842.635 477.534H396.02V911.032H842.635V477.534Z" fill="white"/>
<path d="M546.869 529.379L535.314 556.551C535.314 556.551 535.314 556.863 535.001 556.863C535.001 556.863 535.001 557.176 534.689 557.176C534.689 557.176 534.377 557.176 534.377 557.488L534.064 557.8H533.752H533.44H533.127H532.815C532.503 557.8 532.503 557.488 532.503 557.488L532.19 557.176C532.19 557.176 532.19 556.863 531.878 556.863C531.878 556.863 531.878 556.551 531.566 556.551L525.319 542.184L519.073 556.551C519.073 556.551 519.073 556.863 518.761 556.863L518.448 557.176C518.448 557.176 518.136 557.176 518.136 557.488L517.824 557.8C517.511 557.8 517.511 557.8 517.511 557.8H517.199H516.887H516.574L516.262 557.488L515.95 557.176C515.95 557.176 515.95 556.863 515.637 556.863C515.637 556.863 515.637 556.551 515.325 556.551L503.769 529.379C503.145 528.13 503.769 526.568 505.331 525.944C506.58 525.319 508.142 525.944 508.766 527.193L517.824 548.743L523.758 534.376C524.07 533.44 525.319 532.815 526.256 532.815C527.193 532.815 528.13 533.44 528.755 534.376L534.689 548.743L543.746 527.193C544.371 525.944 545.932 525.319 547.182 525.944C546.869 526.568 547.494 528.13 546.869 529.379Z" fill="#263238"/>
<path d="M554.365 555.614V527.818C554.365 526.256 555.614 525.319 556.864 525.319H572.167C573.416 525.319 574.666 526.568 574.666 527.818C574.666 529.379 573.416 530.316 572.167 530.316H559.362V538.749H570.293C571.855 538.749 572.792 539.998 572.792 541.247C572.792 542.809 571.543 543.746 570.293 543.746H559.362V552.491H572.167C573.416 552.491 574.666 553.74 574.666 554.989C574.666 556.551 573.416 557.488 572.167 557.488H556.864C555.614 558.112 554.365 556.863 554.365 555.614Z" fill="#263238"/>
<path d="M582.161 555.614V527.818C582.161 526.568 583.411 525.319 584.66 525.319C586.221 525.319 587.158 526.568 587.158 527.818V552.803H599.963C601.213 552.803 602.462 554.052 602.462 555.302C602.462 556.863 601.213 557.8 599.963 557.8H584.66C583.411 558.112 582.161 556.863 582.161 555.614Z" fill="#263238"/>
<path d="M605.273 541.247C605.273 531.878 613.081 524.382 622.45 524.382C626.511 524.382 630.258 525.631 633.382 528.13C634.631 529.067 634.631 530.628 634.006 531.878C633.069 533.127 631.195 533.127 630.258 532.502C628.072 530.941 625.574 530.004 622.763 530.004C619.639 530.004 616.516 531.253 614.33 533.439C612.144 535.625 610.895 538.436 610.895 541.559C610.895 544.683 612.144 547.806 614.33 549.68C616.516 551.866 619.639 553.115 622.763 553.115C625.574 553.115 628.072 552.178 630.258 550.617C631.195 549.68 633.069 549.992 634.006 551.241C634.943 552.491 634.631 554.052 633.382 554.989C630.571 557.175 626.823 558.737 622.45 558.737C613.081 558.112 605.273 550.617 605.273 541.247Z" fill="#263238"/>
<path d="M667.736 529.379C670.547 532.502 672.421 536.562 672.421 541.247C672.421 545.932 670.547 549.992 667.736 553.115C664.926 556.238 660.865 558.112 656.493 558.112C652.121 558.112 647.748 556.238 644.937 553.115C642.126 549.992 640.252 545.932 640.252 541.247C640.252 536.562 642.126 532.502 644.937 529.379C647.748 526.256 651.808 524.382 656.493 524.382C660.865 524.382 664.926 526.256 667.736 529.379ZM667.112 541.247C667.112 538.124 665.863 535.001 663.989 533.127C662.115 530.941 659.304 529.691 656.493 529.691C653.37 529.691 650.871 530.941 648.997 533.127C647.123 535.313 645.874 538.124 645.874 541.247C645.874 544.37 647.123 547.493 648.997 549.367C650.871 551.554 653.682 552.803 656.493 552.803C659.304 552.803 661.802 551.554 663.989 549.367C665.863 547.493 667.112 544.37 667.112 541.247Z" fill="#263238"/>
<path d="M708.026 527.818V555.302C708.026 556.863 706.776 557.8 705.527 557.8C703.965 557.8 703.028 556.551 703.028 555.302V535.626L696.157 544.995C695.533 545.62 694.908 545.932 693.971 545.932C693.034 545.932 692.41 545.62 691.785 544.995L685.226 535.626V555.302C685.226 556.863 683.977 557.8 682.728 557.8C681.479 557.8 680.229 556.551 680.229 555.302V527.818C680.229 526.568 681.479 525.319 682.728 525.319C683.352 525.319 684.289 525.631 684.914 526.256L694.284 539.061L703.653 526.256C704.278 525.631 704.902 525.319 705.839 525.319C706.776 525.319 708.026 526.568 708.026 527.818Z" fill="#263238"/>
<path d="M717.083 555.614V527.818C717.083 526.256 718.332 525.319 719.581 525.319H734.885C736.134 525.319 737.383 526.568 737.383 527.818C737.383 529.379 736.134 530.316 734.885 530.316H722.08V538.749H733.011C734.573 538.749 735.51 539.998 735.51 541.247C735.51 542.809 734.26 543.746 733.011 543.746H722.08V552.491H734.885C736.134 552.491 737.383 553.74 737.383 554.989C737.383 556.551 736.134 557.488 734.885 557.488H719.581C718.02 558.112 717.083 556.863 717.083 555.614Z" fill="#263238"/>
<path d="M448.489 634.943V624.012C448.489 623.387 448.801 623.075 449.426 623.075H455.36C455.985 623.075 456.297 623.387 456.297 624.012C456.297 624.636 455.672 624.949 455.36 624.949H450.363V628.384H454.735C455.36 628.384 455.672 629.009 455.672 629.321C455.672 629.946 455.36 630.258 454.735 630.258H450.363V633.693H455.36C455.985 633.693 456.297 634.006 456.297 634.63C456.297 635.255 455.672 635.567 455.36 635.567H449.426C448.801 636.192 448.489 635.567 448.489 634.943Z" fill="#FF7C25"/>
<path d="M470.664 624.011V634.943C470.664 635.567 470.039 635.88 469.727 635.88C469.102 635.88 468.79 635.567 468.79 634.943V627.135L465.979 630.882C465.667 631.195 465.354 631.195 465.042 631.195C464.73 631.195 464.417 631.195 464.105 630.882L461.294 627.135V634.943C461.294 635.567 460.982 635.88 460.357 635.88C459.732 635.88 459.42 635.567 459.42 634.943V624.011C459.42 623.387 459.732 623.074 460.357 623.074C460.669 623.074 460.982 623.074 461.294 623.387L465.042 628.696L468.79 623.387C469.102 623.074 469.414 623.074 469.727 623.074C470.351 623.074 470.664 623.387 470.664 624.011Z" fill="#FF7C25"/>
<path d="M480.658 633.069H475.973L475.036 635.568C474.724 635.88 474.412 636.192 474.099 636.192H473.787C473.162 635.88 472.85 635.255 473.162 634.943L477.222 624.012C477.535 623.699 477.847 623.387 478.159 623.387C478.472 623.387 479.096 623.699 479.096 624.012L483.156 634.943C483.469 635.568 483.156 636.192 482.532 636.192H482.219C481.907 636.192 481.283 635.88 481.283 635.568L480.658 633.069ZM480.033 630.883L478.472 626.823L476.91 630.883H480.033Z" fill="#FF7C25"/>
<path d="M486.279 624.011C486.279 623.387 486.592 623.074 487.216 623.074C487.841 623.074 488.153 623.387 488.153 624.011V634.943C488.153 635.567 487.529 635.88 487.216 635.88C486.592 635.88 486.279 635.567 486.279 634.943V624.011Z" fill="#FF7C25"/>
<path d="M491.901 634.943V624.011C491.901 623.387 492.214 623.074 492.838 623.074C493.463 623.074 493.775 623.387 493.775 624.011V634.006H498.772C499.397 634.006 499.709 634.318 499.709 634.943C499.709 635.567 499.085 635.88 498.772 635.88H492.838C492.214 636.192 491.901 635.567 491.901 634.943Z" fill="#FF7C25"/>
<path d="M447.552 671.484C447.552 668.986 449.426 666.799 451.925 666.799C454.423 666.799 456.297 668.673 456.297 671.172C456.297 671.484 455.985 671.484 455.985 671.484H448.489C448.489 673.358 450.051 674.92 451.925 674.92C453.174 674.92 454.111 674.295 454.736 673.358C454.736 673.046 455.048 673.046 455.36 673.358C455.672 673.358 455.672 673.67 455.36 673.983C454.423 675.232 453.174 676.169 451.612 676.169C449.426 676.169 447.552 673.983 447.552 671.484ZM448.489 670.859H455.36C455.048 668.986 453.486 667.736 451.925 667.736C450.363 667.736 448.801 668.986 448.489 670.859Z" fill="#263238"/>
<path d="M472.538 670.547C472.538 668.985 471.288 667.736 469.727 667.736C468.165 667.736 466.916 668.985 466.916 670.547V675.544C466.916 675.544 466.916 675.856 466.604 675.856C466.604 675.856 466.604 675.856 466.291 675.856V670.859C466.291 669.298 465.042 668.048 463.48 668.048C461.919 668.048 460.67 669.298 460.67 670.859V675.856C460.67 675.856 460.67 676.169 460.357 676.169C460.045 676.169 460.045 675.856 460.045 675.856V670.859V667.736C460.045 667.424 460.357 667.424 460.357 667.424C460.67 667.424 460.67 667.736 460.67 667.736V668.673C461.294 667.736 462.231 667.424 463.48 667.424C465.042 667.424 465.979 668.361 466.604 669.298C467.228 668.048 468.478 667.424 470.039 667.424C472.225 667.424 473.787 668.985 473.787 671.172V676.169C473.787 676.481 473.475 676.481 473.475 676.481C473.162 676.481 473.162 676.169 473.162 676.169V670.547H472.538Z" fill="#263238"/>
<path d="M490.652 670.547C490.652 668.985 489.403 667.736 487.841 667.736C486.28 667.736 485.03 668.985 485.03 670.547V675.544C485.03 675.544 485.03 675.856 484.718 675.856C484.718 675.856 484.718 675.856 484.406 675.856V670.859C484.406 669.298 483.156 668.048 481.595 668.048C480.033 668.048 478.784 669.298 478.784 670.859V675.856C478.784 675.856 478.784 676.169 478.472 676.169C478.159 676.169 478.159 675.856 478.159 675.856V670.859V667.736C478.159 667.424 478.472 667.424 478.472 667.424C478.784 667.424 478.784 667.736 478.784 667.736V668.673C479.409 667.736 480.346 667.424 481.595 667.424C483.156 667.424 484.093 668.361 484.718 669.298C485.343 668.048 486.592 667.424 488.154 667.424C490.34 667.424 491.901 668.985 491.901 671.172V676.169C491.901 676.481 491.589 676.481 491.589 676.481C491.277 676.481 491.277 676.169 491.277 676.169V670.547H490.652Z" fill="#263238"/>
<path d="M502.832 667.424V675.856C502.832 676.169 502.52 676.169 502.52 676.169C502.208 676.169 502.208 675.856 502.208 675.856V674.607C501.271 675.544 500.022 676.481 498.772 676.481C496.274 676.481 494.4 674.295 494.4 671.796C494.4 669.298 496.274 667.111 498.772 667.111C500.022 667.111 501.583 667.736 502.208 668.985V667.736C502.208 667.424 502.52 667.424 502.52 667.424C502.832 666.799 502.832 667.111 502.832 667.424ZM501.896 671.484C501.896 669.298 500.334 667.736 498.46 667.736C496.586 667.736 495.025 669.298 495.025 671.484C495.025 673.67 496.586 675.232 498.46 675.232C500.334 675.232 501.896 673.358 501.896 671.484Z" fill="#263238"/>
<path d="M507.517 678.667C507.83 678.667 508.142 678.355 508.142 678.042V667.423C508.142 667.111 508.454 667.111 508.766 667.111C509.079 667.111 509.079 667.423 509.079 667.423V678.042C509.079 678.979 508.454 679.604 507.517 679.604C507.205 679.604 507.205 679.291 507.205 679.291C507.205 678.979 507.517 678.667 507.517 678.667ZM508.454 664.3C508.454 663.988 508.766 663.988 508.766 663.988C509.079 663.988 509.079 664.3 509.079 664.3V664.613C509.079 664.925 508.766 664.925 508.766 664.925C508.454 664.925 508.454 664.613 508.454 664.613V664.3Z" fill="#263238"/>
<path d="M520.947 667.423V675.856C520.947 676.168 520.635 676.168 520.635 676.168L520.322 675.856V674.607C519.385 675.544 518.136 676.481 516.887 676.481C514.388 676.481 512.514 674.294 512.514 671.796C512.514 669.297 514.388 667.111 516.887 667.111C518.136 667.111 519.698 667.736 520.322 668.985V667.736C520.322 667.423 520.635 667.423 520.635 667.423C520.635 667.423 520.947 667.111 520.947 667.423ZM520.01 671.484C520.01 669.297 518.448 667.736 516.574 667.736C514.701 667.736 513.139 669.297 513.139 671.484C513.139 673.67 514.701 675.231 516.574 675.231C518.448 675.231 520.01 673.357 520.01 671.484Z" fill="#263238"/>
<path d="M538.124 670.547C538.124 668.985 536.875 667.736 535.314 667.736C533.752 667.736 532.503 668.985 532.503 670.547V675.544C532.503 675.544 532.503 675.856 532.19 675.856C532.19 675.856 532.19 675.856 531.878 675.856V670.859C531.878 669.298 530.629 668.048 529.067 668.048C527.506 668.048 526.256 669.298 526.256 670.859V675.856C526.256 675.856 526.256 676.169 525.944 676.169C525.632 676.169 525.632 675.856 525.632 675.856V670.859V667.736C525.632 667.424 525.944 667.424 525.944 667.424C526.256 667.424 526.256 667.736 526.256 667.736V668.673C526.881 667.736 527.818 667.424 529.067 667.424C530.629 667.424 531.566 668.361 532.19 669.298C532.815 668.048 534.064 667.424 535.626 667.424C537.812 667.424 539.374 668.985 539.374 671.172V676.169C539.374 676.481 539.061 676.481 539.061 676.481C538.749 676.481 538.749 676.169 538.749 676.169V670.547H538.124Z" fill="#263238"/>
<path d="M542.185 671.484C542.185 668.986 544.058 666.799 546.557 666.799C549.056 666.799 550.929 668.673 550.929 671.172C550.929 671.484 550.617 671.484 550.617 671.484H543.122C543.122 673.358 544.683 674.92 546.557 674.92C547.806 674.92 548.743 674.295 549.368 673.358C549.368 673.046 549.68 673.046 549.993 673.358C550.305 673.358 550.305 673.67 549.993 673.983C549.056 675.232 547.806 676.169 546.245 676.169C544.058 676.169 542.185 673.983 542.185 671.484ZM543.122 670.859H549.993C549.68 668.986 548.119 667.736 546.557 667.736C544.683 667.736 543.434 668.986 543.122 670.859Z" fill="#263238"/>
<path d="M553.428 673.982C553.428 673.67 553.74 673.67 554.053 673.982C554.677 674.607 555.614 674.919 556.864 674.919C557.488 674.919 558.113 674.607 558.737 674.295C559.05 673.982 559.362 673.67 559.362 673.045C559.362 672.733 559.05 672.421 558.737 671.796C558.425 671.484 557.8 671.171 556.864 671.171C555.927 671.171 555.302 670.859 554.677 670.547C554.053 670.235 553.74 669.61 553.74 668.985C553.74 668.361 554.053 667.736 554.677 667.111C555.302 666.799 555.927 666.487 556.864 666.487C558.113 666.487 558.737 667.111 559.674 667.424C559.987 667.424 559.987 667.736 559.674 668.048C559.674 668.361 559.362 668.361 559.05 668.048C558.425 667.736 557.8 667.111 556.864 667.111C556.239 667.111 555.614 667.424 554.99 667.736C554.677 668.048 554.365 668.361 554.365 668.673C554.365 668.985 554.677 669.298 554.99 669.61C555.302 669.922 555.927 670.235 556.864 670.235C557.8 670.235 558.425 670.547 559.05 670.859C559.674 671.171 559.987 672.108 559.987 672.733C559.987 673.358 559.674 673.982 559.05 674.607C558.425 675.232 557.8 675.232 556.864 675.232C555.302 675.232 554.365 674.607 553.428 673.982C553.428 674.295 553.428 674.607 553.428 673.982Z" fill="#263238"/>
<path d="M570.293 673.358H563.11H562.798C562.485 673.358 562.485 673.045 562.798 672.733L570.293 663.364C570.606 663.051 570.606 663.051 570.918 663.364C570.918 663.364 570.918 663.364 570.918 663.676V672.733H571.855C572.167 672.733 572.167 673.046 572.167 673.046C572.167 673.358 571.855 673.358 571.855 673.358H570.918V675.544C570.918 675.856 570.606 675.856 570.606 675.856C570.293 675.856 570.293 675.544 570.293 675.544V673.358ZM570.293 672.421V664.613L564.047 672.421H570.293Z" fill="#263238"/>
<path d="M581.537 662.739C585.284 662.739 588.095 665.55 588.095 669.298C588.095 670.547 587.783 671.484 587.471 672.421C587.471 672.421 586.846 673.67 585.909 673.982H585.597C584.972 673.982 584.66 673.67 584.66 673.358C584.347 673.045 584.347 672.733 584.347 672.421V671.796C583.723 672.421 582.786 673.045 581.849 673.045C579.975 673.045 578.413 671.484 578.413 669.61C578.413 667.736 579.975 666.174 581.849 666.174C583.723 666.174 585.284 667.736 585.284 669.61V672.421V672.733C585.284 672.733 585.284 672.733 585.597 672.733C586.221 672.733 586.534 671.796 586.534 671.796C586.846 671.172 587.158 670.235 587.158 669.298C587.158 666.174 584.66 663.676 581.537 663.676C578.413 663.676 575.915 666.174 575.915 669.298C575.915 672.421 578.413 674.919 581.537 674.919C582.161 674.919 582.474 674.919 582.786 674.919C583.098 674.919 583.411 674.919 583.411 675.232C583.411 675.544 583.41 675.856 583.098 675.856C582.474 675.856 582.161 676.169 581.537 676.169C577.789 676.169 574.978 673.358 574.978 669.61C574.978 665.862 578.101 662.739 581.537 662.739ZM581.537 672.108C582.786 672.108 584.035 670.859 584.035 669.61C584.035 668.048 582.786 667.111 581.537 667.111C580.287 667.111 579.038 668.361 579.038 669.61C579.35 670.859 580.287 672.108 581.537 672.108Z" fill="#263238"/>
<path d="M607.459 670.547C607.459 668.985 606.21 667.736 604.648 667.736C603.087 667.736 601.837 668.985 601.837 670.547V675.544C601.837 675.544 601.837 675.856 601.525 675.856C601.525 675.856 601.525 675.856 601.213 675.856V670.859C601.213 669.298 599.964 668.048 598.402 668.048C596.84 668.048 595.591 669.298 595.591 670.859V675.856C595.591 675.856 595.591 676.169 595.279 676.169C594.966 676.169 594.966 675.856 594.966 675.856V670.859V667.736C594.966 667.424 595.279 667.424 595.279 667.424C595.591 667.424 595.591 667.736 595.591 667.736V668.673C596.216 667.736 597.153 667.424 598.402 667.424C599.964 667.424 600.9 668.361 601.525 669.298C602.15 668.048 603.399 667.424 604.961 667.424C607.147 667.424 608.708 668.985 608.708 671.172V676.169C608.708 676.481 608.396 676.481 608.396 676.481C608.084 676.481 608.084 676.169 608.084 676.169V670.547H607.459Z" fill="#263238"/>
<path d="M619.639 667.424V675.856C619.639 676.169 619.327 676.169 619.327 676.169C619.015 676.169 619.015 675.856 619.015 675.856V674.607C618.078 675.544 616.829 676.481 615.579 676.481C613.081 676.481 611.207 674.295 611.207 671.796C611.207 669.298 613.081 667.111 615.579 667.111C617.141 667.111 618.39 667.736 619.015 668.985V667.736C619.015 667.424 619.327 667.424 619.327 667.424C619.64 666.799 619.639 667.111 619.639 667.424ZM618.703 671.484C618.703 669.298 617.141 667.736 615.267 667.736C613.393 667.736 611.832 669.298 611.832 671.484C611.832 673.67 613.393 675.232 615.267 675.232C617.141 675.232 618.703 673.358 618.703 671.484Z" fill="#263238"/>
<path d="M623.7 664.3C623.7 663.988 624.012 663.988 624.012 663.988C624.324 663.988 624.324 664.3 624.324 664.3V664.613C624.324 664.925 624.012 665.237 624.012 665.237C623.7 665.237 623.7 664.925 623.7 664.613V664.3ZM623.7 667.423C623.7 667.111 624.012 667.111 624.012 667.111C624.324 667.111 624.324 667.423 624.324 667.423V675.856C624.324 676.168 624.012 676.168 624.012 676.168C623.7 676.168 623.7 675.856 623.7 675.856V667.423Z" fill="#263238"/>
<path d="M628.697 663.364C628.697 663.052 629.009 663.052 629.009 663.052C629.321 663.052 629.634 663.364 629.634 663.364V675.544C629.634 675.857 629.321 675.857 629.009 675.857C628.697 675.857 628.697 675.544 628.697 675.544V663.364Z" fill="#263238"/>
<path d="M634.006 674.295C634.631 674.295 634.943 674.607 634.943 675.232C634.943 675.856 634.631 676.168 634.006 676.168C633.381 676.168 633.069 675.856 633.069 675.232C633.069 674.607 633.381 674.295 634.006 674.295Z" fill="#263238"/>
<path d="M636.505 671.484C636.505 668.986 638.691 666.799 641.189 666.799C642.126 666.799 643.376 667.112 644 667.736C644.313 667.736 644.313 668.049 644 668.361C644 668.673 643.688 668.673 643.376 668.361C642.751 667.736 641.814 667.424 640.877 667.424C638.691 667.424 637.129 668.986 637.129 671.172C637.129 673.358 638.691 674.92 640.877 674.92C641.814 674.92 642.439 674.607 643.376 673.983C643.688 673.983 644 673.983 644 673.983C644.313 674.295 644 674.607 644 674.607C643.376 675.232 642.126 675.544 641.189 675.544C638.379 676.169 636.505 673.983 636.505 671.484Z" fill="#263238"/>
<path d="M651.496 666.799C653.995 666.799 655.868 668.986 655.868 671.484C655.868 673.983 653.995 676.169 651.496 676.169C648.997 676.169 647.123 673.983 647.123 671.484C647.123 668.986 648.997 666.799 651.496 666.799ZM651.496 675.232C653.37 675.232 654.931 673.67 654.931 671.484C654.931 669.298 653.37 667.736 651.496 667.736C649.622 667.736 648.06 669.298 648.06 671.484C648.06 673.358 649.622 675.232 651.496 675.232Z" fill="#263238"/>
<path d="M672.421 670.547C672.421 668.985 671.172 667.736 669.61 667.736C668.049 667.736 666.8 668.985 666.8 670.547V675.544C666.8 675.544 666.8 675.856 666.487 675.856C666.487 675.856 666.487 675.856 666.175 675.856V670.859C666.175 669.298 664.926 668.048 663.364 668.048C661.802 668.048 660.553 669.298 660.553 670.859V675.856C660.553 675.856 660.553 676.169 660.241 676.169C659.929 676.169 659.929 675.856 659.929 675.856V670.859V667.736C659.929 667.424 660.241 667.424 660.241 667.424C660.553 667.424 660.553 667.736 660.553 667.736V668.673C661.178 667.736 662.115 667.424 663.364 667.424C664.926 667.424 665.863 668.361 666.487 669.298C667.112 668.048 668.361 667.424 669.923 667.424C672.109 667.424 673.671 668.985 673.671 671.172V676.169C673.671 676.481 673.358 676.481 673.358 676.481C673.046 676.481 673.046 676.169 673.046 676.169V670.547H672.421Z" fill="#263238"/>
<path d="M446.303 686.475L489.715 685.85L532.815 685.538L619.327 685.226L705.839 685.538L749.251 685.85L792.351 686.475L749.251 687.1L705.839 687.412L619.327 687.724L532.815 687.412L489.715 687.1L446.303 686.475Z" fill="#DBDBDB"/>
<path d="M452.861 736.445H450.675V740.505C450.675 741.13 450.363 741.442 449.738 741.442C449.114 741.442 448.801 741.13 448.801 740.505V729.574C448.801 728.95 449.114 728.637 449.738 728.637H453.174C455.36 728.637 457.234 730.511 457.234 732.697C456.609 734.571 455.048 736.445 452.861 736.445ZM450.363 734.259H452.549C453.486 734.259 454.423 733.322 454.423 732.385C454.423 731.448 453.486 730.511 452.549 730.511H450.363V734.259Z" fill="#FF7C25"/>
<path d="M464.73 738.319H460.045L459.108 740.818C458.795 741.13 458.483 741.442 458.171 741.442H457.859C457.234 741.13 456.922 740.505 457.234 740.193L461.294 729.262C461.606 728.95 461.919 728.637 462.231 728.637C462.543 728.637 463.168 728.95 463.168 729.262L467.228 740.193C467.54 740.818 467.228 741.442 466.603 741.442H466.291C465.979 741.442 465.354 741.13 465.354 740.818L464.73 738.319ZM463.793 736.445L462.231 732.385L460.669 736.445H463.793Z" fill="#FF7C25"/>
<path d="M469.414 738.32C469.727 738.007 470.351 737.695 470.664 738.32C471.601 738.944 472.85 739.881 474.099 739.881C475.036 739.881 475.973 739.569 476.285 739.257C476.91 738.944 477.222 738.32 477.222 738.007C477.222 737.695 477.222 737.695 476.91 737.383C476.91 737.07 476.598 737.07 476.285 736.758C475.661 736.446 474.724 736.133 473.787 735.821C472.85 735.509 472.225 735.509 471.288 735.196C470.664 734.884 470.039 734.259 469.414 733.635C469.102 733.323 469.102 732.698 469.102 732.073C469.102 730.824 469.727 729.887 470.664 729.262C471.601 728.638 472.538 728.325 473.787 728.325C475.661 728.325 476.91 729.262 477.847 729.887C478.159 730.199 478.472 730.824 478.159 731.136C477.847 731.449 477.222 731.761 476.91 731.449C475.973 730.824 475.036 730.199 473.787 730.199C472.85 730.199 472.225 730.512 471.601 730.824C470.976 731.136 470.976 731.761 470.976 732.073C470.976 732.386 470.976 732.386 470.976 732.698C470.976 732.698 471.288 733.01 471.601 733.323C472.225 733.635 472.85 733.947 473.787 734.26C474.724 734.572 475.661 734.572 476.285 735.196C476.91 735.509 477.847 736.133 478.159 736.758C478.472 737.07 478.472 737.695 478.472 738.32C478.472 739.569 477.847 740.506 476.91 741.131C475.973 741.755 474.724 742.067 473.475 742.067C471.601 742.067 469.727 741.13 468.79 740.194C469.102 739.257 469.102 738.632 469.414 738.32Z" fill="#FF7C25"/>
<path d="M481.595 738.32C481.907 738.007 482.532 737.695 482.844 738.32C483.781 738.944 485.03 739.881 486.279 739.881C487.216 739.881 488.153 739.569 488.466 739.257C489.09 738.944 489.403 738.32 489.403 738.007C489.403 737.695 489.403 737.695 489.09 737.383C489.09 737.07 488.778 737.07 488.466 736.758C487.841 736.446 486.904 736.133 485.967 735.821C485.03 735.509 484.406 735.509 483.469 735.196C482.844 734.884 482.219 734.259 481.595 733.635C481.282 733.323 481.282 732.698 481.282 732.073C481.282 730.824 481.907 729.887 482.844 729.262C483.781 728.638 484.718 728.325 485.967 728.325C487.841 728.325 489.09 729.262 490.027 729.887C490.34 730.199 490.652 730.824 490.34 731.136C490.027 731.449 489.403 731.761 489.09 731.449C488.153 730.824 487.216 730.199 485.967 730.199C485.03 730.199 484.406 730.512 483.781 730.824C483.156 731.136 483.156 731.761 483.156 732.073C483.156 732.386 483.156 732.386 483.156 732.698C483.156 732.698 483.469 733.01 483.781 733.323C484.406 733.635 485.03 733.947 485.967 734.26C486.904 734.572 487.841 734.572 488.466 735.196C489.09 735.509 490.027 736.133 490.34 736.758C490.652 737.07 490.652 737.695 490.652 738.32C490.652 739.569 490.027 740.506 489.09 741.131C488.153 741.755 486.904 742.067 485.655 742.067C483.781 742.067 481.907 741.13 480.97 740.194C481.282 739.257 481.282 738.632 481.595 738.32Z" fill="#FF7C25"/>
<path d="M511.265 729.887L506.58 740.818C506.58 740.818 506.58 740.818 506.58 741.131C506.58 741.131 506.58 741.131 506.268 741.131C506.268 741.131 506.268 741.131 505.956 741.131C505.956 741.131 505.956 741.131 505.643 741.131C505.643 741.131 505.643 741.131 505.331 741.131C505.331 741.131 505.331 741.13 505.331 740.818L502.832 734.884L500.334 740.818C500.334 740.818 500.334 740.818 500.334 741.131C500.334 741.131 500.334 741.131 500.022 741.131C500.022 741.131 500.022 741.131 499.709 741.131C499.709 741.131 499.709 741.131 499.397 741.131C499.397 741.131 499.397 741.13 499.397 740.818L494.712 729.887C494.4 729.262 494.712 728.638 495.337 728.638C495.961 728.325 496.586 728.638 496.586 729.262L500.334 738.007L502.832 732.386C503.145 732.073 503.457 731.761 503.769 731.761C504.082 731.761 504.706 732.073 504.706 732.386L507.205 738.007L510.953 729.262C511.265 728.638 511.89 728.638 512.202 728.638C511.265 728.638 511.577 729.262 511.265 729.887Z" fill="#FF7C25"/>
<path d="M524.382 729.887C525.632 731.136 526.256 732.698 526.256 734.571C526.256 736.445 525.632 738.007 524.382 739.256C523.133 740.506 521.571 741.13 520.01 741.13C518.136 741.13 516.574 740.193 515.325 739.256C514.076 738.007 513.451 736.445 513.451 734.571C513.451 732.698 514.076 731.136 515.325 729.887C516.574 728.637 518.136 728.013 520.01 728.013C521.571 728.013 523.445 728.637 524.382 729.887ZM524.07 734.571C524.07 733.322 523.445 732.073 522.821 731.448C521.884 730.511 520.947 730.199 520.01 730.199C518.761 730.199 517.824 730.824 516.887 731.448C515.95 732.385 515.637 733.322 515.637 734.571C515.637 735.821 516.262 737.07 516.887 737.695C517.824 738.632 518.761 738.944 520.01 738.944C521.259 738.944 522.196 738.319 522.821 737.695C523.758 737.07 524.07 736.133 524.07 734.571Z" fill="#FF7C25"/>
<path d="M538.749 739.881C539.061 740.506 538.749 741.131 538.124 741.131H537.812C537.5 741.131 537.187 741.13 537.187 740.818C536.875 740.818 536.875 740.506 536.563 740.194C536.25 739.569 536.25 738.944 536.25 738.007C536.25 737.695 536.25 737.383 535.938 737.07C535.938 736.758 535.626 736.758 535.313 736.446C535.001 736.133 534.377 736.133 534.377 736.133H532.19V740.194C532.19 740.818 531.878 741.131 531.253 741.131C530.629 741.131 530.316 740.818 530.316 740.194V729.262C530.316 728.638 530.629 728.325 531.253 728.325H534.689C536.875 728.325 538.749 730.199 538.749 732.386C538.749 733.635 538.124 734.572 537.187 735.509C537.5 735.821 537.5 735.821 537.812 736.133C538.124 736.758 538.437 737.383 538.437 738.007C538.437 738.632 538.437 738.944 538.437 739.257C538.437 739.257 538.437 739.569 538.749 739.881ZM535.938 732.386C535.938 731.449 535.001 730.512 534.064 730.512H531.878V734.26H534.064C535.313 734.26 535.938 733.323 535.938 732.386Z" fill="#FF7C25"/>
<path d="M541.872 740.505V729.574C541.872 728.95 542.184 728.637 542.809 728.637H544.995C548.743 728.637 551.554 731.448 551.554 735.196C551.554 738.944 548.743 741.755 544.995 741.755H542.809C542.184 741.442 541.872 741.13 541.872 740.505ZM543.746 739.256H544.995C547.494 739.256 549.368 737.382 549.368 734.884C549.368 732.385 547.494 730.511 544.995 730.511H543.746V739.256Z" fill="#FF7C25"/>
<path d="M450.051 771.425L448.489 772.674H448.177C447.864 772.674 447.864 772.362 447.864 772.362C447.864 772.049 447.864 772.049 448.177 772.049L450.051 771.112L448.177 770.176L447.864 769.863C447.864 769.551 448.177 769.551 448.177 769.551H448.489L450.051 770.8V768.614C450.051 768.302 450.051 768.302 450.363 768.302C450.675 768.302 450.675 768.614 450.675 768.614V770.8L452.237 769.551H452.549C452.861 769.551 452.861 769.863 452.861 769.863C452.861 770.176 452.861 770.176 452.549 770.176L450.675 771.112L452.549 772.049C452.549 772.049 452.861 772.049 452.861 772.362C452.861 772.674 452.549 772.674 452.549 772.674H452.237L450.675 771.425V773.611C450.675 773.923 450.675 773.923 450.363 773.923C450.051 773.923 450.051 773.611 450.051 773.611V771.425Z" fill="#263238"/>
<path d="M458.171 771.425L456.609 772.674H456.297C455.985 772.674 455.985 772.362 455.985 772.362C455.985 772.049 455.985 772.049 456.297 772.049L458.171 771.112L456.297 770.175L455.985 769.863C455.985 769.551 456.297 769.551 456.297 769.551H456.609L458.171 770.8V768.614C458.171 768.302 458.171 768.302 458.483 768.302C458.795 768.302 458.795 768.614 458.795 768.614V770.8L460.357 769.551H460.669C460.982 769.551 460.982 769.863 460.982 769.863C460.982 770.175 460.982 770.175 460.669 770.175L458.795 771.112L460.669 772.049C460.669 772.049 460.982 772.049 460.982 772.362C460.982 772.674 460.669 772.674 460.669 772.674H460.357L458.795 771.425V773.611C458.795 773.923 458.795 773.923 458.483 773.923C458.171 773.923 458.171 773.611 458.171 773.611V771.425Z" fill="#263238"/>
<path d="M466.291 771.425L464.73 772.674H464.417C464.105 772.674 464.105 772.362 464.105 772.362C464.105 772.049 464.105 772.049 464.417 772.049L466.291 771.112L464.417 770.175L464.105 769.863C464.105 769.551 464.417 769.551 464.417 769.551H464.73L466.291 770.8V768.614C466.291 768.302 466.291 768.302 466.603 768.302C466.916 768.302 466.916 768.614 466.916 768.614V770.8L468.477 769.551H468.79C469.102 769.551 469.102 769.863 469.102 769.863C469.102 770.175 469.102 770.175 468.79 770.175L466.916 771.112L468.79 772.049C468.79 772.049 469.102 772.049 469.102 772.362C469.102 772.674 468.79 772.674 468.79 772.674H468.477L466.916 771.425V773.611C466.916 773.923 466.916 773.923 466.603 773.923C466.291 773.923 466.291 773.611 466.291 773.611V771.425Z" fill="#263238"/>
<path d="M474.411 771.425L472.85 772.674H472.537C472.225 772.674 472.225 772.362 472.225 772.362C472.225 772.049 472.225 772.049 472.537 772.049L474.411 771.112L472.537 770.175L472.225 769.863C472.225 769.551 472.537 769.551 472.537 769.551H472.85L474.411 770.8V768.614C474.411 768.302 474.411 768.302 474.724 768.302C475.036 768.302 475.036 768.614 475.036 768.614V770.8L476.598 769.551H476.91C477.222 769.551 477.222 769.863 477.222 769.863C477.222 770.175 477.222 770.175 476.91 770.175L475.036 771.112L476.91 772.049C476.91 772.049 477.222 772.049 477.222 772.362C477.222 772.674 476.91 772.674 476.91 772.674H476.598L474.724 771.425V773.611C474.724 773.923 474.724 773.923 474.411 773.923C474.099 773.923 474.099 773.611 474.099 773.611L474.411 771.425Z" fill="#263238"/>
<path d="M482.532 771.425L480.97 772.674H480.658C480.345 772.674 480.346 772.362 480.346 772.362C480.346 772.049 480.345 772.049 480.658 772.049L482.532 771.112L480.658 770.175L480.346 769.863C480.346 769.551 480.658 769.551 480.658 769.551H480.97L482.532 770.8V768.614C482.532 768.302 482.532 768.302 482.844 768.302C483.156 768.302 483.156 768.614 483.156 768.614V770.8L484.718 769.551H485.03C485.343 769.551 485.343 769.863 485.343 769.863C485.343 770.175 485.343 770.175 485.03 770.175L483.156 771.112L485.03 772.049C485.03 772.049 485.343 772.049 485.343 772.362C485.343 772.674 485.03 772.674 485.03 772.674H484.718L483.156 771.425V773.611C483.156 773.923 483.156 773.923 482.844 773.923C482.532 773.923 482.532 773.611 482.532 773.611V771.425Z" fill="#263238"/>
<path d="M490.34 771.425L488.778 772.674H488.466C488.153 772.674 488.153 772.362 488.153 772.362C488.153 772.049 488.153 772.049 488.466 772.049L490.34 771.112L488.466 770.175L488.153 769.863C488.153 769.551 488.466 769.551 488.466 769.551H488.778L490.34 770.8V768.614C490.34 768.302 490.34 768.302 490.652 768.302C490.964 768.302 490.964 768.614 490.964 768.614V770.8L492.526 769.551H492.838C493.151 769.551 493.151 769.863 493.151 769.863C493.151 770.175 493.151 770.175 492.838 770.175L490.964 771.112L492.838 772.049C492.838 772.049 493.151 772.049 493.151 772.362C493.151 772.674 492.838 772.674 492.838 772.674H492.526L490.964 771.425V773.611C490.964 773.923 490.964 773.923 490.652 773.923C490.34 773.923 490.34 773.611 490.34 773.611V771.425Z" fill="#263238"/>
<path d="M498.46 771.425L496.898 772.674H496.586C496.274 772.674 496.274 772.362 496.274 772.362C496.274 772.049 496.274 772.049 496.586 772.049L498.46 771.112L496.586 770.175L496.274 769.863C496.274 769.551 496.586 769.551 496.586 769.551H496.898L498.46 770.8V768.614C498.46 768.302 498.46 768.302 498.772 768.302C499.085 768.302 499.085 768.614 499.085 768.614V770.8L500.646 769.551H500.958C501.271 769.551 501.271 769.863 501.271 769.863C501.271 770.175 501.271 770.175 500.958 770.175L499.085 771.112L500.958 772.049C500.958 772.049 501.271 772.049 501.271 772.362C501.271 772.674 500.958 772.674 500.958 772.674H500.646L499.085 771.425V773.611C499.085 773.923 499.085 773.923 498.772 773.923C498.46 773.923 498.46 773.611 498.46 773.611V771.425Z" fill="#263238"/>
<path d="M506.58 771.425L505.019 772.674H504.706C504.394 772.674 504.394 772.362 504.394 772.362C504.394 772.049 504.394 772.049 504.706 772.049L506.58 771.112L504.706 770.175L504.394 769.863C504.394 769.551 504.706 769.551 504.706 769.551H505.019L506.58 770.8V768.614C506.58 768.302 506.58 768.302 506.893 768.302C507.205 768.302 507.205 768.614 507.205 768.614V770.8L508.766 769.551H509.079C509.391 769.551 509.391 769.863 509.391 769.863C509.391 770.175 509.391 770.175 509.079 770.175L507.205 771.112L509.079 772.049C509.079 772.049 509.391 772.049 509.391 772.362C509.391 772.674 509.079 772.674 509.079 772.674H508.766L507.205 771.425V773.611C507.205 773.923 507.205 773.923 506.893 773.923C506.58 773.923 506.58 773.611 506.58 773.611V771.425Z" fill="#263238"/>
<path d="M514.7 771.425L513.139 772.674H512.827C512.514 772.674 512.514 772.362 512.514 772.362C512.514 772.049 512.514 772.049 512.827 772.049L514.7 771.112L512.827 770.175L512.514 769.863C512.514 769.551 512.827 769.551 512.827 769.551H513.139L514.7 770.8V768.614C514.7 768.302 514.7 768.302 515.013 768.302C515.325 768.302 515.325 768.614 515.325 768.614V770.8L516.887 769.551H517.199C517.511 769.551 517.511 769.863 517.511 769.863C517.511 770.175 517.511 770.175 517.199 770.175L515.325 771.112L517.199 772.049C517.199 772.049 517.511 772.049 517.511 772.362C517.511 772.674 517.199 772.674 517.199 772.674H516.887L515.325 771.425V773.611C515.325 773.923 515.325 773.923 515.013 773.923C514.7 773.923 514.7 773.611 514.7 773.611V771.425Z" fill="#263238"/>
<path d="M522.821 771.425L521.259 772.674H520.947C520.634 772.674 520.634 772.362 520.634 772.362C520.634 772.049 520.634 772.049 520.947 772.049L522.821 771.112L520.947 770.175L520.634 769.863C520.634 769.551 520.947 769.551 520.947 769.551H521.259L522.821 770.8V768.614C522.821 768.302 522.821 768.302 523.133 768.302C523.445 768.302 523.445 768.614 523.445 768.614V770.8L525.007 769.551H525.319C525.632 769.551 525.632 769.863 525.632 769.863C525.632 770.175 525.632 770.175 525.319 770.175L523.445 771.112L525.319 772.049C525.319 772.049 525.632 772.049 525.632 772.362C525.632 772.674 525.319 772.674 525.319 772.674H525.007L523.445 771.425V773.611C523.445 773.923 523.445 773.923 523.133 773.923C522.821 773.923 522.821 773.611 522.821 773.611V771.425Z" fill="#263238"/>
<path d="M530.629 771.425L529.067 772.674H528.755C528.442 772.674 528.442 772.362 528.442 772.362C528.442 772.049 528.442 772.049 528.755 772.049L530.629 771.112L528.755 770.175L528.442 769.863C528.442 769.551 528.755 769.551 528.755 769.551H529.067L530.629 770.8V768.614C530.629 768.302 530.629 768.302 530.941 768.302C531.253 768.302 531.253 768.614 531.253 768.614V770.8L532.815 769.551H533.127C533.439 769.551 533.439 769.863 533.439 769.863C533.439 770.175 533.439 770.175 533.127 770.175L531.253 771.112L533.127 772.049C533.127 772.049 533.439 772.049 533.439 772.362C533.439 772.674 533.127 772.674 533.127 772.674H532.815L531.253 771.425V773.611C531.253 773.923 531.253 773.923 530.941 773.923C530.629 773.923 530.629 773.611 530.629 773.611V771.425Z" fill="#263238"/>
<path d="M446.303 792.039L489.715 791.414L532.815 791.102L619.327 790.789L705.839 791.102L749.251 791.414L792.351 792.039L749.251 792.663L705.839 792.976H619.327H532.815L489.715 792.663L446.303 792.039Z" fill="#DBDBDB"/>
<path d="M537.187 757.683H535.626V785.792H537.187V757.683Z" fill="#263238"/>
<path d="M746.753 871.055H492.214V951.009H746.753V871.055Z" fill="#FF7C25"/>
<path d="M576.54 921.65V905.097C576.54 904.16 577.164 903.536 578.101 903.536C579.038 903.536 579.663 904.16 579.663 905.097V920.089H587.158C588.095 920.089 588.72 920.713 588.72 921.65C588.72 922.587 588.095 923.212 587.158 923.212H578.101C577.164 923.212 576.54 922.587 576.54 921.65Z" fill="white"/>
<path d="M606.522 906.034C608.396 907.908 609.333 910.407 609.333 913.218C609.333 916.028 608.084 918.527 606.522 920.401C604.96 922.275 602.462 923.524 599.651 923.524C596.84 923.524 594.342 922.275 592.78 920.401C590.906 918.527 589.969 916.028 589.969 913.218C589.969 910.407 590.906 907.908 592.78 906.034C594.342 904.16 596.84 902.911 599.651 902.911C602.462 902.911 604.96 904.16 606.522 906.034ZM606.21 913.218C606.21 911.344 605.585 909.47 604.336 908.22C603.087 906.971 601.525 906.347 599.963 906.347C598.089 906.347 596.528 906.971 595.279 908.22C594.029 909.47 593.405 911.344 593.405 913.218C593.405 915.092 594.029 916.965 595.279 918.215C596.528 919.464 598.089 920.089 599.963 920.089C601.525 920.089 603.087 919.464 604.336 918.215C605.585 916.653 606.21 915.092 606.21 913.218Z" fill="white"/>
<path d="M614.018 913.218C614.018 907.596 618.702 903.224 624.324 903.224C626.823 903.224 629.009 904.161 630.883 905.41C631.507 906.035 631.82 906.972 631.195 907.596C630.571 908.221 629.634 908.533 629.009 907.909C627.76 906.972 626.198 906.347 624.636 906.347C622.763 906.347 620.889 906.972 619.639 908.533C618.39 909.782 617.453 911.656 617.453 913.53C617.453 915.404 618.39 916.966 619.639 918.215C620.889 919.464 622.763 920.401 624.636 920.401C626.198 920.401 627.447 920.089 628.384 919.464V915.092H624.324C623.387 915.092 622.763 914.467 622.763 913.53C622.763 912.593 623.387 911.969 624.324 911.969H629.946C630.883 911.969 631.507 912.593 631.507 913.53V919.777C631.507 920.089 631.507 920.089 631.507 920.401C631.507 920.714 631.195 921.026 630.883 921.026C629.009 922.275 626.823 923.212 624.636 923.212C618.702 923.212 614.018 918.84 614.018 913.218Z" fill="white"/>
<path d="M638.066 905.097C638.066 904.16 638.691 903.536 639.628 903.536C640.565 903.536 641.189 904.16 641.189 905.097V921.65C641.189 922.587 640.565 923.212 639.628 923.212C638.691 923.212 638.066 922.587 638.066 921.65V905.097Z" fill="white"/>
<path d="M649.622 921.651C649.622 922.587 648.997 923.212 648.06 923.212C647.123 923.212 646.499 922.587 646.499 921.651V905.41C646.499 904.785 646.811 904.473 647.123 904.161C647.748 903.536 648.685 903.848 649.31 904.473L658.367 916.966V905.41C658.367 904.473 658.991 903.848 659.928 903.848C660.865 903.848 661.49 904.473 661.49 905.41V921.651C661.49 922.587 660.865 923.212 659.928 923.212C659.616 923.212 658.991 922.9 658.679 922.587C658.679 922.587 658.679 922.587 658.679 922.275L649.622 909.782V921.651Z" fill="white"/>
<path d="M538.749 980.679C538.749 980.366 539.061 980.366 539.061 980.366H545.62C545.932 980.366 545.932 980.679 545.932 980.679C545.932 980.991 545.62 980.991 545.62 980.991H539.374V986.3H544.996C545.308 986.3 545.308 986.613 545.308 986.925C545.308 987.237 544.996 987.237 544.996 987.237H539.374V992.859C539.374 993.172 539.061 993.172 539.061 993.172C538.749 993.172 538.749 992.859 538.749 992.859V980.679Z" fill="#263238"/>
<path d="M552.179 984.114C554.677 984.114 556.551 986.3 556.551 988.799C556.551 991.297 554.677 993.484 552.179 993.484C549.68 993.484 547.806 991.297 547.806 988.799C547.806 986.3 549.993 984.114 552.179 984.114ZM552.179 992.547C554.053 992.547 555.614 990.985 555.614 988.799C555.614 986.613 554.053 985.051 552.179 985.051C550.305 985.051 548.743 986.613 548.743 988.799C548.743 990.673 550.305 992.547 552.179 992.547Z" fill="#263238"/>
<path d="M559.674 984.739C559.674 984.426 559.987 984.426 559.987 984.426C560.299 984.426 560.299 984.739 560.299 984.739V986.613C560.299 986.613 560.299 986.613 560.299 986.3C560.924 985.363 562.173 984.114 564.047 984.114C564.359 984.114 564.359 984.426 564.359 984.426C564.359 984.739 564.047 984.739 564.047 984.739C562.798 984.739 562.173 985.363 561.236 986.3C560.611 987.237 560.299 988.174 559.987 988.487V992.547C559.987 992.859 559.674 992.859 559.674 992.859C559.362 992.859 559.362 992.547 559.362 992.547V984.739H559.674Z" fill="#263238"/>
<path d="M575.915 992.546C575.915 995.045 574.041 996.919 571.543 996.919C570.918 996.919 570.293 996.607 569.669 996.607C569.356 996.607 569.356 996.294 569.356 995.982C569.356 995.67 569.669 995.67 569.981 995.67C570.293 995.982 570.918 995.982 571.543 995.982C573.417 995.982 574.978 994.42 574.978 992.546V991.297C574.353 992.546 573.104 993.171 571.543 993.171C569.044 993.171 567.17 990.985 567.17 988.486C567.17 985.988 569.044 983.802 571.543 983.802C572.792 983.802 574.353 984.426 574.978 985.675V984.426C574.978 984.114 575.29 984.114 575.29 984.114C575.603 984.114 575.603 984.426 575.603 984.426V992.546H575.915ZM574.978 988.799C574.978 986.612 573.417 985.051 571.543 985.051C569.669 985.051 568.107 986.612 568.107 988.799C568.107 990.985 569.669 992.546 571.543 992.546C573.417 992.234 574.978 990.673 574.978 988.799Z" fill="#263238"/>
<path d="M584.348 984.114C586.846 984.114 588.72 986.3 588.72 988.799C588.72 991.297 586.846 993.484 584.348 993.484C581.849 993.484 579.975 991.297 579.975 988.799C579.975 986.3 581.849 984.114 584.348 984.114ZM584.348 992.547C586.222 992.547 587.783 990.985 587.783 988.799C587.783 986.613 586.222 985.051 584.348 985.051C582.474 985.051 580.912 986.613 580.912 988.799C580.912 990.673 582.474 992.547 584.348 992.547Z" fill="#263238"/>
<path d="M594.967 984.739C594.967 985.051 594.654 985.051 594.654 985.051H593.405V991.61C593.405 991.922 593.717 992.235 594.03 992.235C594.342 992.235 594.342 992.547 594.342 992.547C594.342 992.859 594.03 992.859 594.03 992.859C593.093 992.859 592.468 992.235 592.468 991.298V984.739H591.219C590.906 984.739 590.906 984.427 590.906 984.427C590.906 984.114 590.906 984.114 591.219 984.114H592.468V980.679C592.468 980.366 592.78 980.366 592.78 980.366C593.093 980.366 593.405 980.679 593.405 980.679V984.114H594.654C594.654 984.114 594.967 984.427 594.967 984.739Z" fill="#263238"/>
<path d="M604.648 988.799V988.486V984.426C604.648 984.114 604.961 984.114 604.961 984.114C605.273 984.114 605.273 984.426 605.273 984.426V985.675C606.21 984.738 607.459 983.802 608.708 983.802C611.207 983.802 613.081 985.988 613.081 988.486C613.081 990.985 611.207 993.171 608.708 993.171C607.147 993.171 605.898 992.546 605.273 991.297V996.607C605.273 996.919 604.961 996.919 604.961 996.919C604.648 996.919 604.648 996.607 604.648 996.607V988.799ZM605.585 988.799C605.585 990.673 607.147 992.546 609.021 992.546C610.895 992.546 612.456 990.985 612.456 988.799C612.456 986.925 610.895 985.051 609.021 985.051C607.459 985.051 605.898 986.612 605.585 988.799Z" fill="#263238"/>
<path d="M624.949 984.739V993.171C624.949 993.484 624.637 993.484 624.637 993.484C624.324 993.484 624.324 993.171 624.324 993.171V991.922C623.387 992.859 622.138 993.796 620.889 993.796C618.39 993.796 616.516 991.61 616.516 989.111C616.516 986.613 618.39 984.426 620.889 984.426C622.138 984.426 623.7 985.051 624.324 986.3V985.051C624.324 984.739 624.637 984.739 624.637 984.739C624.637 984.114 624.949 984.426 624.949 984.739ZM624.012 988.799C624.012 986.613 622.45 985.051 620.577 985.051C618.703 985.051 617.141 986.613 617.141 988.799C617.141 990.985 618.703 992.547 620.577 992.547C622.45 992.547 624.012 990.673 624.012 988.799Z" fill="#263238"/>
<path d="M628.072 991.297C628.072 990.985 628.384 990.985 628.697 991.297C629.321 991.922 630.258 992.234 631.508 992.234C632.132 992.234 632.757 991.922 633.382 991.609C633.694 991.297 634.006 990.985 634.006 990.36C634.006 990.048 633.694 989.736 633.382 989.111C633.069 988.799 632.445 988.486 631.508 988.486C630.571 988.486 629.946 988.174 629.321 987.862C628.697 987.549 628.384 986.925 628.384 986.3C628.384 985.675 628.697 985.051 629.321 984.426C629.946 984.114 630.571 983.802 631.508 983.802C632.757 983.802 633.382 984.426 634.319 984.738C634.631 984.738 634.631 985.051 634.319 985.363C634.319 985.675 634.006 985.675 633.694 985.363C633.069 985.051 632.445 984.426 631.508 984.426C630.883 984.426 630.258 984.738 629.634 985.051C629.321 985.363 629.009 985.675 629.009 985.988C629.009 986.3 629.321 986.612 629.634 986.925C629.946 987.237 630.571 987.549 631.508 987.549C632.445 987.549 633.069 987.862 633.694 988.174C634.318 988.486 634.631 989.423 634.631 990.048C634.631 990.673 634.318 991.297 633.694 991.922C633.069 992.546 632.445 992.546 631.508 992.546C629.946 992.546 629.009 991.922 628.072 991.297C628.072 991.609 628.072 991.922 628.072 991.297Z" fill="#263238"/>
<path d="M637.129 991.297C637.129 990.985 637.442 990.985 637.754 991.297C638.379 991.922 639.316 992.234 640.565 992.234C641.19 992.234 641.814 991.922 642.439 991.609C642.751 991.297 643.063 990.985 643.063 990.36C643.063 990.048 642.751 989.736 642.439 989.111C642.126 988.799 641.502 988.486 640.565 988.486C639.628 988.486 639.003 988.174 638.379 987.862C637.754 987.549 637.442 986.925 637.442 986.3C637.442 985.675 637.754 985.051 638.379 984.426C639.003 984.114 639.628 983.802 640.565 983.802C641.814 983.802 642.439 984.426 643.376 984.738C643.688 984.738 643.688 985.051 643.376 985.363C643.376 985.675 643.063 985.675 642.751 985.363C642.126 985.051 641.502 984.426 640.565 984.426C639.94 984.426 639.316 984.738 638.691 985.051C638.379 985.363 638.066 985.675 638.066 985.988C638.066 986.3 638.379 986.612 638.691 986.925C639.003 987.237 639.628 987.549 640.565 987.549C641.502 987.549 642.126 987.862 642.751 988.174C643.376 988.486 643.688 989.423 643.688 990.048C643.688 990.673 643.376 991.297 642.751 991.922C642.126 992.546 641.502 992.546 640.565 992.546C639.003 992.546 638.066 991.922 637.129 991.297C637.129 991.609 637.129 991.922 637.129 991.297Z" fill="#263238"/>
<path d="M649.622 993.171L645.874 984.739C645.874 984.426 645.874 984.114 646.186 984.114C646.499 984.114 646.811 984.114 646.811 984.426L649.934 991.61L652.121 986.613C652.121 986.3 652.433 986.3 652.433 986.3C652.745 986.3 652.745 986.3 652.745 986.613L654.931 991.61L658.055 984.426C658.055 984.114 658.367 984.114 658.679 984.114C658.992 984.114 658.992 984.426 658.992 984.739L655.556 992.859C655.556 992.859 655.556 993.171 655.244 993.171C655.244 993.171 655.244 993.171 654.931 993.171C654.931 993.171 654.619 993.171 654.619 992.859L652.433 987.862L650.247 992.859C650.247 993.171 650.247 993.171 649.622 993.171C649.934 993.171 649.934 993.171 649.622 993.171C649.934 993.171 649.934 993.171 649.622 993.171Z" fill="#263238"/>
<path d="M666.175 984.114C668.674 984.114 670.547 986.3 670.547 988.799C670.547 991.297 668.674 993.484 666.175 993.484C663.676 993.484 661.803 991.297 661.803 988.799C661.803 986.3 663.989 984.114 666.175 984.114ZM666.175 992.547C668.049 992.547 669.611 990.985 669.611 988.799C669.611 986.613 668.049 985.051 666.175 985.051C664.301 985.051 662.74 986.613 662.74 988.799C662.74 990.673 664.301 992.547 666.175 992.547Z" fill="#263238"/>
<path d="M673.671 984.739C673.671 984.426 673.983 984.426 674.295 984.426C674.608 984.426 674.608 984.739 674.608 984.739V986.613C674.608 986.613 674.608 986.613 674.608 986.3C675.232 985.363 676.482 984.114 678.355 984.114C678.668 984.114 678.668 984.426 678.668 984.426C678.668 984.739 678.355 984.739 678.355 984.739C677.106 984.739 676.482 985.363 675.545 986.3C674.92 987.237 674.608 988.174 674.295 988.487V992.547C674.295 992.859 673.983 992.859 673.983 992.859C673.671 992.859 673.358 992.547 673.358 992.547V984.739H673.671Z" fill="#263238"/>
<path d="M688.662 991.61C687.725 992.547 686.476 993.484 685.226 993.484C682.728 993.484 680.854 991.298 680.854 988.799C680.854 986.301 682.728 984.114 685.226 984.114C686.788 984.114 688.037 984.739 688.662 985.988V980.679C688.662 980.366 688.974 980.366 688.974 980.366C689.287 980.366 689.287 980.679 689.287 980.679V988.487V988.799V992.859C689.287 993.172 688.974 993.172 688.974 993.172C688.662 993.172 688.662 992.859 688.662 992.859V991.61ZM688.662 988.799C688.662 986.613 687.1 985.051 685.226 985.051C683.353 985.051 681.791 986.613 681.791 988.799C681.791 990.673 683.353 992.547 685.226 992.547C687.1 992.547 688.662 990.985 688.662 988.799Z" fill="#263238"/>
<path d="M695.845 987.862C695.845 987.549 696.158 987.237 696.158 987.237C698.032 987.237 699.281 985.676 699.281 984.114C699.281 982.24 697.719 980.991 696.158 980.991C694.908 980.991 693.971 981.615 693.347 982.552C693.347 982.865 693.034 982.865 692.722 982.552C692.41 982.552 692.41 982.24 692.722 981.928C693.347 980.678 694.596 980.054 696.158 980.054C698.344 980.054 700.218 981.928 700.218 984.114C700.218 986.3 698.656 987.862 696.47 988.174V990.048C696.47 990.36 696.158 990.36 696.158 990.36C695.845 990.36 695.845 990.048 695.845 990.048V987.862ZM695.845 992.547C695.845 992.234 696.158 992.234 696.158 992.234C696.47 992.234 696.47 992.547 696.47 992.547V992.859C696.47 993.171 696.158 993.171 696.158 993.171C695.845 993.171 695.845 992.859 695.845 992.859V992.547Z" fill="#263238"/>
<path d="M649.309 47.4726H589.657C587.47 47.4726 585.909 45.911 585.909 43.7247C585.909 41.5385 587.47 39.9769 589.657 39.9769H649.309C651.496 39.9769 653.057 41.5385 653.057 43.7247C652.745 45.5987 651.183 47.4726 649.309 47.4726Z" fill="white"/>
<path d="M901.35 210.815C901.35 210.815 901.038 210.815 900.101 211.127C900.101 210.815 900.101 210.815 900.413 210.815C901.038 210.815 901.35 210.815 901.35 210.815Z" fill="#263238"/>
<path d="M937.267 1113.1C936.955 1113.1 936.955 1113.1 936.642 1113.1V1112.79C936.955 1112.79 937.267 1113.1 937.267 1113.1Z" fill="#DD6A57"/>
<path d="M1066.25 1139.65C1059.38 1136.52 908.221 999.73 905.723 990.985C904.786 987.549 923.525 964.438 946.636 936.954C951.633 931.02 1010.35 837.012 1010.35 837.012L1116.23 921.025L1044.08 1025.03C1044.08 1025.03 1078.43 1103.42 1080.31 1113.41C1082.18 1123.41 1073.13 1142.77 1066.25 1139.65Z" fill="#DD6A57"/>
<path d="M1068.44 1080.62C1074.69 1095.92 1080.31 1109.67 1080.93 1113.41C1082.49 1123.41 1073.44 1142.77 1066.57 1139.65C1059.7 1136.53 908.533 999.73 906.035 990.985C905.098 988.174 917.278 972.558 934.456 951.945C965.063 987.549 1061.26 1097.8 1068.44 1087.49C1068.75 1086.87 1068.75 1084.06 1068.44 1080.62Z" fill="#263238"/>
<path d="M956.943 919.464L1064.07 1007.85C1064.07 1007.85 1213.04 800.471 1217.42 724.578C1220.54 666.174 1134.03 557.487 1075.31 464.729C1069.69 455.672 1073.13 421.629 1073.44 415.695L956.943 416.007C955.381 429.125 946.324 495.024 966 527.193C1006.29 593.404 1071.56 689.286 1074.06 709.899C1076.56 730.512 956.943 919.464 956.943 919.464Z" fill="#37474F"/>
<path d="M1070.94 975.369C1053.76 961.003 1059.07 964.75 1041.58 950.384C1033.15 943.513 990.673 908.221 981.616 902.911C981.304 902.911 981.304 903.224 981.304 903.224C988.175 911.032 1031.27 945.387 1040.02 952.258C1057.51 966.312 1052.51 961.939 1070.31 975.994C1070.94 976.306 1071.25 975.681 1070.94 975.369Z" fill="#263238"/>
<path d="M1084.37 690.535C1080.31 683.039 1076.25 675.544 1071.88 668.048C1063.13 653.057 1053.45 638.69 1044.08 624.011C1034.4 608.708 1024.4 593.716 1014.72 578.413C1005.98 564.671 996.919 551.241 989.424 536.874C981.928 522.82 975.682 507.829 972.559 491.901C969.123 474.723 969.748 456.921 971.309 439.431C971.622 435.059 972.246 430.686 972.559 426.314C972.559 425.689 971.309 425.377 971.309 426.314C969.435 443.491 967.562 460.669 968.811 477.846C970.06 493.774 974.433 509.078 980.679 523.757C986.925 538.124 995.046 551.866 1003.48 565.295C1012.85 579.974 1022.22 594.653 1031.59 609.332C1040.96 624.324 1050.64 639.002 1060.01 653.994C1064.69 661.177 1069.07 668.673 1073.13 676.168C1077.19 683.664 1081.56 691.16 1084.99 698.968C1086.55 702.715 1088.12 707.088 1088.12 711.148C1088.43 715.52 1087.18 719.893 1085.62 723.953C1082.49 732.073 1078.43 739.569 1074.37 747.377C1066.88 762.68 1059.07 777.984 1050.95 793.288C1035.02 823.895 991.61 895.728 989.424 899.476C989.111 899.788 989.736 900.1 989.736 899.788C1008.16 870.43 1030.65 836.075 1047.2 805.78C1055.32 790.477 1063.44 775.173 1071.25 759.87C1075.31 752.062 1079.06 744.254 1082.81 736.446C1086.24 729.262 1090.3 722.079 1090.3 713.959C1091.55 705.214 1087.8 697.406 1084.37 690.535Z" fill="#263238"/>
<path d="M1069.38 415.695C1061.88 454.11 1040.33 564.983 1028.46 626.197C1008.16 593.716 984.427 557.487 966.312 527.193C946.636 495.024 955.693 429.125 957.255 416.007L1069.38 415.695Z" fill="#263238"/>
<path d="M1091.86 1216.79C1084.68 1218.98 880.737 1216.17 873.241 1211.17C870.431 1209.3 868.869 1179.63 868.557 1143.71C868.557 1135.9 870.118 1017.53 870.118 1017.53L1006.6 1019.09L1000.04 1144.96C1000.04 1144.96 1077.5 1180.88 1085.31 1187.43C1093.11 1193.99 1099.05 1214.61 1091.86 1216.79Z" fill="#DD6A57"/>
<path d="M1054.39 1171.19C1069.38 1178.69 1082.49 1185.25 1085.31 1187.75C1093.11 1194.3 1099.05 1214.61 1091.86 1217.1C1084.68 1219.29 880.737 1216.48 873.242 1211.48C870.743 1209.92 869.494 1190.24 868.869 1163.39C915.092 1169.94 1060.63 1189.31 1059.07 1176.81C1058.76 1175.57 1057.2 1173.38 1054.39 1171.19Z" fill="#263238"/>
<path d="M1073.44 416.008C1073.44 416.008 1050.33 528.442 1049.08 531.878C1049.08 531.878 1036.27 536.875 1016.28 548.118L1008.16 1119.66L861.061 1120.6C861.061 1120.6 879.176 817.649 878.863 798.285C877.926 767.053 891.668 555.926 889.794 550.617C870.743 496.273 900.726 416.32 900.726 416.32H1073.44V416.008Z" fill="#37474F"/>
<path d="M1002.54 1092.49C961.003 1090.61 880.737 1091.55 870.743 1093.11C870.431 1093.11 870.431 1093.43 870.743 1093.43C881.049 1094.99 978.493 1095.3 1002.54 1092.8C1002.85 1093.11 1002.85 1092.49 1002.54 1092.49Z" fill="#263238"/>
<path d="M894.167 946.948C896.353 903.849 899.164 861.061 901.35 817.961C903.849 774.861 906.347 732.073 908.846 688.974C910.095 667.424 911.344 645.874 912.594 624.636C913.218 614.017 913.843 603.086 914.467 592.467C915.092 581.848 916.341 571.23 915.717 560.611C915.092 549.055 910.095 538.748 907.284 527.817C904.473 517.199 903.536 506.267 903.536 495.649C903.536 473.162 908.221 450.987 912.281 429.125C912.594 427.876 914.468 428.5 914.155 429.749C909.783 449.738 905.723 470.351 905.41 490.964C905.098 501.27 906.035 511.577 908.221 521.571C910.407 531.253 914.468 540.31 916.966 549.68C919.465 559.674 918.215 569.668 917.903 579.974C917.278 590.593 916.654 601.524 916.029 612.143C914.78 633.069 913.531 654.306 912.594 675.232C907.597 760.807 902.912 846.382 897.602 931.957C894.791 980.054 892.293 1028.15 888.545 1076.25C888.545 1076.56 887.92 1076.56 887.92 1076.25C889.17 1032.84 891.981 990.048 894.167 946.948Z" fill="#263238"/>
<path d="M916.341 483.155C918.84 482.218 921.651 481.906 924.149 480.969C926.96 480.032 929.459 479.095 931.957 478.158C936.642 475.972 941.327 473.161 945.387 469.726C949.447 466.29 951.946 461.605 954.132 456.608C955.069 453.798 956.318 451.299 957.255 448.488C957.88 447.239 958.192 445.99 958.817 444.428C959.129 443.803 960.378 440.992 960.691 440.368H960.378V440.056C960.378 439.743 960.691 439.743 961.003 439.743H961.315C961.94 440.68 961.315 441.617 961.003 442.554C960.691 444.428 960.066 445.99 959.754 447.863C959.129 450.987 958.192 454.11 957.255 456.921C955.693 462.542 953.195 467.852 948.51 471.912C944.138 475.972 938.828 478.783 933.519 480.969C930.708 481.906 927.897 482.843 924.774 483.468C921.963 484.092 919.152 484.717 916.341 484.092C915.717 484.092 916.029 483.468 916.341 483.155Z" fill="#263238"/>
<path d="M1035.02 514.076C1035.33 509.078 1035.65 503.769 1035.96 498.772C1036.9 486.904 1037.83 475.348 1039.71 463.792C1039.71 462.855 1041.27 463.168 1040.96 464.105C1040.33 473.162 1039.39 482.219 1038.77 491.276C1038.15 500.334 1037.21 509.391 1037.21 518.448C1037.21 521.259 1037.52 525.944 1040.96 526.568C1045.33 527.505 1047.51 521.571 1048.45 518.448C1050.95 510.328 1052.51 501.895 1053.76 493.463C1055.01 483.781 1055.64 474.099 1056.57 464.729C1056.57 464.417 1057.2 464.417 1057.2 464.729C1057.51 483.781 1057.51 503.769 1050.95 521.884C1049.7 525.319 1047.2 529.067 1043.14 529.691C1043.14 529.691 1043.14 529.691 1042.83 529.691V530.004C1042.83 530.628 1042.52 530.941 1042.52 531.565C1042.52 531.878 1042.52 532.502 1042.21 532.815C1041.89 533.752 1041.89 534.689 1041.58 535.626C1041.27 536.562 1040.33 536.25 1040.33 535.626C1040.02 535.626 1040.02 535.313 1040.02 535.001C1040.02 533.127 1040.64 531.253 1041.27 529.691C1039.08 529.379 1037.21 527.818 1036.27 525.631C1034.4 521.884 1035.02 517.823 1035.02 514.076Z" fill="#263238"/>
<path d="M1049.08 530.941C1034.4 536.875 1020.66 545.308 1007.54 553.74C1006.91 554.052 1007.54 554.989 1007.85 554.677C1021.9 547.494 1036.27 540.623 1050.01 532.815C1051.26 531.878 1050.33 530.316 1049.08 530.941Z" fill="#263238"/>
<path d="M1012.22 830.766C1012.22 829.517 1012.54 828.892 1012.85 830.453C1013.16 839.823 1013.16 853.565 1013.16 862.935C1013.16 874.178 1013.16 885.109 1013.16 896.353C1012.85 907.596 1012.85 918.527 1012.22 929.771L1011.6 946.636C1011.29 950.384 1011.6 958.192 1011.29 961.939C1011.29 963.813 1010.66 964.126 1010.66 962.252C1010.35 956.63 1010.35 952.258 1010.04 946.636L1009.72 929.771C1009.72 918.527 1009.72 907.596 1009.72 896.353C1010.04 885.109 1010.04 874.178 1010.66 862.935C1010.97 852.003 1011.29 842.009 1012.22 830.766Z" fill="#263238"/>
<path d="M1085.31 257.35C1085.31 258.287 1084.99 258.911 1084.06 259.224C1082.18 259.536 1080 259.536 1077.5 259.848C1070.94 243.608 1064.07 230.49 1065.94 235.487C1068.75 242.983 1070.94 253.602 1071.25 260.161C1068.44 260.473 1061.57 260.785 1058.13 261.097C1051.89 232.052 1044.39 210.814 1045.02 217.373C1047.83 244.232 1046.58 252.665 1045.33 262.034C1013.78 264.221 972.559 266.719 942.888 267.969C938.828 252.04 935.08 234.55 934.456 235.8C930.708 244.857 930.083 258.287 930.396 268.281C921.026 268.593 913.218 268.593 908.533 268.281C908.533 268.281 905.722 254.851 905.098 250.479C903.849 239.235 904.473 227.679 906.972 216.436C909.783 205.193 914.78 195.198 919.464 184.892V184.58C922.588 177.396 925.086 170.525 926.648 163.342C926.648 163.342 926.648 163.342 926.648 163.03C927.585 158.032 928.209 152.723 928.522 146.789C929.146 126.801 938.828 109.623 956.006 104.001C987.55 69.9588 1020.97 83.3884 1032.21 108.374C1033.15 110.872 1034.4 113.683 1035.33 116.806C1039.08 128.05 1042.83 143.041 1045.95 154.285C1047.51 159.594 1049.08 164.279 1050.33 167.402C1060.01 189.264 1079.68 200.508 1085.31 257.35Z" fill="#263238"/>
<path d="M949.135 110.248C937.891 116.806 931.333 126.488 930.083 140.855C929.459 149.288 929.146 157.408 926.648 165.528C923.837 173.961 919.152 180.832 914.467 187.39C906.972 198.322 901.662 208.94 901.038 223.307C900.413 237.674 901.662 254.851 906.66 267.968C902.287 254.539 901.662 235.487 903.224 221.121C905.098 205.505 912.906 195.198 921.026 183.018C927.273 173.336 931.333 162.717 932.27 150.537C932.894 143.354 932.27 135.858 934.768 128.987C937.579 120.867 943.825 115.557 950.072 110.872C950.696 111.185 950.072 109.935 949.135 110.248Z" fill="#263238"/>
<path d="M1070.94 190.201C1062.51 179.27 1053.76 169.9 1048.45 155.846C1043.77 143.353 1040.64 129.924 1035.65 117.431C1035.65 117.119 1035.33 117.431 1035.33 117.431C1043.14 139.918 1045.33 162.405 1059.7 181.144C1067.5 191.138 1075.31 200.508 1080.62 213C1086.24 225.805 1089.05 239.235 1089.99 253.602C1089.99 254.226 1090.61 253.914 1090.61 253.602C1091.86 230.49 1084.37 207.691 1070.94 190.201Z" fill="#263238"/>
<path d="M1146.83 128.987L1126.84 221.745C1125.91 224.556 1127.47 226.742 1129.97 226.43L1177.44 224.868C1179.94 224.868 1183.06 222.37 1184 219.871L1204.3 127.425C1205.24 124.614 1203.67 122.428 1201.18 122.74L1153.7 124.302C1150.89 123.989 1147.77 126.176 1146.83 128.987Z" fill="#37474F"/>
<path d="M1152.45 128.674L1132.15 221.121C1131.22 223.931 1132.78 226.118 1135.28 225.805L1182.75 224.244C1185.25 224.244 1188.37 221.745 1189.31 219.247L1209.61 126.8C1210.55 123.99 1208.98 121.803 1206.48 122.116L1159.01 123.677C1156.51 123.677 1153.39 126.176 1152.45 128.674Z" fill="#455A64"/>
<path d="M1165.57 132.735C1165.57 134.921 1163.7 136.795 1161.51 136.795C1159.32 136.795 1157.45 134.921 1157.45 132.735C1157.45 130.549 1159.32 128.675 1161.51 128.675C1164.01 128.675 1165.57 130.236 1165.57 132.735Z" fill="#263238"/>
<path d="M998.481 272.965C1026.59 329.495 1088.43 402.265 1113.41 401.952C1125.28 401.952 1146.52 404.139 1161.82 390.084C1195.24 359.477 1222.1 302.011 1227.1 269.53C1228.97 257.974 1172.13 234.238 1164.01 243.607C1144.96 266.094 1123.41 309.819 1119.97 309.819C1107.17 309.194 1056.26 268.905 1020.97 240.172C977.868 205.817 987.55 250.478 998.481 272.965Z" fill="#DD6A57"/>
<path d="M1227.41 209.877C1220.85 186.453 1215.54 181.456 1220.54 158.969C1223.66 143.978 1215.85 135.545 1205.55 147.725C1188.99 167.401 1190.87 199.258 1194.93 210.189L1227.41 209.877Z" fill="#DD6A57"/>
<path d="M1224.91 279.836C1224.91 279.836 1234.59 246.73 1230.22 221.12C1227.1 203.318 1216.17 165.84 1165.88 146.789C1154.02 142.416 1133.71 144.29 1150.58 158.657C1162.45 168.963 1173.07 171.774 1179 178.957C1179 178.957 1153.7 184.579 1149.64 196.76C1147.77 202.069 1143.4 217.06 1141.52 229.241C1141.52 229.241 1144.02 230.49 1147.46 231.427C1147.46 231.427 1144.65 242.983 1153.7 258.911L1224.91 279.836Z" fill="#DD6A57"/>
<path d="M1224.6 204.879C1217.42 198.945 1201.49 186.765 1185.25 181.143C1167.13 174.897 1130.28 168.026 1125.91 181.455C1122.78 191.45 1136.53 195.197 1136.53 195.197C1136.53 195.197 1120.91 195.51 1119.66 204.879C1118.72 213.624 1129.65 216.123 1129.65 216.123C1129.65 216.123 1119.97 217.997 1120.91 226.429C1121.85 236.736 1141.52 231.114 1151.52 240.796C1153.7 242.982 1224.6 204.879 1224.6 204.879Z" fill="#DD6A57"/>
<path d="M1181.81 201.132C1174 196.76 1153.7 191.138 1136.84 194.573C1136.53 194.573 1136.21 194.886 1136.53 194.886C1155.89 195.198 1174 199.258 1181.81 201.132C1181.81 201.444 1181.81 201.132 1181.81 201.132Z" fill="#263238"/>
<path d="M1174.94 219.246C1167.76 216.123 1146.52 211.438 1129.65 215.499C1129.34 215.499 1129.03 215.811 1129.65 215.811C1149.64 215.186 1167.13 217.997 1174.94 219.246C1174.94 219.559 1174.94 219.559 1174.94 219.246Z" fill="#263238"/>
<path d="M1024.4 324.186L1071.25 275.152C1071.25 275.152 1036.27 243.295 1010.66 230.803C985.051 218.31 980.679 235.175 991.298 260.785C1001.92 286.395 1024.4 324.186 1024.4 324.186Z" fill="#FB9952"/>
<path opacity="0.1" d="M1024.4 324.186L1071.25 275.152C1071.25 275.152 1036.27 243.295 1010.66 230.803C985.051 218.31 980.679 235.175 991.298 260.785C1001.92 286.395 1024.4 324.186 1024.4 324.186Z" fill="black"/>
<path d="M1067.82 373.22L1089.99 476.597C1089.99 476.597 920.089 490.339 877.926 490.027C877.926 490.027 899.476 292.954 941.639 240.485C962.565 214.25 989.424 214.562 1007.54 230.49C1012.22 234.551 1067.82 298.888 1075 324.498C1080.93 346.985 1067.82 373.22 1067.82 373.22Z" fill="#EBEBEB"/>
<path d="M988.487 220.496H970.373C976.619 218.934 982.865 218.934 988.487 220.496Z" fill="#FB9952"/>
<path d="M1007.23 230.491H951.321C951.946 229.866 952.883 229.241 953.82 228.617H1005.04C1005.66 228.929 1006.29 229.554 1007.23 230.491Z" fill="#FB9952"/>
<path d="M1015.97 240.172H941.327C941.952 239.547 942.264 238.923 942.888 238.298H1014.41C1015.03 238.923 1015.66 239.547 1015.97 240.172Z" fill="#FB9952"/>
<path d="M1024.4 250.166H934.768C935.081 249.541 935.393 248.917 936.018 248.292H1023.15C1023.47 248.917 1024.09 249.541 1024.4 250.166Z" fill="#FB9952"/>
<path d="M1032.52 259.848H929.459C929.771 259.223 930.083 258.599 930.396 257.974H1030.96C1031.59 258.599 1031.9 259.223 1032.52 259.848Z" fill="#FB9952"/>
<path d="M1040.33 269.842H924.774C925.086 269.217 925.399 268.593 925.399 267.968H1038.46C1039.39 268.593 1040.02 269.217 1040.33 269.842Z" fill="#FB9952"/>
<path d="M1047.83 279.836H921.026C921.339 279.211 921.339 278.587 921.651 277.962H1046.27C1046.89 278.587 1047.52 278.899 1047.83 279.836Z" fill="#FB9952"/>
<path d="M1055.01 289.518H917.591C917.903 288.894 917.903 288.269 918.215 287.644H1053.76C1054.07 288.269 1054.7 288.894 1055.01 289.518Z" fill="#FB9952"/>
<path d="M1061.88 299.512H914.468C914.78 298.888 914.78 298.263 915.092 297.638H1060.63C1060.94 298.263 1061.26 298.888 1061.88 299.512Z" fill="#FB9952"/>
<path d="M1067.82 309.195H911.344C911.344 308.57 911.657 307.945 911.969 307.321H1066.88C1067.19 307.945 1067.5 308.57 1067.82 309.195Z" fill="#FB9952"/>
<path d="M1072.81 319.188H908.534C908.846 318.564 908.846 317.939 909.158 317.315H1072.19C1072.19 317.939 1072.5 318.564 1072.81 319.188Z" fill="#FB9952"/>
<path d="M1075.62 328.871H905.723C905.723 328.246 906.035 327.621 906.035 326.997H1075C1075.62 327.621 1075.62 328.246 1075.62 328.871Z" fill="#FB9952"/>
<path d="M1076.25 336.991C1076.25 337.615 1076.25 338.24 1076.25 338.865H903.536C903.536 338.24 903.849 337.615 903.849 336.991H1076.25Z" fill="#FB9952"/>
<path d="M1075.62 346.985C1075.62 347.609 1075.31 348.234 1075.31 348.859H901.038C901.038 348.234 901.35 347.609 901.35 346.985H1075.62Z" fill="#FB9952"/>
<path d="M1073.75 356.667C1073.75 357.292 1073.44 357.916 1073.13 358.541H898.852C898.852 357.916 899.164 357.292 899.164 356.667H1073.75Z" fill="#FB9952"/>
<path d="M1070.63 366.661C1070.31 367.286 1070 367.91 1070 368.535H896.978C896.978 367.91 897.29 367.286 897.29 366.661H1070.63Z" fill="#FB9952"/>
<path d="M1069.06 378.216H895.104C895.104 377.592 895.416 376.967 895.416 376.342H1068.44L1069.06 378.216Z" fill="#FB9952"/>
<path d="M1070.94 388.211H892.918C892.918 387.587 893.23 386.962 893.23 386.337H1070.63L1070.94 388.211Z" fill="#FB9952"/>
<path d="M1073.13 398.205H891.356C891.356 397.581 891.668 396.956 891.668 396.331H1072.81L1073.13 398.205Z" fill="#FB9952"/>
<path d="M1075.31 407.887H889.482C889.482 407.262 889.794 406.638 889.794 406.013H1074.69L1075.31 407.887Z" fill="#FB9952"/>
<path d="M1077.19 417.881H887.608C887.608 417.257 887.92 416.632 887.92 416.007H1076.56L1077.19 417.881Z" fill="#FB9952"/>
<path d="M1079.37 427.563H886.047C886.047 426.938 886.359 426.314 886.359 425.689H1078.75L1079.37 427.563Z" fill="#FB9952"/>
<path d="M1081.56 437.557H884.797C884.797 436.932 885.11 436.308 885.11 435.683H1081.25L1081.56 437.557Z" fill="#FB9952"/>
<path d="M1083.74 447.239H883.236C883.236 446.614 883.548 445.99 883.548 445.365H1083.43L1083.74 447.239Z" fill="#FB9952"/>
<path d="M1085.62 457.233H881.674C881.674 456.608 881.986 455.984 881.986 455.359H1085.31L1085.62 457.233Z" fill="#FB9952"/>
<path d="M1087.8 467.227H880.425C880.425 466.602 880.737 465.978 880.737 465.353H1087.49L1087.8 467.227Z" fill="#FB9952"/>
<path d="M1089.68 476.285C1089.68 476.285 1086.87 476.597 1081.87 476.909H879.176C879.176 476.285 879.176 475.66 879.488 475.035H1089.68V476.285Z" fill="#FB9952"/>
<path d="M973.183 485.029C963.502 485.654 954.132 486.279 944.762 486.903H877.926C877.926 486.279 877.926 485.654 878.239 485.029H973.183Z" fill="#FB9952"/>
<path d="M1073.75 355.417C1075 349.171 1075.62 343.237 1075 336.678C1073.75 323.873 1068.75 312.005 1062.19 301.074C1058.45 294.827 1054.07 289.206 1050.64 282.959C1050.64 282.647 1050.64 282.647 1050.95 282.647C1054.39 286.707 1057.51 291.08 1060.32 295.452C1060.32 295.452 1060.32 295.14 1060.01 295.14C1059.07 292.641 1057.82 290.455 1056.88 287.956C1056.88 287.644 1057.2 287.644 1057.2 287.644C1058.45 289.83 1059.7 292.329 1060.63 294.515C1061.26 296.077 1061.88 297.638 1062.51 299.2C1065.94 304.509 1069.38 310.443 1071.88 316.377C1077.19 328.245 1079.37 341.05 1076.25 353.856C1074.37 361.663 1070.31 369.471 1067.82 373.219C1067.5 373.532 1067.19 373.219 1067.5 372.907C1070 367.285 1072.5 361.351 1073.75 355.417Z" fill="#263238"/>
<path d="M967.874 232.677C969.123 235.8 988.175 254.851 1003.17 251.728C1008.16 250.791 1003.79 223.932 1003.79 223.932V221.746L1005.66 193.012L969.748 177.084L964.438 174.898C964.438 174.898 964.438 182.706 964.438 192.7C964.438 193.012 964.438 193.637 964.438 193.949C964.438 194.574 964.438 194.886 964.438 195.511C964.438 197.072 964.438 198.634 964.438 199.883C964.438 201.133 964.438 202.07 964.438 203.319C964.438 204.568 964.438 205.817 964.438 206.754C965.688 218.935 967.249 231.115 967.874 232.677Z" fill="#DD6A57"/>
<path d="M964.751 192.7C976.306 213.625 995.358 219.872 1003.79 221.746L1005.66 193.012L969.748 177.084L964.438 174.898C964.751 174.898 964.751 182.706 964.751 192.7Z" fill="#263238"/>
<path d="M1041.27 149.6C1046.58 199.884 1016.91 208.941 1005.98 209.878C995.983 210.815 962.252 213.001 951.946 163.655C941.639 113.996 963.189 95.5693 985.676 92.1338C1008.16 88.6983 1035.96 99.3171 1041.27 149.6Z" fill="#DD6A57"/>
<path d="M1030.03 138.669C1028.78 138.669 1027.84 138.357 1026.59 138.357C1025.34 138.357 1024.09 138.357 1023.15 137.42C1022.53 136.795 1022.53 135.858 1022.84 135.234C1023.78 133.985 1025.65 133.672 1027.21 133.672C1029.09 133.672 1030.34 134.297 1031.59 135.546C1032.84 136.795 1031.59 138.669 1030.03 138.669Z" fill="#263238"/>
<path d="M996.92 142.729C998.169 142.417 999.106 142.105 1000.35 141.792C1001.6 141.48 1002.54 141.168 1003.48 139.918C1003.79 139.294 1003.79 138.357 1003.17 137.732C1001.92 136.483 1000.35 136.795 998.793 137.108C997.232 137.732 995.983 138.357 995.046 139.918C993.796 141.168 995.358 143.042 996.92 142.729Z" fill="#263238"/>
<path d="M1005.98 154.598L1005.66 154.91C1006.29 158.345 1006.29 162.406 1003.17 163.967V164.279C1006.91 163.03 1006.91 157.721 1005.98 154.598Z" fill="#263238"/>
<path d="M1002.23 151.475C996.607 151.787 997.544 162.718 1002.85 162.718C1007.85 162.406 1006.91 151.162 1002.23 151.475Z" fill="#263238"/>
<path d="M1000.04 152.099C999.106 152.724 998.169 153.973 997.232 154.286C995.982 154.598 994.733 153.349 993.796 152.412H993.484C993.796 154.598 994.733 156.784 996.919 156.784C999.106 156.784 1000.35 154.91 1000.67 152.724C1000.98 152.412 1000.67 151.787 1000.04 152.099Z" fill="#263238"/>
<path d="M1024.72 152.099C1024.72 151.787 1025.03 152.099 1024.72 152.099C1025.03 155.847 1025.96 159.907 1029.09 160.531V160.844C1025.34 160.531 1024.4 155.222 1024.72 152.099Z" fill="#263238"/>
<path d="M1027.53 148.039C1033.15 147.102 1034.4 158.346 1029.4 158.97C1024.4 159.907 1022.84 148.976 1027.53 148.039Z" fill="#263238"/>
<path d="M1030.03 148.663C1030.96 149.288 1031.9 150.225 1033.15 149.913C1034.4 149.913 1035.02 148.663 1035.65 147.414H1035.96C1036.27 149.6 1035.96 151.786 1033.77 152.411C1031.9 153.036 1030.34 151.474 1029.71 149.288C1029.4 148.976 1029.71 148.351 1030.03 148.663Z" fill="#263238"/>
<path d="M1008.48 182.082C1009.41 182.706 1010.35 183.956 1011.6 183.956C1012.85 183.956 1014.1 183.331 1015.35 183.019C1015.35 183.019 1015.66 183.019 1015.66 183.331C1014.72 184.58 1012.85 185.517 1011.29 185.517C1009.72 185.205 1008.79 183.956 1008.48 182.706C1008.16 182.082 1008.48 182.082 1008.48 182.082Z" fill="#263238"/>
<path d="M1021.59 168.339C1021.59 168.339 1022.84 173.336 1023.15 175.835C1023.15 176.147 1022.53 176.147 1021.9 176.46C1017.84 177.709 1013.16 176.46 1010.35 173.336C1010.04 173.024 1010.35 172.712 1010.66 173.024C1014.1 174.898 1017.53 175.21 1021.59 174.898C1021.59 174.273 1019.09 166.153 1019.72 166.153C1020.97 165.841 1023.78 166.465 1025.34 166.778C1023.15 156.159 1019.09 145.852 1016.91 135.546C1016.91 135.234 1017.53 134.921 1017.53 135.234C1022.53 145.54 1025.34 157.721 1027.84 168.652C1027.84 169.901 1022.84 168.652 1021.59 168.339Z" fill="#263238"/>
<path d="M1021.28 175.523C1021.28 175.523 1019.41 178.958 1016.28 180.52C1015.03 181.145 1014.1 181.457 1012.54 181.145C1009.72 180.832 1009.41 178.334 1009.41 176.148C1009.72 174.274 1010.04 172.712 1010.04 172.712C1010.04 172.712 1015.03 176.148 1021.28 175.523Z" fill="#263238"/>
<path d="M1016.28 180.52C1015.03 181.145 1014.1 181.457 1012.54 181.145C1009.72 180.833 1009.41 178.334 1009.41 176.148C1012.54 176.148 1015.66 177.71 1016.28 180.52Z" fill="#FF9ABB"/>
<path d="M956.006 161.468C965.375 163.03 968.499 141.792 968.499 141.792C968.499 141.792 1008.16 136.795 1012.85 104.626C1012.85 104.626 1018.78 125.552 1039.08 135.546C1039.08 135.546 1039.08 100.254 1011.6 92.1335C1011.6 92.1335 977.556 78.0792 956.943 104.939C936.017 131.798 949.759 160.531 956.006 161.468Z" fill="#263238"/>
<path d="M1013.16 102.44C1013.47 107.437 1012.54 112.434 1010.66 117.119C1008.79 121.804 1006.29 126.176 1002.54 129.924C1001.6 130.861 1000.67 131.486 999.73 132.423L998.169 133.672C997.544 133.984 997.232 134.297 996.607 134.609C995.67 135.234 994.421 136.171 993.484 136.795C992.235 137.42 991.298 138.045 990.048 138.357C989.424 138.669 988.799 138.982 988.487 139.294L986.613 139.918L983.177 141.168C980.679 141.792 978.18 142.105 975.994 142.729C978.18 141.792 980.679 141.168 982.865 140.231L986.301 138.669L987.862 138.045C988.487 137.732 988.799 137.42 989.424 137.108C990.361 136.483 991.61 135.858 992.547 135.234C993.484 134.609 994.421 133.984 995.358 133.047L996.919 132.111L998.169 130.861C999.106 129.924 1000.04 129.3 1000.67 128.363C1004.1 124.927 1006.6 120.867 1008.79 116.495C1009.72 114.308 1010.66 112.122 1011.29 109.624C1012.22 107.125 1012.85 104.939 1013.16 102.44Z" fill="#263238"/>
<path d="M961.628 165.841C961.628 165.841 950.384 150.225 943.201 154.285C936.017 158.345 944.762 181.145 953.195 184.268C961.628 187.391 964.751 179.583 964.751 179.583L961.628 165.841Z" fill="#DD6A57"/>
<path d="M945.699 160.844C951.633 163.342 954.756 168.652 957.255 174.586C955.381 172.4 953.195 171.15 950.072 173.336C950.072 173.336 950.072 173.649 950.384 173.649C952.883 173.024 954.444 173.336 956.318 175.523C957.567 176.772 958.192 178.646 959.129 180.207C959.441 180.832 960.378 180.52 960.066 179.895C960.066 171.775 953.819 161.468 945.699 160.844Z" fill="#263238"/>
<path d="M960.691 104.626C965.375 103.065 969.436 77.4546 952.883 65.5865C936.33 53.7184 914.78 67.1481 923.837 88.0734C929.459 100.878 951.009 108.062 960.691 104.626Z" fill="#263238"/>
<path d="M929.459 64.025C924.462 68.0852 921.026 74.0192 919.777 79.9533C918.528 85.8873 920.402 92.1337 924.774 96.1938C929.147 100.566 935.081 102.752 941.327 104.314C944.45 104.939 947.573 105.251 950.696 105.563C953.82 105.563 957.255 105.563 960.378 104.626C957.567 106.5 954.132 107.125 951.009 107.437C947.573 107.75 944.45 107.75 941.015 107.125C934.456 106.188 927.585 103.689 922.588 99.0047C920.089 96.5061 917.903 93.3829 916.966 89.9474C916.029 86.5119 916.341 82.7641 917.278 79.3286C919.152 72.7699 923.525 66.8359 929.459 64.025Z" fill="#263238"/>
<path d="M938.204 244.545C896.353 307.321 872.929 391.022 876.052 409.449C879.488 429.75 907.909 498.147 937.579 528.442C945.387 536.563 1004.1 470.976 996.295 462.231C980.991 445.053 950.384 394.77 949.135 383.527C947.886 372.908 963.189 304.822 967.249 266.095C970.997 228.929 957.567 215.187 938.204 244.545Z" fill="#DD6A57"/>
<path d="M994.109 460.045C994.109 460.045 1025.97 474.099 1046.58 484.406C1058.13 490.027 1076.87 501.583 1083.12 509.703C1092.8 521.571 1125.91 578.101 1112.17 586.221C1099.98 593.717 1077.81 541.872 1077.81 541.872C1077.81 541.872 1104.67 592.468 1088.43 598.714C1072.19 604.96 1055.01 542.809 1055.01 542.809C1055.01 542.809 1081.56 595.279 1063.76 599.026C1050.33 601.837 1031.59 546.557 1031.59 546.557C1031.59 546.557 1054.07 591.843 1040.33 595.279C1025.03 599.339 1004.73 549.368 1004.73 549.368C968.186 552.491 949.447 539.061 937.267 528.13C934.144 525.319 994.109 460.045 994.109 460.045Z" fill="#DD6A57"/>
<path d="M1070 523.445C1073.44 529.38 1076.87 535.001 1079.68 541.248C1082.49 547.494 1085.31 553.428 1087.49 559.987C1093.11 575.603 1094.05 586.221 1094.05 585.597C1090.93 570.293 1080.93 548.431 1078.12 542.185C1075 535.938 1072.5 529.692 1070 523.445C1069.69 523.445 1070 523.445 1070 523.445Z" fill="#263238"/>
<path d="M1047.83 533.44C1051.89 540.935 1055.95 548.431 1059.7 556.239C1063.44 564.047 1066.25 571.542 1069.38 579.663C1069.69 580.287 1069.07 580.287 1069.07 579.663C1065.63 571.855 1061.88 564.671 1058.45 556.863C1054.7 549.055 1051.26 541.247 1047.83 533.44C1047.52 533.44 1047.83 533.44 1047.83 533.44Z" fill="#263238"/>
<path d="M1027.21 538.437C1033.77 549.68 1038.46 562.173 1042.83 574.666C1043.14 575.29 1042.52 574.978 1042.21 574.666C1037.21 562.485 1033.46 552.803 1026.9 538.749C1026.59 538.437 1026.9 538.437 1027.21 538.437Z" fill="#263238"/>
<path d="M898.227 308.883L964.751 321.688C964.751 321.688 972.559 275.152 969.435 246.731C966 218.31 949.759 223.932 933.831 246.731C917.903 269.53 898.227 308.883 898.227 308.883Z" fill="#FB9952"/>
<path opacity="0.1" d="M898.227 308.883L964.751 321.688C964.751 321.688 972.559 275.152 969.435 246.731C966 218.31 949.759 223.932 933.831 246.731C917.903 269.53 898.227 308.883 898.227 308.883Z" fill="black"/>
<path d="M218.31 879.176C214.562 894.479 210.815 909.783 210.19 925.399C210.502 926.024 210.502 929.147 210.19 928.21C210.19 930.708 206.13 930.396 206.13 927.898C206.13 926.336 206.13 924.774 206.442 922.9C197.385 911.657 184.267 904.474 173.649 894.792C164.904 886.984 158.97 877.302 155.534 866.058C146.789 835.764 154.91 803.595 144.291 773.3C135.234 747.065 118.681 724.578 104.939 700.842C90.2597 675.857 79.6409 649.622 78.3916 620.264C77.4546 597.777 80.2655 567.795 97.443 550.929C115.557 533.127 138.044 546.557 151.786 562.485C192.075 608.708 210.502 667.112 218.31 726.765C222.37 759.87 226.743 792.976 225.806 826.394C224.869 844.509 222.37 861.998 218.31 879.176Z" fill="#FF7C25"/>
<path d="M210.19 937.891C212.376 906.66 212.064 875.428 208.941 844.196V843.884C209.565 818.586 211.439 793.288 210.502 767.99C209.565 740.506 205.505 713.647 199.259 686.788C199.259 686.475 198.634 686.475 198.634 686.788C203.631 713.022 206.442 739.569 207.379 766.429C208.004 780.795 207.691 795.162 207.067 809.216C206.754 813.901 206.442 818.586 206.13 823.271C195.823 752.062 169.589 684.601 130.861 624.012C130.236 623.075 128.987 624.012 129.3 624.949C157.096 670.547 177.709 720.518 190.514 772.675C171.15 736.759 141.792 707.401 120.242 672.733C120.242 672.421 119.93 672.733 119.93 673.046C139.294 711.461 171.462 741.756 192.075 779.546C195.511 794.85 198.634 810.466 200.82 826.082C203.944 847.631 205.193 869.181 205.505 890.731C193.637 868.557 181.457 847.631 171.775 824.208C171.462 823.583 170.526 823.895 170.838 824.52C178.958 848.881 190.202 874.803 205.505 895.416C205.505 910.72 205.193 926.023 204.256 941.327C201.757 982.241 194.886 1022.53 191.763 1063.13C191.763 1064.38 193.325 1064.38 193.637 1063.44C202.694 1022.53 207.691 979.742 210.19 937.891Z" fill="#263238"/>
<path d="M167.09 622.762C167.09 622.45 166.465 622.762 166.778 623.075C174.273 643.688 178.333 664.613 183.955 685.851C184.268 686.788 185.517 686.475 185.517 685.538C183.018 663.988 175.21 642.438 167.09 622.762Z" fill="#263238"/>
<path d="M356.355 709.275C351.67 721.456 345.424 733.011 339.177 744.567C325.748 768.928 311.693 791.415 309.195 819.836C307.946 832.641 307.633 845.134 303.885 857.626C300.45 868.245 295.14 877.927 288.894 886.984C274.215 908.222 256.101 926.336 242.671 948.511C228.617 971.31 218.31 996.608 212.064 1022.53C211.752 1024.09 209.565 1023.47 209.878 1022.22V1021.91C209.878 1021.91 209.878 1021.91 209.878 1021.59C207.691 960.691 212.688 899.165 231.115 840.761C239.236 815.151 249.23 789.853 260.785 765.493C270.78 744.255 283.272 723.954 300.762 708.026C312.006 697.72 336.679 678.356 352.919 688.662C360.103 693.659 359.478 701.467 356.355 709.275Z" fill="#FF7C25"/>
<path d="M295.14 847.32C284.834 865.122 272.341 881.675 259.848 898.227C253.914 906.035 247.98 913.531 242.046 921.339C239.235 925.087 236.112 928.522 233.614 932.583C235.175 926.024 236.737 919.777 238.299 913.219C246.107 882.299 253.602 851.38 265.47 821.71C277.026 792.664 292.017 765.492 307.633 738.633C307.945 738.008 307.009 737.384 306.384 738.008C293.579 759.246 280.462 780.171 269.53 802.658C263.596 815.151 258.287 827.956 253.914 841.073C259.224 812.965 265.47 786.105 274.84 759.246C274.84 758.934 274.527 758.934 274.527 758.934C263.284 785.481 255.164 815.463 252.977 844.196C250.479 852.004 247.98 860.125 245.794 868.245C236.112 902.288 227.68 936.643 219.872 971.31C219.872 948.511 221.433 926.024 225.806 903.537C225.806 902.912 225.181 902.912 224.869 903.537C219.247 926.648 216.749 951.009 218.935 975.058C216.124 988.175 213.001 1001.29 210.19 1014.41C204.256 1042.52 196.76 1070.94 193.325 1099.67C193.325 1100.3 194.262 1100.61 194.574 1099.99C198.634 1084.68 201.133 1068.75 204.568 1053.14C208.004 1037.52 211.439 1021.91 215.187 1006.29C220.496 983.49 226.118 961.003 231.74 938.517C235.488 930.084 242.671 922.901 248.293 916.03C254.227 908.534 260.161 900.726 266.095 892.918C277.026 878.551 287.02 863.56 295.453 847.632C296.077 847.32 295.453 847.007 295.14 847.32Z" fill="#263238"/>
<path d="M297.951 821.085C284.834 837.95 272.654 856.689 263.284 876.053C263.284 876.365 263.596 876.678 263.596 876.365C275.152 857.939 286.708 839.824 298.264 821.397C298.576 821.397 297.951 821.085 297.951 821.085Z" fill="#263238"/>
<path d="M38.4149 767.054C46.2228 780.796 55.28 797.036 51.8445 813.277C49.6583 823.583 42.1627 832.016 40.9134 842.635C37.7902 866.059 60.9018 881.362 77.767 892.293C119.618 919.777 177.084 944.138 184.58 1000.36C184.892 1002.23 188.328 1001.92 188.015 1000.04V999.731L188.328 999.419C193.637 970.998 193.637 941.952 187.391 913.843C181.144 884.798 168.652 858.875 153.66 833.578C128.362 790.478 101.815 746.753 63.7126 713.647C53.0938 704.59 31.5439 688.037 23.1113 708.65C14.991 728.326 28.733 750.501 38.4149 767.054Z" fill="#FF7C25"/>
<path d="M76.8299 857.938C104.626 887.921 148.663 904.786 172.399 938.516C158.345 886.984 134.921 840.761 98.6922 800.472C97.7552 799.535 99.3168 797.973 100.254 798.91C126.489 824.208 146.165 853.878 160.219 886.047C153.66 863.248 144.915 841.385 134.296 819.835C133.984 818.898 134.921 818.274 135.546 819.211C148.975 842.01 157.72 867.62 163.342 893.542C194.886 969.748 197.697 1059.07 191.138 1139.34C191.138 1140.59 189.264 1140.59 189.264 1139.34C191.138 1075.94 190.201 1011.6 174.898 950.072C174.586 948.823 174.273 947.573 173.961 946.324C148.038 910.095 104.002 893.23 75.893 858.875C75.893 858.25 76.5176 857.626 76.8299 857.938Z" fill="#263238"/>
<path d="M70.2713 832.329C84.9502 845.758 99.3169 859.5 113.683 872.618C113.683 872.618 113.683 872.93 113.371 872.93C97.4429 862.311 81.5147 847.944 69.3343 833.266C69.022 832.329 69.6466 831.704 70.2713 832.329Z" fill="#263238"/>
<path d="M68.085 774.237C81.2023 795.475 95.2567 815.463 111.497 834.202C111.81 834.514 111.497 834.827 111.185 834.514C93.3828 817.337 77.7668 797.036 67.148 774.549C66.8357 774.237 67.7727 773.925 68.085 774.237Z" fill="#263238"/>
<path d="M133.672 1195.87H261.098L243.92 1024.09H153.348L133.672 1195.87Z" fill="#455A64"/>
<path d="M149.912 1051.89H246.731L243.92 1024.09H153.348L149.912 1051.89Z" fill="#263238"/>
<path d="M137.633 1032.57H257.251V1005.09H137.633V1032.57Z" fill="#455A64"/>
</svg>
