<svg width="17" height="29" viewBox="0 0 17 29" fill="none" xmlns="http://www.w3.org/2000/svg">
<path d="M8.67399 13.0133C5.08093 12.0794 3.92546 11.1138 3.92546 9.61015C3.92546 7.88485 5.52413 6.68188 8.19914 6.68188C11.0166 6.68188 12.0613 8.0273 12.1562 10.0059H15.6543C15.5435 7.28336 13.8815 4.78247 10.5734 3.97522V0.508789H5.82487V3.92773C2.75415 4.59253 0.284912 6.58691 0.284912 9.6418C0.284912 13.2982 3.30815 15.1184 7.72428 16.179C11.6814 17.1287 12.4728 18.5216 12.4728 19.9936C12.4728 21.0858 11.6972 22.8269 8.19914 22.8269C4.93848 22.8269 3.65637 21.3707 3.48226 19.5029H0C0.189941 22.9694 2.78581 24.9163 5.82487 25.5652V29H10.5734V25.5969C13.66 25.0112 16.1134 23.2226 16.1134 19.9778C16.1134 15.4825 12.267 13.9471 8.67399 13.0133Z" fill="#FF842E"/>
</svg>
