<svg width="44" height="34" viewBox="0 0 44 34" fill="none" xmlns="http://www.w3.org/2000/svg">
<path d="M1.39504e-08 9.67867L21.308 20.145C21.5217 20.25 21.7591 20.3048 22 20.3048C22.2409 20.3048 22.4783 20.25 22.692 20.145L44 9.68056V27.8611C44.0001 29.4291 43.3649 30.9378 42.2247 32.0775C41.0844 33.2173 39.5256 33.9018 37.868 33.9906L37.5 34H6.5C4.83972 34.0001 3.24234 33.4002 2.03554 32.3233C0.828734 31.2464 0.103997 29.7742 0.0100002 28.2087L1.39504e-08 27.8611V9.67867ZM6.5 1.31754e-08H37.5C39.1603 -0.000102655 40.7577 0.599824 41.9645 1.67671C43.1713 2.7536 43.896 4.22581 43.99 5.79133L44 6.13889V6.48644L22 17.2909L1.39504e-08 6.48644V6.13889C-0.000108693 4.57085 0.635108 3.06221 1.77534 1.92245C2.91558 0.782693 4.47439 0.0982197 6.132 0.00944467L6.5 1.31754e-08H37.5H6.5Z" fill="white"/>
</svg>
