<svg width="34" height="34" viewBox="0 0 34 34" fill="none" xmlns="http://www.w3.org/2000/svg">
<path fill-rule="evenodd" clip-rule="evenodd" d="M17 32.3C25.4499 32.3 32.3 25.4499 32.3 17C32.3 8.55015 25.4499 1.7 17 1.7C8.55015 1.7 1.7 8.55015 1.7 17C1.7 25.4499 8.55015 32.3 17 32.3ZM17 34C26.3891 34 34 26.3891 34 17C34 7.6109 26.3891 0 17 0C7.6109 0 0 7.6109 0 17C0 26.3891 7.6109 34 17 34Z" fill="white"/>
<path d="M6.7998 26.8855C6.7998 26.0075 7.45601 25.2654 8.32981 25.1685C14.8876 24.4426 19.1418 24.5081 25.6851 25.1847C26.0119 25.219 26.3215 25.3477 26.5763 25.5551C26.8311 25.7625 27.02 26.0397 27.1199 26.3527C27.2198 26.6657 27.2263 27.001 27.1388 27.3176C27.0513 27.6343 26.8734 27.9186 26.6269 28.1359C18.9047 34.867 14.4915 34.7744 7.34381 28.1427C6.99531 27.8197 6.7998 27.3607 6.7998 26.8864V26.8855Z" fill="white"/>
<path fill-rule="evenodd" clip-rule="evenodd" d="M25.598 26.0296C19.1065 25.3581 14.9135 25.2952 8.42285 26.0134C8.2092 26.0383 8.01223 26.1411 7.86967 26.3022C7.72711 26.4633 7.64896 26.6713 7.6502 26.8864C7.6502 27.1295 7.75135 27.3598 7.9222 27.5196C11.465 30.8057 14.1493 32.2907 16.7733 32.3C19.4066 32.3094 22.2354 30.8363 26.0689 27.4958C26.1906 27.3874 26.2783 27.246 26.3212 27.0887C26.3641 26.9314 26.3604 26.765 26.3105 26.6098C26.2607 26.4546 26.1668 26.3172 26.0403 26.2143C25.9137 26.1115 25.7601 26.0476 25.598 26.0304V26.0296ZM8.2367 24.3236C14.8633 23.5901 19.1796 23.6564 25.7739 24.3389C26.2655 24.3902 26.7314 24.5837 27.1147 24.8958C27.4979 25.2078 27.7819 25.6248 27.9318 26.0958C28.0817 26.5667 28.0911 27.0711 27.9587 27.5473C27.8264 28.0235 27.558 28.4507 27.1866 28.7768C23.2979 32.1666 20.0594 34.0128 16.7682 34C13.4676 33.9881 10.3719 32.1105 6.76705 28.7657C6.50895 28.5253 6.3032 28.2343 6.16265 27.9107C6.0221 27.5872 5.94978 27.2382 5.9502 26.8855C5.94896 26.2518 6.18157 25.6399 6.60348 25.167C7.02539 24.6941 7.60692 24.3935 8.2367 24.3228V24.3236Z" fill="white"/>
<path d="M23.8002 13.6C23.8002 15.4035 23.0838 17.1331 21.8085 18.4083C20.5333 19.6836 18.8037 20.4 17.0002 20.4C15.1967 20.4 13.4671 19.6836 12.1919 18.4083C10.9166 17.1331 10.2002 15.4035 10.2002 13.6C10.2002 11.7965 10.9166 10.0669 12.1919 8.79166C13.4671 7.51641 15.1967 6.79999 17.0002 6.79999C18.8037 6.79999 20.5333 7.51641 21.8085 8.79166C23.0838 10.0669 23.8002 11.7965 23.8002 13.6Z" fill="white"/>
<path fill-rule="evenodd" clip-rule="evenodd" d="M17.0002 18.7C18.3528 18.7 19.65 18.1627 20.6064 17.2062C21.5629 16.2498 22.1002 14.9526 22.1002 13.6C22.1002 12.2474 21.5629 10.9502 20.6064 9.99374C19.65 9.03731 18.3528 8.49999 17.0002 8.49999C15.6476 8.49999 14.3504 9.03731 13.394 9.99374C12.4375 10.9502 11.9002 12.2474 11.9002 13.6C11.9002 14.9526 12.4375 16.2498 13.394 17.2062C14.3504 18.1627 15.6476 18.7 17.0002 18.7ZM17.0002 20.4C18.8037 20.4 20.5333 19.6836 21.8085 18.4083C23.0838 17.1331 23.8002 15.4035 23.8002 13.6C23.8002 11.7965 23.0838 10.0669 21.8085 8.79166C20.5333 7.51641 18.8037 6.79999 17.0002 6.79999C15.1967 6.79999 13.4671 7.51641 12.1919 8.79166C10.9166 10.0669 10.2002 11.7965 10.2002 13.6C10.2002 15.4035 10.9166 17.1331 12.1919 18.4083C13.4671 19.6836 15.1967 20.4 17.0002 20.4Z" fill="white"/>
</svg>
