<svg width="288" height="101" viewBox="0 0 288 101" fill="none" xmlns="http://www.w3.org/2000/svg">
<path d="M2 97.5737C5.31921 98.9989 7.8722 98.9792 11.5006 98.9792C12.9841 98.9792 15.2285 99.1434 16.5902 98.5497C17.7402 98.0483 20.0218 96.5195 21.1708 96.5195C22.9828 96.5195 26.8116 93.704 27.9758 92.4983C29.7479 90.6633 31.3576 89.3727 32.613 87.0325C33.7681 84.8795 36.8548 82.0047 36.9486 79.5756C36.9737 78.9272 37.5609 78.5491 37.6272 77.8968C37.6749 77.4283 37.7745 75.8538 38.0419 75.5153C38.6899 74.6952 39.6928 72.782 39.9835 71.7283C40.3555 70.38 40.8407 69.1457 41.0392 67.707C41.2583 66.1184 42.8885 64.4374 43.0562 62.7878C43.4123 59.284 45.3251 57.3016 47.109 54.5306C49.0416 51.5286 51.3646 49.3222 54.0836 47.1322C55.3153 46.1402 56.971 45.7104 58.1553 44.6726C59.6874 43.3302 62.3 41.5824 64.3571 41.3541C65.5505 41.2217 66.6533 40.3478 67.901 40.3C68.9159 40.2611 69.9392 40.3 70.9547 40.3C71.9351 40.3 74.8519 39.8208 75.6108 40.4757C76.5899 41.3206 78.507 41.6337 79.7013 42.2521C81.9006 43.3908 83.9975 44.2024 85.7334 46C86.8716 47.1787 88.734 47.9 90.2952 48.4596C91.1533 48.7672 91.6278 49.4357 92.595 49.4357C93.2478 49.4357 93.6962 49.435 94.2915 49.709C96.8667 50.8942 101.021 50.8412 103.962 50.8412C105.809 50.8412 107.426 50.889 109.202 50.3141C111.306 49.6332 113.504 48.3225 115.668 48.0302C117.53 47.7786 119.118 46.9761 121.021 46.9761C122.969 46.9761 124.917 46.9761 126.865 46.9761C128.722 46.9761 130.663 47.9134 132.143 48.8891C133.358 49.6896 135.463 49.5937 136.516 50.685C138.566 52.8074 141.574 53.6418 144.019 55.2528C145.937 56.5169 148.066 57.9123 150.202 58.6494C153.593 59.8201 156.805 62.1402 160.381 62.4364C163.056 62.658 166.868 63.5079 169.637 62.6121C177.459 60.0806 185.192 57.5172 193.52 57.5172C195.338 57.5172 196.898 57.2951 198.459 58.1419C200.094 59.0289 201.543 60.1341 203.039 61.2066C205.915 63.2685 208.855 63.4906 212.295 63.4906C214.157 63.4906 215.705 63.1833 217.385 62.5145C218.867 61.9243 221.112 61.1139 222.21 59.9768C223.391 58.7541 225.254 57.4893 225.867 55.8385C226.742 53.4834 228.048 50.9635 228.299 48.362C229.311 37.8769 230.825 27.1615 234.557 17.2851C235.572 14.6009 237.288 12.9355 239.006 10.609C241.186 7.65729 242.633 5.71793 245.472 3.56207C247.619 1.93156 250.715 2.00042 253.257 2.00042C255.958 2.00042 258.454 3.64223 260.477 5.59222C261.902 6.96673 265.225 10.8787 267.338 11.1361C268.193 11.2402 269.168 12.5262 270.128 12.8149C271.515 13.232 273.54 13.0924 275.01 13.2248C278.35 13.5256 280.258 12.3018 282.06 9.39876C282.712 8.34856 283.014 7.27048 283.813 6.21688C284.442 5.3878 285.293 4.84096 286 4.10865" stroke="white" stroke-width="3" stroke-linecap="round"/>
</svg>
