<svg width="24" height="23" viewBox="0 0 24 23" fill="none" xmlns="http://www.w3.org/2000/svg">
<path d="M4.49979 21.5721L4.49975 21.5721L0.584848 19.0731V12.1675L12.4553 0.760822C12.5142 0.704203 12.581 0.662568 12.6511 0.636387C12.721 0.610246 12.7939 0.599524 12.8662 0.604041C12.9384 0.608559 13.0105 0.628363 13.0782 0.663671C13.1461 0.699038 13.2092 0.749737 13.2626 0.814671C13.6025 1.22793 13.8624 1.71171 14.0251 2.23785L14.5838 2.06507L14.0251 2.23785C14.1878 2.76402 14.2495 3.32048 14.2062 3.87368C14.1629 4.42688 14.0154 4.96392 13.7738 5.45273C13.5323 5.94149 13.202 6.37106 12.8044 6.71714L12.8043 6.71718L11.7028 7.67612L11.502 7.85095V8.11722V9.38332V9.96817H12.0869H20.8596C21.3645 9.96817 21.8567 10.1812 22.2255 10.5736C22.5954 10.9672 22.8091 11.5083 22.8091 12.0796C22.8091 12.6509 22.5954 13.192 22.2255 13.5856C21.8567 13.9779 21.3645 14.191 20.8596 14.191H15.4089H14.9572L14.843 14.6281L13.1317 21.1821C13.1317 21.1823 13.1316 21.1825 13.1316 21.1827C13.0931 21.3283 13.0128 21.45 12.9098 21.5332C12.8076 21.6159 12.688 21.6572 12.5695 21.6576C12.5693 21.6576 12.5691 21.6576 12.5689 21.6576L4.78694 21.6576C4.68847 21.6576 4.58932 21.6293 4.49979 21.5721ZM4.58011 21.0762L4.72404 21.168H4.89479H12.2739H12.7257L12.8398 20.7309L14.6752 13.7015H20.8596C21.2853 13.7015 21.6857 13.5212 21.975 13.2134C22.2631 12.9069 22.4192 12.4984 22.4192 12.0796C22.4192 11.6607 22.2631 11.2523 21.975 10.9457C21.6857 10.638 21.2853 10.4577 20.8596 10.4577H11.1121V7.59722L12.5849 6.31504L12.585 6.31499C13.2382 5.74616 13.6641 4.94709 13.7905 4.07524C13.917 3.20358 13.7369 2.31046 13.2798 1.56602L12.8998 0.947161L12.3761 1.45034L1.15436 12.2339L0.974747 12.4065V12.6556V18.4542V18.7747L1.24491 18.9472L4.58011 21.0762Z" fill="#FF7C25" stroke="#FF7C25" stroke-width="1.1697"/>
</svg>
