<svg width="37" height="54" viewBox="0 0 37 54" fill="none" xmlns="http://www.w3.org/2000/svg">
<g filter="url(#filter0_d_92_22)">
<path d="M7.13514 0H29.8649C31.5941 0 33 1.47344 33 3.28571V42.7143C33 44.5266 31.5941 46 29.8649 46H7.13514C5.40591 46 4 44.5266 4 42.7143V3.28571C4 1.47344 5.40591 0 7.13514 0ZM7.52703 42.3036H29.473V3.69643H7.52703V42.3036ZM20.4595 37.067C20.4595 37.6116 20.253 38.1339 19.8855 38.5191C19.5181 38.9042 19.0197 39.1205 18.5 39.1205C17.9803 39.1205 17.4819 38.9042 17.1145 38.5191C16.747 38.1339 16.5405 37.6116 16.5405 37.067C16.5405 36.5223 16.747 36 17.1145 35.6149C17.4819 35.2298 17.9803 35.0134 18.5 35.0134C19.0197 35.0134 19.5181 35.2298 19.8855 35.6149C20.253 36 20.4595 36.5223 20.4595 37.067Z" fill="black" fill-opacity="0.7" shape-rendering="crispEdges"/>
</g>
<defs>
<filter id="filter0_d_92_22" x="0" y="0" width="37" height="54" filterUnits="userSpaceOnUse" color-interpolation-filters="sRGB">
<feFlood flood-opacity="0" result="BackgroundImageFix"/>
<feColorMatrix in="SourceAlpha" type="matrix" values="0 0 0 0 0 0 0 0 0 0 0 0 0 0 0 0 0 0 127 0" result="hardAlpha"/>
<feOffset dy="4"/>
<feGaussianBlur stdDeviation="2"/>
<feComposite in2="hardAlpha" operator="out"/>
<feColorMatrix type="matrix" values="0 0 0 0 0.929412 0 0 0 0 0.423529 0 0 0 0 0.266667 0 0 0 0.25 0"/>
<feBlend mode="normal" in2="BackgroundImageFix" result="effect1_dropShadow_92_22"/>
<feBlend mode="normal" in="SourceGraphic" in2="effect1_dropShadow_92_22" result="shape"/>
</filter>
</defs>
</svg>
