<svg width="23" height="18" viewBox="0 0 23 18" fill="none" xmlns="http://www.w3.org/2000/svg">
<path d="M21.2465 7.77314C21.745 8.42522 21.745 9.30553 21.2465 9.95655C19.6762 12.0064 15.9089 16.227 11.5105 16.227C7.11217 16.227 3.34485 12.0064 1.7746 9.95655C1.53205 9.64432 1.40039 9.26022 1.40039 8.86485C1.40039 8.46948 1.53205 8.08537 1.7746 7.77314C3.34485 5.72331 7.11217 1.50269 11.5105 1.50269C15.9089 1.50269 19.6762 5.72331 21.2465 7.77314V7.77314Z" stroke="black" stroke-opacity="0.75" stroke-width="2.45405" stroke-linecap="round" stroke-linejoin="round"/>
<path d="M11.5097 12.02C13.2523 12.02 14.6649 10.6073 14.6649 8.86475C14.6649 7.12217 13.2523 5.70953 11.5097 5.70953C9.76713 5.70953 8.35449 7.12217 8.35449 8.86475C8.35449 10.6073 9.76713 12.02 11.5097 12.02Z" stroke="black" stroke-opacity="0.75" stroke-width="2.45405" stroke-linecap="round" stroke-linejoin="round"/>
</svg>
