<svg width="22" height="25" viewBox="0 0 22 25" fill="none" xmlns="http://www.w3.org/2000/svg">
<path d="M4.48915 1.8479L1.31934 6.19507V21.4102C1.31934 21.9867 1.54198 22.5395 1.93828 22.9471C2.33458 23.3548 2.87209 23.5838 3.43255 23.5838H18.225C18.7855 23.5838 19.323 23.3548 19.7193 22.9471C20.1156 22.5395 20.3382 21.9867 20.3382 21.4102V6.19507L17.1684 1.8479H4.48915Z" stroke="black" stroke-opacity="0.75" stroke-width="2.45405" stroke-linecap="round" stroke-linejoin="round"/>
<path d="M1.31934 5.9234H20.3382" stroke="black" stroke-opacity="0.75" stroke-width="2.45405" stroke-linecap="round" stroke-linejoin="round"/>
<path d="M14.9049 9.99884C14.9049 11.44 14.4755 12.8222 13.7112 13.8412C12.9469 14.8603 11.9103 15.4328 10.8294 15.4328C9.7485 15.4328 8.71188 14.8603 7.94758 13.8412C7.18329 12.8222 6.75391 11.44 6.75391 9.99884" stroke="black" stroke-opacity="0.75" stroke-width="2.45405" stroke-linecap="round" stroke-linejoin="round"/>
</svg>
