<svg width="23" height="15" viewBox="0 0 23 15" fill="none" xmlns="http://www.w3.org/2000/svg">
<path d="M8.3473 9.64386H1.65628C1.04396 9.64386 0.542969 10.1448 0.542969 10.7572C0.542969 11.3695 1.04396 11.8705 1.65628 11.8705H8.3473V13.8633C8.3473 14.3643 8.94848 14.6092 9.29361 14.253L12.3886 11.1468C12.6002 10.9242 12.6002 10.579 12.3886 10.3564L9.29361 7.25023C8.94848 6.89397 8.3473 7.15003 8.3473 7.63989V9.64386ZM15.0049 7.18343V5.1906H21.6959C22.3082 5.1906 22.8092 4.68961 22.8092 4.07729C22.8092 3.46497 22.3082 2.96398 21.6959 2.96398H15.0049V0.971146C15.0049 0.470155 14.4037 0.225226 14.0586 0.581486L10.9636 3.68763C10.7521 3.91029 10.7521 4.25542 10.9636 4.47808L14.0586 7.58423C14.1371 7.66116 14.2366 7.71314 14.3446 7.73362C14.4525 7.75409 14.5642 7.74214 14.6654 7.69928C14.7666 7.65642 14.8528 7.58457 14.9132 7.49277C14.9737 7.40097 15.0056 7.29333 15.0049 7.18343Z" fill="black" fill-opacity="0.75"/>
</svg>
