<svg width="43" height="38" viewBox="0 0 43 38" fill="none" xmlns="http://www.w3.org/2000/svg">
<path d="M40.8571 19H33.5714M11.7143 2C12.3584 2 12.9761 2.25587 13.4315 2.71131C13.887 3.16676 14.1429 3.78447 14.1429 4.42857V9.28571C14.1429 9.92981 13.887 10.5475 13.4315 11.003C12.9761 11.4584 12.3584 11.7143 11.7143 11.7143C11.0702 11.7143 10.4525 11.4584 9.99703 11.003C9.54158 10.5475 9.28571 9.92981 9.28571 9.28571V4.42857C9.28571 3.78447 9.54158 3.16676 9.99703 2.71131C10.4525 2.25587 11.0702 2 11.7143 2V2ZM40.8571 6.85714H14.1429H40.8571ZM9.28571 6.85714H2H9.28571ZM11.7143 26.2857C12.3584 26.2857 12.9761 26.5416 13.4315 26.997C13.887 27.4525 14.1429 28.0702 14.1429 28.7143V33.5714C14.1429 34.2155 13.887 34.8332 13.4315 35.2887C12.9761 35.7441 12.3584 36 11.7143 36C11.0702 36 10.4525 35.7441 9.99703 35.2887C9.54158 34.8332 9.28571 34.2155 9.28571 33.5714V28.7143C9.28571 28.0702 9.54158 27.4525 9.99703 26.997C10.4525 26.5416 11.0702 26.2857 11.7143 26.2857ZM40.8571 31.1429H14.1429H40.8571ZM9.28571 31.1429H2H9.28571ZM31.1429 14.1429C31.787 14.1429 32.4047 14.3987 32.8601 14.8542C33.3156 15.3096 33.5714 15.9273 33.5714 16.5714V21.4286C33.5714 22.0727 33.3156 22.6904 32.8601 23.1458C32.4047 23.6013 31.787 23.8571 31.1429 23.8571C30.4988 23.8571 29.881 23.6013 29.4256 23.1458C28.9702 22.6904 28.7143 22.0727 28.7143 21.4286V16.5714C28.7143 15.9273 28.9702 15.3096 29.4256 14.8542C29.881 14.3987 30.4988 14.1429 31.1429 14.1429V14.1429ZM28.7143 19H2H28.7143Z" stroke="black" stroke-opacity="0.7" stroke-width="3" stroke-linecap="round" stroke-linejoin="round"/>
</svg>
