<svg width="288" height="101" viewBox="0 0 288 101" fill="none" xmlns="http://www.w3.org/2000/svg">
<path d="M2 3.42633C5.31921 2.00114 7.8722 2.02085 11.5006 2.02085C12.9841 2.02085 15.2285 1.85657 16.5902 2.4503C17.7402 2.95172 20.0218 4.48045 21.1708 4.48045C22.9828 4.48045 26.8116 7.29603 27.9758 8.50171C29.7479 10.3367 31.3576 11.6273 32.613 13.9675C33.7681 16.1205 36.8548 18.9953 36.9486 21.4244C36.9737 22.0728 37.5609 22.4509 37.6272 23.1032C37.6749 23.5717 37.7745 25.1462 38.0419 25.4847C38.6899 26.3048 39.6928 28.218 39.9835 29.2717C40.3555 30.62 40.8407 31.8543 41.0392 33.293C41.2583 34.8816 42.8885 36.5626 43.0562 38.2122C43.4123 41.716 45.3251 43.6984 47.109 46.4694C49.0416 49.4714 51.3646 51.6778 54.0836 53.8678C55.3153 54.8598 56.971 55.2896 58.1553 56.3274C59.6874 57.6698 62.3 59.4176 64.3571 59.6459C65.5505 59.7783 66.6533 60.6522 67.901 60.7C68.9159 60.7389 69.9392 60.7 70.9547 60.7C71.9351 60.7 74.8519 61.1792 75.6108 60.5243C76.5899 59.6794 78.507 59.3663 79.7013 58.7479C81.9006 57.6092 83.9975 56.7976 85.7334 55C86.8716 53.8213 88.734 53.1 90.2952 52.5404C91.1533 52.2328 91.6278 51.5643 92.595 51.5643C93.2478 51.5643 93.6962 51.565 94.2915 51.291C96.8667 50.1058 101.021 50.1588 103.962 50.1588C105.809 50.1588 107.426 50.111 109.202 50.6859C111.306 51.3668 113.504 52.6775 115.668 52.9698C117.53 53.2214 119.118 54.0239 121.021 54.0239C122.969 54.0239 124.917 54.0239 126.865 54.0239C128.722 54.0239 130.663 53.0866 132.143 52.1109C133.358 51.3104 135.463 51.4063 136.516 50.315C138.566 48.1926 141.574 47.3582 144.019 45.7472C145.937 44.4831 148.066 43.0877 150.202 42.3506C153.593 41.1799 156.805 38.8598 160.381 38.5636C163.056 38.342 166.868 37.4921 169.637 38.3879C177.459 40.9194 185.192 43.4828 193.52 43.4828C195.338 43.4828 196.898 43.7049 198.459 42.8581C200.094 41.9711 201.543 40.8659 203.039 39.7934C205.915 37.7315 208.855 37.5094 212.295 37.5094C214.157 37.5094 215.705 37.8167 217.385 38.4855C218.867 39.0757 221.112 39.8861 222.21 41.0232C223.391 42.2459 225.254 43.5107 225.867 45.1615C226.742 47.5166 228.048 50.0365 228.299 52.638C229.311 63.1231 230.825 73.8385 234.557 83.7149C235.572 86.3991 237.288 88.0645 239.006 90.391C241.186 93.3427 242.633 95.2821 245.472 97.4379C247.619 99.0684 250.715 98.9996 253.257 98.9996C255.958 98.9996 258.454 97.3578 260.477 95.4078C261.902 94.0333 265.225 90.1213 267.338 89.8639C268.193 89.7598 269.168 88.4738 270.128 88.1851C271.515 87.768 273.54 87.9076 275.01 87.7752C278.35 87.4744 280.258 88.6982 282.06 91.6012C282.712 92.6514 283.014 93.7295 283.813 94.7831C284.442 95.6122 285.293 96.159 286 96.8913" stroke="white" stroke-width="3" stroke-linecap="round"/>
</svg>
