<svg width="27" height="27" viewBox="0 0 27 27" fill="none" xmlns="http://www.w3.org/2000/svg">
<path d="M25.0142 8.34294L17.9571 1.28578C17.1358 0.463509 16.0216 0.00102308 14.8595 0H4.38333C3.2208 0 2.10588 0.461814 1.28385 1.28385C0.461814 2.10588 0 3.2208 0 4.38333V21.9167C0 23.0792 0.461814 24.1941 1.28385 25.0162C2.10588 25.8382 3.2208 26.3 4.38333 26.3H21.9167C23.0792 26.3 24.1941 25.8382 25.0162 25.0162C25.8382 24.1941 26.3 23.0792 26.3 21.9167V11.4405C26.299 10.2784 25.8365 9.16419 25.0142 8.34294ZM10.2278 23.3778V20.4556H16.0722V23.3778H10.2278ZM23.3778 21.9167C23.3778 22.3042 23.2238 22.6758 22.9498 22.9498C22.6758 23.2238 22.3042 23.3778 21.9167 23.3778H18.9944V18.9944C18.9944 18.6069 18.8405 18.2353 18.5665 17.9613C18.2925 17.6873 17.9208 17.5333 17.5333 17.5333H8.76667C8.37916 17.5333 8.00752 17.6873 7.73351 17.9613C7.45949 18.2353 7.30556 18.6069 7.30556 18.9944V23.3778H4.38333C3.99582 23.3778 3.62418 23.2238 3.35017 22.9498C3.07616 22.6758 2.92222 22.3042 2.92222 21.9167V4.38333C2.92222 3.99582 3.07616 3.62418 3.35017 3.35017C3.62418 3.07616 3.99582 2.92222 4.38333 2.92222H7.30556V10.2278C7.30556 10.6153 7.45949 10.9869 7.73351 11.2609C8.00752 11.535 8.37916 11.6889 8.76667 11.6889H14.6111C14.9986 11.6889 15.3703 11.535 15.6443 11.2609C15.9183 10.9869 16.0722 10.6153 16.0722 10.2278C16.0722 9.84027 15.9183 9.46863 15.6443 9.19462C15.3703 8.9206 14.9986 8.76667 14.6111 8.76667H10.2278V2.92222H14.8595C15.2464 2.9276 15.6169 3.07895 15.8969 3.34594L22.9541 10.4031C23.0895 10.5396 23.1966 10.7016 23.2693 10.8796C23.342 11.0576 23.3789 11.2482 23.3778 11.4405V21.9167Z" fill="#FF7C25"/>
</svg>
