<svg width="19" height="20" viewBox="0 0 19 20" fill="none" xmlns="http://www.w3.org/2000/svg">
<path d="M17.0174 10.1884V9.1294L18.3463 7.96663C18.5913 7.75072 18.752 7.45517 18.8001 7.1322C18.8483 6.80924 18.7807 6.47966 18.6093 6.20171L16.9759 3.4332C16.8545 3.22298 16.68 3.04837 16.4698 2.92688C16.2597 2.8054 16.0213 2.74132 15.7785 2.74107C15.6281 2.73992 15.4785 2.7633 15.3356 2.81029L13.6537 3.37783C13.3633 3.18487 13.0604 3.01146 12.747 2.85874L12.394 1.11458C12.3307 0.795926 12.1574 0.509687 11.9043 0.305968C11.6512 0.102249 11.3346 -0.00597041 11.0098 0.000254309H7.77062C7.4458 -0.00597041 7.12914 0.102249 6.87608 0.305968C6.62301 0.509687 6.44966 0.795926 6.38637 1.11458L6.03338 2.85874C5.71773 3.01142 5.41252 3.18483 5.11977 3.37783L3.47251 2.7826C3.32806 2.74497 3.17848 2.73094 3.02955 2.74107C2.78681 2.74132 2.54839 2.8054 2.33823 2.92688C2.12807 3.04837 1.95355 3.22298 1.83217 3.4332L0.198756 6.20171C0.0372043 6.47924 -0.0228275 6.80431 0.0289419 7.12124C0.0807112 7.43817 0.241061 7.72724 0.482527 7.93894L1.79065 9.13632V10.1953L0.482527 11.358C0.23424 11.5712 0.0695047 11.8655 0.0175559 12.1886C-0.0343929 12.5117 0.0298047 12.8427 0.198756 13.123L1.83217 15.8915C1.95355 16.1017 2.12807 16.2763 2.33823 16.3978C2.54839 16.5193 2.78681 16.5834 3.02955 16.5836C3.17999 16.5848 3.3296 16.5614 3.47251 16.5144L5.15438 15.9468C5.44476 16.1398 5.74765 16.3132 6.06107 16.4659L6.41405 18.2101C6.47734 18.5288 6.65069 18.815 6.90376 19.0187C7.15683 19.2224 7.47349 19.3306 7.7983 19.3244H11.0651C11.39 19.3306 11.7066 19.2224 11.9597 19.0187C12.2127 18.815 12.3861 18.5288 12.4494 18.2101L12.8024 16.4659C13.118 16.3133 13.4232 16.1398 13.716 15.9468L15.3909 16.5144C15.5338 16.5614 15.6835 16.5848 15.8339 16.5836C16.0766 16.5834 16.3151 16.5193 16.5252 16.3978C16.7354 16.2763 16.9099 16.1017 17.0313 15.8915L18.6093 13.123C18.7709 12.8454 18.8309 12.5204 18.7791 12.2034C18.7274 11.8865 18.567 11.5974 18.3255 11.3857L17.0174 10.1884ZM15.7785 15.1993L13.4045 14.3965C12.8488 14.8672 12.2137 15.2352 11.5289 15.4831L11.0375 17.9679H7.77062L7.27921 15.5108C6.59983 15.2558 5.96813 14.8885 5.41047 14.4242L3.02955 15.1993L1.39613 12.4308L3.27872 10.7697C3.15074 10.0533 3.15074 9.31983 3.27872 8.60338L1.39613 6.89383L3.02955 4.12533L5.40355 4.92819C5.95928 4.45747 6.59442 4.08951 7.27921 3.84156L7.77062 1.35682H11.0375L11.5289 3.81387C12.2082 4.06887 12.8399 4.43619 13.3976 4.90051L15.7785 4.12533L17.4119 6.89383L15.5294 8.55494C15.6573 9.27138 15.6573 10.0048 15.5294 10.7213L17.4119 12.4308L15.7785 15.1993Z" fill="black" fill-opacity="0.8"/>
<path d="M9.40374 13.815C8.5824 13.815 7.77951 13.5715 7.09659 13.1152C6.41367 12.6589 5.8814 12.0103 5.56709 11.2515C5.25278 10.4927 5.17054 9.65767 5.33077 8.85212C5.49101 8.04656 5.88652 7.30661 6.46729 6.72584C7.04807 6.14506 7.78802 5.74955 8.59357 5.58932C9.39913 5.42908 10.2341 5.51132 10.9929 5.82563C11.7517 6.13995 12.4003 6.67221 12.8566 7.35513C13.3129 8.03805 13.5565 8.84094 13.5565 9.66228C13.562 10.2092 13.4584 10.7517 13.2517 11.258C13.045 11.7644 12.7393 12.2244 12.3526 12.6111C11.9658 12.9978 11.5058 13.3035 10.9995 13.5102C10.4931 13.717 9.95063 13.8206 9.40374 13.815ZM9.40374 6.89378C9.03784 6.88525 8.67402 6.95104 8.33427 7.08715C7.99453 7.22326 7.68593 7.42688 7.42713 7.68567C7.16833 7.94447 6.96472 8.25308 6.8286 8.59282C6.69249 8.93256 6.62671 9.29639 6.63523 9.66228C6.62671 10.0282 6.69249 10.392 6.8286 10.7317C6.96472 11.0715 7.16833 11.3801 7.42713 11.6389C7.68593 11.8977 7.99453 12.1013 8.33427 12.2374C8.67402 12.3735 9.03784 12.4393 9.40374 12.4308C9.76963 12.4393 10.1335 12.3735 10.4732 12.2374C10.8129 12.1013 11.1215 11.8977 11.3803 11.6389C11.6391 11.3801 11.8428 11.0715 11.9789 10.7317C12.115 10.392 12.1808 10.0282 12.1722 9.66228C12.1808 9.29639 12.115 8.93256 11.9789 8.59282C11.8428 8.25308 11.6391 7.94447 11.3803 7.68567C11.1215 7.42688 10.8129 7.22326 10.4732 7.08715C10.1335 6.95104 9.76963 6.88525 9.40374 6.89378Z" fill="black" fill-opacity="0.8"/>
</svg>
