<svg width="1213" height="1228" viewBox="0 0 1213 1228" fill="none" xmlns="http://www.w3.org/2000/svg">
<path d="M622.569 17.8359C495.968 68.1469 483.838 196.808 369.83 207.839C270.478 217.438 232.742 124.352 163.04 141.024C56.8651 166.411 -9.88895 419.44 32.7326 627.504C76.7439 842.347 261.76 1127.92 568.239 1147.41C912.328 1169.31 1172.69 840.705 1188.57 552.354C1190.29 521.156 1200.44 259.876 1000.6 105.533C990.622 97.7862 793.729 -50.1997 622.569 17.8359Z" fill="#F8F3F0"/>
<path d="M1036.27 1164.13C1045.33 1171.45 1045.83 1176.63 1045.54 1179.16C1045.07 1183.24 1042 1184.84 1034.63 1192.5C1024.69 1202.9 1026.21 1204.33 1021.11 1208.08C1009.91 1216.42 994.072 1215.83 993.146 1213.01C992.472 1211.03 999.632 1209.39 1007.8 1199.95C1015.34 1191.24 1017.87 1182.61 1018.54 1180.08C1019.76 1175.49 1020.1 1171.49 1020.14 1168.76L1036.27 1164.13Z" fill="url(#paint0_linear_185_496)"/>
<path d="M1005.99 1141.81L1023.81 1172.84C1028.1 1174.74 1032.19 1173.77 1036.02 1168.25L1029.07 1130.53L1005.99 1141.81Z" fill="url(#paint1_linear_185_496)"/>
<path d="M984.385 743.788C967.033 773.09 938.857 829.59 933.172 906.046C927.57 981.492 946.607 1039 954.567 1060.43C969.518 1100.6 995.504 1142.78 1010.58 1162.91C1020.77 1158.65 1026.75 1151.96 1036.95 1147.71C1035.43 1142.15 1030.71 1123.88 1027.72 1112.97C1025.41 1104.55 1021.19 1088.93 1020.31 1085.57C1012.98 1057.61 1018.75 1036.64 1016.77 1002.08C1014.41 961.788 1005.19 966.461 1006.58 942.253C1008.64 906.13 1029.15 897.668 1052.66 845.378C1068.74 809.592 1085.67 771.996 1070.13 751.408C1050.55 725.6 991.039 741.893 984.385 743.788Z" fill="url(#paint2_linear_185_496)"/>
<path d="M1109.97 1192.5C1115.41 1195.96 1118.69 1204.16 1116.21 1209.3C1113.77 1214.4 1107.57 1212.75 1092.54 1217.38C1076.41 1222.35 1073.25 1227.32 1061.33 1227.32C1056.53 1227.32 1047.81 1226.48 1047.1 1223.28C1046.59 1221.01 1050.3 1218.73 1062.43 1210.56C1079.69 1198.99 1079.52 1198.65 1083.36 1196.88C1093.09 1192.42 1102.82 1187.96 1109.97 1192.5Z" fill="url(#paint3_linear_185_496)"/>
<path d="M1084.2 1167.92L1090.81 1198.14C1091.74 1199.49 1101.17 1202.73 1107.74 1198.14L1105.3 1167.92H1084.2Z" fill="url(#paint4_linear_185_496)"/>
<path opacity="0.3" d="M1070.09 751.492C1050.55 725.6 991.036 741.893 984.382 743.788C977.264 755.829 968.293 772.543 959.828 793.257C980.928 789.131 990.067 792.878 994.321 797.888C1010.87 817.297 959.028 860.156 969.683 925.16C973.853 950.589 984.719 962.041 982.739 993.111C981.265 1016.22 974.063 1027.93 969.094 1044.85C966.103 1055 963.787 1067.5 963.703 1082.58C978.612 1115.33 998.196 1146.53 1010.54 1162.95C1020.73 1158.7 1026.71 1152 1036.9 1147.75C1035.38 1142.19 1030.67 1123.92 1027.68 1113.02C1025.36 1104.6 1021.15 1088.98 1020.26 1085.61C1012.94 1057.65 1018.71 1036.69 1016.73 1002.12C1014.37 961.83 1005.14 966.503 1006.53 942.295C1008.6 906.172 1029.11 897.71 1052.61 845.42C1068.74 809.634 1085.63 772.038 1070.09 751.492Z" fill="url(#paint5_linear_185_496)"/>
<path d="M1030.88 759.66C1029.2 827.064 1031.77 905.162 1042.84 991.259C1051.86 1061.36 1065 1124.59 1079.48 1180.04C1081.51 1181.18 1088.5 1184.8 1097.51 1183.11C1103.87 1181.89 1108.12 1178.61 1110.02 1176.93C1108.42 1165.6 1106.86 1148.47 1108.16 1127.71C1110.4 1092.09 1118.82 1084.85 1122.4 1047.97C1125.56 1015.64 1122.23 989.238 1120.63 976.987C1115.66 939.306 1108.92 938.506 1108.8 915.94C1108.59 881.164 1124.51 868.744 1133.22 835.611C1139.04 813.507 1142.15 780.542 1127.5 735.325C1095.24 743.451 1063.06 751.577 1030.88 759.66Z" fill="url(#paint6_linear_185_496)"/>
<path d="M1005.02 490.885C993.354 490.885 951.659 496.611 932.117 513.831C853.065 583.424 877.618 657.101 903.014 681.478C920.324 698.066 961.303 693.056 975.454 673.352C985.857 658.87 978.36 641.103 974.78 615.842C970.906 588.645 985.688 542.123 1005.02 490.885Z" fill="url(#paint7_linear_185_496)"/>
<path opacity="0.3" d="M1127.45 735.367C1118.02 737.725 1108.62 740.125 1099.19 742.483C1104.12 759.449 1108.83 784.921 1103.15 813.844C1095.27 853.756 1074.97 862.555 1071.98 898.552C1069.29 930.928 1084.58 937.538 1091.9 980.776C1099.4 1025.07 1088.03 1045.86 1085.67 1082.91C1084.03 1108.26 1086.68 1141.43 1102.1 1181.77C1105.89 1180.25 1108.58 1178.19 1109.97 1176.97C1108.37 1165.64 1106.81 1148.51 1108.12 1127.75C1110.35 1092.13 1118.77 1084.89 1122.35 1048.01C1125.51 1015.68 1122.19 989.28 1120.58 977.029C1115.62 939.348 1108.88 938.548 1108.75 915.982C1108.54 881.206 1124.46 868.786 1133.18 835.653C1138.99 813.549 1142.11 780.584 1127.45 735.367Z" fill="url(#paint8_linear_185_496)"/>
<path d="M976.632 508.231C976.632 508.231 962.65 520.946 954.479 539.639C942.181 567.805 955.406 592.013 959.407 637.987C963.745 688.467 957.596 772.543 943.403 802.645C943.15 803.151 942.561 804.666 942.771 806.561C946.604 835.653 1146.87 829.085 1143.92 790.226C1140.59 746.188 1115.03 711.665 1116.25 609.611C1116.75 566.668 1126.44 531.345 1135.07 507.305C1118.65 500.022 1094.09 491.475 1063.35 488.654C1040.1 486.507 1020.1 488.317 1004.98 490.843C1000.51 492.527 988.509 497.369 976.632 508.231Z" fill="url(#paint9_linear_185_496)"/>
<path opacity="0.3" d="M1087.48 619.884C1065.63 627.546 1036.61 649.102 1034.67 676.72C1031.68 719.158 1094.85 742.398 1086.47 772.122C1084.16 780.205 1076.91 787.531 1029.62 804.624C1010.45 811.529 992.681 817.17 976.551 821.843C1034.42 830.39 1153.31 817.928 1143.96 790.267C1115.79 706.697 1111.83 667.458 1117.72 615.547C1107.19 615.126 1097 616.558 1087.48 619.884Z" fill="url(#paint10_linear_185_496)"/>
<path d="M1018.66 706.696C1054.21 742.777 1104.96 754.145 1144 736.083C1198.21 711.033 1222.21 642.239 1209.58 597.781C1188.48 523.514 1128.59 490.549 1099.65 510.336C1078.72 524.651 1031.21 567.341 1056.19 595.044C1078.64 619.926 1113.09 613.653 1122.44 639.04C1129.47 658.027 1115.91 677.184 1114.73 678.783C1099.65 699.413 1066.76 706.444 1035.68 692.256C1029.99 697.055 1024.31 701.855 1018.66 706.696Z" fill="url(#paint11_linear_185_496)"/>
<path d="M948.287 644.513C951.193 635.209 960.584 630.451 967.997 629.441C975.241 628.43 987.16 630.072 991.919 639.545C996.383 648.386 992.888 660.764 982.653 667.5C981.221 663.922 978.652 659.249 974.104 657.817C965.765 655.207 958.521 666.069 952.372 663.248C947.402 660.933 946.139 651.334 948.287 644.513Z" fill="url(#paint12_linear_185_496)"/>
<path d="M982.403 700.844L1009.78 705.602C1015.08 706.528 1019.63 701.771 1018.5 696.55L1008.56 650.281C1007.84 646.913 1004.98 644.471 1001.52 644.302L968.757 642.534C963.366 642.239 959.407 647.544 961.218 652.638L976.549 695.919C977.475 698.487 979.707 700.381 982.403 700.844Z" fill="url(#paint13_linear_185_496)"/>
<path d="M1030.16 696.887C1027.93 680.762 1021.11 676.552 1018.66 675.373C1014.54 673.352 1012.51 674.91 998.111 674.7C985.265 674.489 982.191 673.184 980.59 675.373C977.516 679.541 983.833 690.488 990.993 696.887C1001.06 705.897 1013.53 706.654 1018.66 706.654L1030.16 696.887Z" fill="url(#paint14_linear_185_496)"/>
<path d="M1031.72 443.732C1033.54 467.982 1040.86 481.455 1047.27 484.444C1053.29 487.223 1057.04 484.444 1069.76 489.707C1072.96 491.012 1073.63 493.622 1073.42 495.475C1072.2 506.252 1017.57 500.4 1008.22 497.959C1007.72 497.832 1000.98 496.527 1000.81 495.685C1000.18 492.738 1016.18 492.022 1019.72 483.644C1021.15 480.276 1021.83 475.771 1016.06 467.098C1019.93 459.731 1027.81 451.1 1031.72 443.732Z" fill="url(#paint15_linear_185_496)"/>
<path d="M1001.99 448.532C997.61 442.974 997.105 433.165 1001.86 426.807C1005.95 421.334 1012.56 420.408 1016.52 419.861C1027.98 418.261 1042.63 422.724 1047.94 433.165C1051.1 439.354 1044.91 452.531 1043.98 454.931C1042.89 457.625 1040.82 458.552 1038.97 460.615C1036.36 463.435 1032.31 467.982 1025.66 475.519C1025.07 473.371 1024.23 470.677 1022.88 467.772C1022.37 466.677 1020.27 462.299 1017.19 458.72C1010.96 451.563 1006.12 453.794 1001.99 448.532Z" fill="url(#paint16_linear_185_496)"/>
<path d="M1035.18 469.077C1035.18 469.077 1027.89 481.665 1012.81 481.034C999.295 480.487 996.599 450.3 1005.06 443.69C1007.89 441.501 1013.61 440.448 1018.33 441.669C1021.11 442.385 1022.08 443.522 1026.63 444.574C1030.84 445.542 1032.02 445.079 1033.28 446.09C1034.88 447.395 1036.15 450.595 1033.7 459.52C1036.23 456.868 1039.26 455.773 1041.5 456.783C1041.83 456.952 1042.8 457.541 1043.35 458.51C1045.33 461.878 1042.3 466.34 1035.18 469.077Z" fill="url(#paint17_linear_185_496)"/>
<path d="M1033.91 444.279C1033.28 444.785 1035.3 447.142 1035.55 450.595C1036.02 457.247 1029.45 465.414 1022.58 466.256C1018.54 466.761 1017.36 464.32 1010.62 463.772C1006.45 463.435 1003 464.025 1000.81 464.572C998.871 471.94 1001.02 479.181 1005.99 482.423C1011.34 485.918 1017.99 483.56 1020.77 482.592C1022.62 481.918 1028.61 479.813 1031.64 474.213C1034.8 468.403 1031.47 464.993 1035.13 460.994C1036.99 458.973 1039.47 458.089 1041.79 454.215C1042.42 453.163 1042.84 452.236 1043.09 451.605C1039.56 448.026 1034.84 443.564 1033.91 444.279Z" fill="url(#paint18_linear_185_496)"/>
<path d="M1005.74 467.14C1005.74 467.14 1008.69 468.572 1013.7 468.193C1013.95 468.193 1014.2 468.235 1014.25 468.361C1014.37 468.824 1011.21 471.056 1008.22 470.298C1006.12 469.751 1004.39 467.814 1004.69 467.267C1004.81 467.056 1005.27 467.056 1005.74 467.14Z" fill="url(#paint19_linear_185_496)"/>
<path d="M179.293 1065.19C174.029 1077.73 164.174 1095.12 153.645 1115.16H377.197C343.041 1052.05 298.398 987.049 333.186 863.818C349.527 806.013 400.024 701.181 364.309 641.355C323.625 573.151 268.495 613.148 245.205 559.174C208.817 474.803 125.216 424.534 51.2181 479.813C-21.7691 534.334 3.66902 691.288 133.05 848.283C213.113 971.429 206.879 999.763 179.293 1065.19Z" fill="url(#paint20_linear_185_496)"/>
<path d="M269.206 1102.2C266.637 1073.23 262.72 1046.03 258.593 1017.24L257.203 1007.64C254.339 993.911 251.938 980.271 249.58 967.093C244.273 937.327 239.261 909.204 229.827 879.985C229.491 878.259 229.238 876.533 228.943 874.765C227.974 868.323 226.964 861.671 222.331 855.861L222.204 855.609C184.174 699.203 113.25 548.017 11.3711 406.22L12.424 405.462C114.345 547.343 185.353 698.613 223.426 855.146C228.227 861.208 229.28 868.281 230.206 874.554C230.459 876.323 230.712 878.007 231.049 879.648C240.483 908.909 245.495 937.075 250.801 966.882C253.16 980.06 255.603 993.659 258.424 1007.43L259.814 1017.07C263.942 1045.86 267.858 1073.1 270.427 1102.11L269.206 1102.2Z" fill="#FCFDFE"/>
<path d="M247.392 961.788C235.136 886.974 261.796 792.162 286.307 725.811C312.882 653.944 342.743 599.002 343.038 598.454L344.175 599.086C343.88 599.633 314.062 654.491 287.528 726.274C263.059 792.499 236.442 887.058 248.655 961.578L247.392 961.788Z" fill="#FCFDFE"/>
<path d="M149.763 643.124C132.327 564.478 132.243 477.918 132.201 449.458C132.201 444.027 132.201 440.406 132.074 439.732L133.338 439.522C133.464 440.28 133.464 443.101 133.506 449.458C133.548 477.876 133.633 564.352 151.026 642.829L149.763 643.124Z" fill="#FCFDFE"/>
<path d="M196.808 766.144C160.041 701.518 10.9498 661.101 9.43359 660.722L9.77052 659.459C11.2867 659.88 160.925 700.424 197.945 765.512L196.808 766.144Z" fill="#FCFDFE"/>
<path d="M198.114 901.12C199.336 1003.81 248.864 969.956 294.518 980.102C347.248 1056.35 352.217 1127.12 273.502 1188.21L185.774 1175.07C153.219 1173.56 115.061 1163.62 117.209 1120.3C119.652 1071.29 131.234 1040.18 75.9354 1016.14C20.637 992.101 -3.15866 948.19 19.2471 898.258C42.8322 845.715 -12.4663 774.859 27.923 739.662C98.3833 678.321 196.893 794.225 198.114 901.12Z" fill="url(#paint21_linear_185_496)"/>
<path d="M219.929 1084.89C183.33 1044.85 151.575 1000.35 125.631 952.61C99.435 904.488 79.5141 853.714 66.3318 801.719C58.793 771.912 53.4442 741.515 50.4961 711.454L51.8017 711.328C54.7498 741.346 60.0986 771.659 67.6374 801.425C80.7776 853.293 100.699 903.983 126.811 952.021C152.712 999.637 184.383 1044.05 220.94 1084.01L219.929 1084.89Z" fill="#FCFDFE"/>
<path d="M125.508 1141.27L124.918 1140.09C141.217 1131.79 160.422 1125.31 182.027 1120.85C192.304 1118.7 202.538 1117.31 212.435 1116.68L212.52 1117.98C202.706 1118.62 192.556 1120 182.28 1122.15C160.801 1126.57 141.68 1133.01 125.508 1141.27Z" fill="#FCFDFE"/>
<path d="M142.689 981.913C97.4146 938.127 1.01079 942.127 0.0421161 942.169L0 940.864C0.968671 940.822 97.9621 936.78 143.658 980.986L142.689 981.913Z" fill="#FCFDFE"/>
<path d="M86.8428 867.608C73.2814 797.72 125.674 717.011 126.179 716.212L127.274 716.927C126.727 717.727 74.6712 798.014 88.1063 867.355L86.8428 867.608Z" fill="#FCFDFE"/>
<path d="M657.18 788.078C655.874 900.826 601.46 863.692 551.3 874.807C493.39 958.546 487.957 1036.22 574.379 1103.33L670.699 1088.93C706.456 1087.29 748.361 1076.35 746.003 1028.77C743.307 974.966 730.588 940.78 791.362 914.382C852.093 887.942 878.205 839.737 853.609 784.921C827.708 727.2 888.439 649.439 844.049 610.748C766.724 543.386 658.527 670.658 657.18 788.078Z" fill="url(#paint22_linear_185_496)"/>
<path d="M633.256 989.87C673.477 945.874 708.307 897.037 736.82 844.62C765.585 791.783 787.485 735.999 801.931 678.91C810.228 646.155 816.082 612.811 819.325 579.761L817.893 579.635C814.65 612.6 808.796 645.903 800.541 678.573C786.096 735.536 764.237 791.194 735.556 843.947C707.128 896.237 672.34 945.032 632.203 988.901L633.256 989.87Z" fill="#FCFDFE"/>
<path d="M736.902 1051.8L737.576 1050.5C719.677 1041.4 698.577 1034.29 674.865 1029.36C663.578 1027.05 652.333 1025.49 641.467 1024.77L641.383 1026.25C652.165 1026.96 663.325 1028.48 674.57 1030.79C698.155 1035.68 719.129 1042.75 736.902 1051.8Z" fill="#FCFDFE"/>
<path d="M718.034 876.786C767.773 828.706 873.653 833.085 874.706 833.127L874.79 831.653C873.738 831.611 767.226 827.148 717.023 875.691L718.034 876.786Z" fill="#FCFDFE"/>
<path d="M779.401 751.24C794.268 674.531 736.78 585.824 736.19 584.94L734.969 585.74C735.558 586.624 792.752 674.784 777.969 750.945L779.401 751.24Z" fill="#FCFDFE"/>
<path d="M674.375 80.9456C715.48 428.197 756.586 771.827 797.691 1111.79C799.544 1127.04 789.015 1140.51 774.274 1141.77C609.095 1157.43 443.915 1173.43 278.736 1189.81C249.255 1191.24 233.082 1174.78 231.187 1158.32C188.86 791.278 146.576 420.408 104.249 45.7069C102.354 28.8664 116.631 14.4256 146.07 15.8571C312.05 27.6875 478.072 39.3496 644.051 50.8853C658.918 51.8536 672.522 65.3681 674.375 80.9456Z" fill="#26264F"/>
<path d="M697.327 80.2299C738.685 428.997 780.043 774.059 821.401 1115.5C823.254 1130.78 812.641 1144.34 797.816 1145.6C626.319 1160.13 454.78 1174.95 283.284 1190.02C267.616 1191.41 253.255 1179.03 251.317 1162.44C208.738 793.72 166.159 421.124 123.621 44.6543C121.684 27.7717 133.055 14.8045 148.807 15.8992C321.483 27.3928 494.159 38.8023 666.835 50.0433C681.744 51.0116 695.474 64.5682 697.327 80.2299Z" fill="url(#paint23_linear_185_496)"/>
<path d="M687.348 137.277C725.674 460.404 763.957 780.374 802.283 1097.19C804.01 1111.5 794.112 1124.13 780.256 1125.27C618.951 1138.45 457.647 1151.88 296.342 1165.6C281.77 1166.86 268.377 1155.24 266.608 1139.88C227.229 799.319 187.893 455.436 148.514 108.227C146.745 92.5234 157.274 80.3561 171.973 81.2402C334.289 90.6709 496.604 100.017 658.878 109.28C672.818 110.08 685.621 122.71 687.348 137.277Z" fill="url(#paint24_linear_185_496)"/>
<path opacity="0.35" d="M658.876 109.28C498.498 100.144 338.12 90.8815 177.699 81.5771C182.669 110.08 191.303 141.066 205.875 172.684C259.068 288.042 337.235 294.399 367.811 394.979C399.314 498.548 328.264 530.966 362.968 624.515C400.62 725.979 492.981 711.328 541.835 822.643C583.909 918.592 529.748 962.462 573.254 1020.77C620.929 1084.68 709.163 1063 800.765 1084.64C762.945 771.911 725.167 456.152 687.346 137.319C685.62 122.71 672.816 110.08 658.876 109.28Z" fill="url(#paint25_linear_185_496)"/>
<path d="M424.586 66.6733C425.218 72.2728 421.47 76.6092 416.163 76.2724C410.857 75.9356 406.013 71.136 405.339 65.4945C404.665 59.8529 408.456 55.5586 413.805 55.8954C419.111 56.2322 423.955 61.0738 424.586 66.6733Z" fill="#DE8BDF"/>
<path d="M482.534 378.938C503.026 378.938 519.638 359.335 519.638 335.153C519.638 310.971 503.026 291.368 482.534 291.368C462.042 291.368 445.43 310.971 445.43 335.153C445.43 359.335 462.042 378.938 482.534 378.938Z" fill="url(#paint26_linear_185_496)"/>
<path d="M630.323 378.938C650.815 378.938 667.427 359.335 667.427 335.153C667.427 310.971 650.815 291.368 630.323 291.368C609.831 291.368 593.219 310.971 593.219 335.153C593.219 359.335 609.831 378.938 630.323 378.938Z" fill="url(#paint27_linear_185_496)"/>
<path d="M556.027 378.938C576.821 378.938 593.679 359.335 593.679 335.153C593.679 310.971 576.821 291.368 556.027 291.368C535.232 291.368 518.375 310.971 518.375 335.153C518.375 359.335 535.232 378.938 556.027 378.938Z" fill="#D8DEE8"/>
<path d="M778.061 378.938C798.554 378.938 815.166 359.335 815.166 335.153C815.166 310.971 798.554 291.368 778.061 291.368C757.569 291.368 740.957 310.971 740.957 335.153C740.957 359.335 757.569 378.938 778.061 378.938Z" fill="url(#paint28_linear_185_496)"/>
<path d="M703.773 378.938C724.567 378.938 741.425 359.335 741.425 335.153C741.425 310.971 724.567 291.368 703.773 291.368C682.978 291.368 666.121 310.971 666.121 335.153C666.121 359.335 682.978 378.938 703.773 378.938Z" fill="#D8DEE8"/>
<path d="M851.558 378.938C872.353 378.938 889.21 359.335 889.21 335.153C889.21 310.971 872.353 291.368 851.558 291.368C830.764 291.368 813.906 310.971 813.906 335.153C813.906 359.335 830.764 378.938 851.558 378.938Z" fill="#D8DEE8"/>
<path d="M408.246 378.938C429.04 378.938 445.897 359.335 445.897 335.153C445.897 310.971 429.04 291.368 408.246 291.368C387.451 291.368 370.594 310.971 370.594 335.153C370.594 359.335 387.451 378.938 408.246 378.938Z" fill="#D8DEE8"/>
<path d="M141.059 76.9039L371.392 341.089H965.945L677.871 110.374L141.059 76.9039Z" fill="url(#paint29_linear_185_496)"/>
<path d="M141.059 76.9039L371.392 341.089H445.895L203.011 80.7772L141.059 76.9039Z" fill="#F4F7FA"/>
<path d="M269.555 84.9032L519.303 341.089H592.922L336.561 89.0712L269.555 84.9032Z" fill="#F4F7FA"/>
<path d="M404.117 93.2814L666.669 341.089H740.625L472.135 97.5336L404.117 93.2814Z" fill="#F4F7FA"/>
<path d="M609.774 106.122L540.703 101.828L814.753 341.089H889.046L609.774 106.122Z" fill="#F4F7FA"/>
<path d="M889.125 341.089C891.568 362.477 907.066 378.938 925.85 378.938C944.634 378.938 960.133 362.435 962.576 341.089H889.125Z" fill="url(#paint30_linear_185_496)"/>
<g opacity="0.8">
<g opacity="0.35">
<path opacity="0.35" d="M698.038 853.504C698.88 863.44 691.636 871.776 681.865 872.197L323.794 886.89C313.265 887.311 303.62 879.354 302.23 869.039L291.954 791.994C290.564 781.468 298.103 772.669 308.801 772.332L672.305 761.555C682.202 761.26 690.92 769.259 691.805 779.363L698.038 853.504Z" fill="url(#paint31_linear_185_496)"/>
<path opacity="0.35" d="M704.776 933.664C705.576 943.39 698.416 951.642 688.772 952.105L334.659 969.535C324.257 970.04 314.696 962.293 313.349 952.189L312.338 944.569C310.99 934.422 318.403 925.791 328.847 925.328L685.066 909.372C694.794 908.951 703.344 916.529 704.144 926.297L704.776 933.664Z" fill="url(#paint32_linear_185_496)"/>
</g>
<g opacity="0.3">
<path opacity="0.3" d="M627.871 564.31L316.295 566.752C311.031 566.794 306.272 562.879 305.64 557.995L302.987 537.155C302.355 532.229 306.145 528.272 311.41 528.272H624.67C629.26 528.272 633.346 531.976 633.725 536.566L635.452 555.974C635.831 560.563 632.461 564.268 627.871 564.31Z" fill="url(#paint33_linear_185_496)"/>
<path opacity="0.3" d="M329.688 574.457L369.487 674.994C371.972 681.267 378.626 685.478 385.576 685.225L589.502 678.573C595.904 678.362 601.042 673.984 602.01 667.921L617.551 571.72L329.688 574.457ZM419.142 668.132C419.605 672.089 416.573 675.373 412.361 675.5L405.075 675.71C400.864 675.836 397.031 672.763 396.568 668.805L387.302 590.96C386.839 586.919 389.914 583.635 394.209 583.55L401.58 583.466C405.833 583.424 409.666 586.624 410.129 590.666L419.142 668.132ZM459.405 666.953C459.826 670.868 456.836 674.11 452.709 674.237L445.549 674.447C441.379 674.573 437.631 671.5 437.21 667.585L428.408 590.413C427.944 586.413 431.019 583.129 435.23 583.087L442.474 583.003C446.686 582.961 450.434 586.161 450.856 590.118L459.405 666.953ZM498.994 665.816C499.415 669.69 496.425 672.931 492.382 673.058L485.349 673.268C481.263 673.394 477.599 670.363 477.178 666.448L468.839 589.908C468.418 585.95 471.408 582.666 475.578 582.624L482.695 582.54C486.823 582.498 490.487 585.655 490.908 589.613L498.994 665.816ZM537.91 664.68C538.289 668.511 535.383 671.71 531.382 671.837L524.475 672.047C520.474 672.174 516.852 669.142 516.473 665.269L508.555 589.36C508.133 585.445 511.124 582.203 515.209 582.161L522.2 582.077C526.243 582.035 529.865 585.15 530.244 589.066L537.91 664.68ZM576.193 663.543C576.572 667.332 573.666 670.532 569.749 670.658L562.927 670.868C558.968 670.995 555.472 668.006 555.051 664.174L547.554 588.897C547.175 584.982 550.123 581.782 554.124 581.74L561.031 581.656C565.032 581.614 568.57 584.729 568.907 588.603L576.193 663.543Z" fill="url(#paint34_linear_185_496)"/>
<g opacity="0.3">
<g opacity="0.3">
<path opacity="0.3" d="M358.749 517.788C354.369 521.788 346.915 521.283 342.071 516.694C337.228 512.062 336.891 505.074 341.271 501.074C345.693 497.074 353.19 497.622 357.991 502.253C362.792 506.842 363.129 513.831 358.749 517.788Z" fill="url(#paint35_linear_185_496)"/>
<path opacity="0.3" d="M449.805 418.977C447.994 417.166 444.751 417.335 442.477 419.356L350.833 502.421C348.516 504.526 348.179 507.642 350.032 509.452C351.885 511.22 355.255 511.01 357.571 508.905L448.963 425.923C451.195 423.902 451.574 420.787 449.805 418.977Z" fill="url(#paint36_linear_185_496)"/>
</g>
<g opacity="0.3">
<path opacity="0.3" d="M580.282 518.294C585.083 522.125 591.738 521.662 595.149 517.325C598.561 512.989 597.508 506.337 592.749 502.506C587.989 498.674 581.293 499.095 577.839 503.432C574.386 507.81 575.481 514.462 580.282 518.294Z" fill="url(#paint37_linear_185_496)"/>
<path opacity="0.3" d="M473.053 419.524C474.443 417.798 477.728 418.135 480.381 420.24L584.366 503.684C586.85 505.705 587.819 508.694 586.471 510.379C585.124 512.063 582.049 511.81 579.522 509.789L475.327 426.471C472.716 424.366 471.663 421.25 473.053 419.524Z" fill="url(#paint38_linear_185_496)"/>
</g>
</g>
</g>
<g opacity="0.8">
<path opacity="0.8" d="M704.1 847.399C704.943 857.335 697.699 865.671 687.928 866.092L329.856 880.785C319.327 881.206 309.683 873.249 308.293 862.934L298.017 785.889C296.627 775.364 304.166 766.565 314.863 766.228L678.367 755.45C688.265 755.155 696.983 763.154 697.867 773.259L704.1 847.399Z" fill="white"/>
<path opacity="0.8" d="M710.839 927.56C711.639 937.285 704.479 945.537 694.834 946L340.722 963.43C330.319 963.935 320.759 956.188 319.411 946.084L318.4 938.464C317.053 928.317 324.465 919.687 334.91 919.224L691.128 903.267C700.857 902.846 709.407 910.424 710.207 920.192L710.839 927.56Z" fill="white"/>
</g>
<g opacity="0.8">
<path opacity="0.8" d="M632.043 560.142L320.467 562.584C315.203 562.626 310.444 558.71 309.812 553.827L307.159 532.987C306.527 528.061 310.317 524.103 315.582 524.103H628.842C633.432 524.103 637.518 527.808 637.897 532.397L639.623 551.806C640.045 556.395 636.633 560.1 632.043 560.142Z" fill="white"/>
<path opacity="0.8" d="M333.898 570.246L373.698 670.784C376.183 677.057 382.837 681.267 389.787 681.015L593.713 674.363C600.115 674.152 605.253 669.774 606.221 663.711L621.762 567.51L333.898 570.246ZM423.311 663.964C423.774 667.921 420.742 671.205 416.53 671.331L409.244 671.542C405.033 671.668 401.2 668.595 400.737 664.637L391.471 586.792C391.008 582.75 394.082 579.467 398.378 579.382L405.749 579.298C410.002 579.256 413.835 582.456 414.298 586.497L423.311 663.964ZM463.574 662.785C463.995 666.7 461.005 669.942 456.878 670.068L449.718 670.279C445.548 670.405 441.8 667.332 441.379 663.416L432.577 586.245C432.113 582.245 435.188 578.961 439.399 578.919L446.643 578.835C450.855 578.793 454.603 581.993 455.024 585.95L463.574 662.785ZM503.163 661.606C503.584 665.479 500.594 668.721 496.551 668.847L489.518 669.058C485.432 669.184 481.768 666.153 481.347 662.238L473.008 585.697C472.587 581.74 475.577 578.456 479.747 578.414L486.864 578.33C490.992 578.288 494.656 581.445 495.077 585.403L503.163 661.606ZM542.078 660.469C542.458 664.301 539.552 667.5 535.55 667.627L528.643 667.837C524.642 667.963 521.02 664.932 520.641 661.059L512.724 585.15C512.302 581.235 515.293 577.993 519.378 577.951L526.369 577.867C530.412 577.825 534.034 580.94 534.413 584.855L542.078 660.469ZM580.362 659.375C580.741 663.164 577.835 666.363 573.918 666.49L567.095 666.7C563.137 666.827 559.641 663.837 559.22 660.006L551.723 584.729C551.344 580.814 554.292 577.614 558.293 577.572L565.2 577.488C569.201 577.446 572.739 580.561 573.076 584.434L580.362 659.375Z" fill="white"/>
<g opacity="0.8">
<g opacity="0.8">
<path opacity="0.8" d="M362.913 513.62C358.533 517.62 351.079 517.115 346.235 512.525C341.392 507.894 341.055 500.906 345.435 496.906C349.857 492.906 357.354 493.454 362.155 498.085C366.956 502.674 367.293 509.62 362.913 513.62Z" fill="white"/>
<path opacity="0.8" d="M453.969 414.808C452.158 412.998 448.916 413.166 446.641 415.187L354.997 498.253C352.68 500.358 352.343 503.474 354.196 505.284C356.049 507.052 359.419 506.842 361.735 504.737L453.127 421.755C455.401 419.734 455.738 416.619 453.969 414.808Z" fill="white"/>
</g>
<g opacity="0.8">
<path opacity="0.8" d="M584.442 514.083C589.244 517.914 595.898 517.451 599.309 513.115C602.721 508.778 601.668 502.126 596.909 498.295C592.15 494.464 585.453 494.885 582 499.221C578.546 503.6 579.641 510.252 584.442 514.083Z" fill="white"/>
<path opacity="0.8" d="M477.256 415.314C478.646 413.588 481.931 413.924 484.584 416.029L588.569 499.474C591.054 501.495 592.023 504.484 590.675 506.168C589.327 507.852 586.253 507.6 583.726 505.579L479.53 422.26C476.877 420.197 475.866 417.04 477.256 415.314Z" fill="white"/>
</g>
</g>
</g>
</g>
<path d="M296.424 982.544C294.866 982.544 293.56 981.365 293.391 979.808C290.738 951.936 281.641 925.455 267.785 905.204C255.529 887.269 240.915 876.617 228.701 876.617H228.659C184.184 876.702 174.877 978.755 174.792 979.808C174.666 981.492 173.192 982.712 171.507 982.586C169.823 982.46 168.601 980.986 168.728 979.302C169.107 974.882 178.625 870.681 228.617 870.597H228.659C243.063 870.597 259.151 881.964 272.755 901.836C287.2 922.887 296.634 950.379 299.414 979.302C299.583 980.986 298.361 982.46 296.677 982.628C296.592 982.544 296.508 982.544 296.424 982.544Z" fill="url(#paint39_linear_185_496)"/>
<path d="M111.155 1192.59L169.696 1222.23L205.158 1113.44L146.701 967.598L130.149 971.64L105.006 1181.14C104.458 1185.85 106.901 1190.44 111.155 1192.59Z" fill="url(#paint40_linear_185_496)"/>
<path opacity="0.52" d="M205.161 1113.39L146.704 967.556L136.933 969.956C135.585 989.449 136.175 1005.45 137.101 1017.11C141.018 1066.79 154.032 1080.6 147.714 1115.25C142.492 1144.04 131.036 1147.96 132.047 1167.33C133.142 1188.42 147.883 1206.1 165.361 1220L169.699 1222.18L205.161 1113.39Z" fill="url(#paint41_linear_185_496)"/>
<path d="M146.742 967.556H364.988L437.217 1200.67L169.695 1222.23L146.742 967.556Z" fill="url(#paint42_linear_185_496)"/>
<path d="M214.343 987.554C212.953 987.554 211.732 986.628 211.395 985.196C210.763 982.544 196.444 920.108 216.66 889.458C222.472 880.659 230.558 875.312 240.708 873.502C292.974 864.282 325.151 976.524 326.498 981.281C326.962 982.881 325.993 984.565 324.393 985.028C322.792 985.491 321.108 984.523 320.644 982.923C320.349 981.786 288.636 871.186 241.761 879.48C233.169 880.996 226.599 885.332 221.713 892.784C202.93 921.287 217.165 983.176 217.291 983.807C217.67 985.449 216.66 987.091 215.017 987.47C214.806 987.512 214.554 987.554 214.343 987.554Z" fill="url(#paint43_linear_185_496)"/>
<g opacity="0.3">
<path opacity="0.3" d="M364.996 967.556H256.715C251.367 972.987 247.576 979.26 247.239 986.249C245.555 1019.21 321.364 1030.08 328.692 1075.25C333.956 1107.88 301.485 1145.48 272.551 1162.23C242.017 1179.87 221.338 1170.95 200.701 1190.57C191.646 1199.2 186.087 1209.93 182.844 1221.13L437.267 1200.63L364.996 967.556Z" fill="url(#paint44_linear_185_496)"/>
</g>
<path d="M214.34 996.437C219.016 996.437 222.806 992.649 222.806 987.975C222.806 983.301 219.016 979.513 214.34 979.513C209.665 979.513 205.875 983.301 205.875 987.975C205.875 992.649 209.665 996.437 214.34 996.437Z" fill="url(#paint45_linear_185_496)"/>
<path d="M324.981 995.68C329.656 995.68 333.446 991.891 333.446 987.217C333.446 982.544 329.656 978.755 324.981 978.755C320.306 978.755 316.516 982.544 316.516 987.217C316.516 991.891 320.306 995.68 324.981 995.68Z" fill="url(#paint46_linear_185_496)"/>
<defs>
<linearGradient id="paint0_linear_185_496" x1="994.24" y1="1188.41" x2="1045.04" y2="1190.77" gradientUnits="userSpaceOnUse">
<stop stop-color="#444B8C"/>
<stop offset="0.9964" stop-color="#26264F"/>
</linearGradient>
<linearGradient id="paint1_linear_185_496" x1="1036.54" y1="1129.52" x2="1008.87" y2="1175" gradientUnits="userSpaceOnUse">
<stop stop-color="#FFC444"/>
<stop offset="0.9964" stop-color="#F36F56"/>
</linearGradient>
<linearGradient id="paint2_linear_185_496" x1="938.823" y1="1179.42" x2="1046.78" y2="791.891" gradientUnits="userSpaceOnUse">
<stop stop-color="#311944"/>
<stop offset="1" stop-color="#6B3976"/>
</linearGradient>
<linearGradient id="paint3_linear_185_496" x1="1047.08" y1="1208.97" x2="1117.06" y2="1208.97" gradientUnits="userSpaceOnUse">
<stop stop-color="#444B8C"/>
<stop offset="0.9964" stop-color="#26264F"/>
</linearGradient>
<linearGradient id="paint4_linear_185_496" x1="1085.16" y1="1205.42" x2="1112.11" y2="1149.61" gradientUnits="userSpaceOnUse">
<stop stop-color="#FFC444"/>
<stop offset="0.9964" stop-color="#F36F56"/>
</linearGradient>
<linearGradient id="paint5_linear_185_496" x1="940.051" y1="1179.76" x2="1048.01" y2="792.234" gradientUnits="userSpaceOnUse">
<stop stop-color="#AA80F9"/>
<stop offset="0.9964" stop-color="#6165D7"/>
</linearGradient>
<linearGradient id="paint6_linear_185_496" x1="1043.9" y1="1010.11" x2="1202.68" y2="759.691" gradientUnits="userSpaceOnUse">
<stop stop-color="#311944"/>
<stop offset="1" stop-color="#6B3976"/>
</linearGradient>
<linearGradient id="paint7_linear_185_496" x1="1005.01" y1="591.158" x2="878.356" y2="591.158" gradientUnits="userSpaceOnUse">
<stop stop-color="#AA80F9"/>
<stop offset="0.9964" stop-color="#6165D7"/>
</linearGradient>
<linearGradient id="paint8_linear_185_496" x1="1064.36" y1="1023.08" x2="1223.15" y2="772.667" gradientUnits="userSpaceOnUse">
<stop stop-color="#AA80F9"/>
<stop offset="0.9964" stop-color="#6165D7"/>
</linearGradient>
<linearGradient id="paint9_linear_185_496" x1="990.855" y1="533.94" x2="1128.97" y2="888.428" gradientUnits="userSpaceOnUse">
<stop stop-color="#AA80F9"/>
<stop offset="0.9964" stop-color="#6165D7"/>
</linearGradient>
<linearGradient id="paint10_linear_185_496" x1="956.56" y1="397.669" x2="1070.21" y2="800.927" gradientUnits="userSpaceOnUse">
<stop stop-color="#AA80F9"/>
<stop offset="0.9964" stop-color="#6165D7"/>
</linearGradient>
<linearGradient id="paint11_linear_185_496" x1="1068.18" y1="533.34" x2="1190.73" y2="847.872" gradientUnits="userSpaceOnUse">
<stop stop-color="#AA80F9"/>
<stop offset="0.9964" stop-color="#6165D7"/>
</linearGradient>
<linearGradient id="paint12_linear_185_496" x1="969.317" y1="681.906" x2="971.883" y2="613.519" gradientUnits="userSpaceOnUse">
<stop stop-color="#FFC444"/>
<stop offset="0.9964" stop-color="#F36F56"/>
</linearGradient>
<linearGradient id="paint13_linear_185_496" x1="940.235" y1="591.107" x2="1014.13" y2="706.635" gradientUnits="userSpaceOnUse">
<stop stop-color="#444B8C"/>
<stop offset="0.9964" stop-color="#26264F"/>
</linearGradient>
<linearGradient id="paint14_linear_185_496" x1="1003.79" y1="718.838" x2="1005.97" y2="660.777" gradientUnits="userSpaceOnUse">
<stop stop-color="#FFC444"/>
<stop offset="0.9964" stop-color="#F36F56"/>
</linearGradient>
<linearGradient id="paint15_linear_185_496" x1="1056.38" y1="534.721" x2="1004.42" y2="426.494" gradientUnits="userSpaceOnUse">
<stop stop-color="#FFC444"/>
<stop offset="0.9964" stop-color="#F36F56"/>
</linearGradient>
<linearGradient id="paint16_linear_185_496" x1="1053.55" y1="510.1" x2="1017.78" y2="424.279" gradientUnits="userSpaceOnUse">
<stop stop-color="#311944"/>
<stop offset="1" stop-color="#6B3976"/>
</linearGradient>
<linearGradient id="paint17_linear_185_496" x1="1022.43" y1="448.297" x2="1018.8" y2="574.454" gradientUnits="userSpaceOnUse">
<stop stop-color="#FFC444"/>
<stop offset="0.9964" stop-color="#F36F56"/>
</linearGradient>
<linearGradient id="paint18_linear_185_496" x1="1043.23" y1="514.453" x2="1007.41" y2="428.538" gradientUnits="userSpaceOnUse">
<stop stop-color="#311944"/>
<stop offset="1" stop-color="#6B3976"/>
</linearGradient>
<linearGradient id="paint19_linear_185_496" x1="1008.81" y1="462.95" x2="1010.9" y2="478.717" gradientUnits="userSpaceOnUse">
<stop stop-color="#FFC444"/>
<stop offset="1" stop-color="#F36F56"/>
</linearGradient>
<linearGradient id="paint20_linear_185_496" x1="475.075" y1="1251.77" x2="-161.339" y2="150.916" gradientUnits="userSpaceOnUse">
<stop stop-color="#AA80F9"/>
<stop offset="0.9964" stop-color="#6165D7"/>
</linearGradient>
<linearGradient id="paint21_linear_185_496" x1="52.9345" y1="806.975" x2="385.499" y2="1354.65" gradientUnits="userSpaceOnUse">
<stop offset="0.00359712" stop-color="#E38DDD"/>
<stop offset="1" stop-color="#9571F6"/>
</linearGradient>
<linearGradient id="paint22_linear_185_496" x1="632.307" y1="741.859" x2="883.453" y2="1155.46" gradientUnits="userSpaceOnUse">
<stop offset="0.00359712" stop-color="#E38DDD"/>
<stop offset="1" stop-color="#9571F6"/>
</linearGradient>
<linearGradient id="paint23_linear_185_496" x1="204.965" y1="603.329" x2="1230.01" y2="444.397" gradientUnits="userSpaceOnUse">
<stop stop-color="#444B8C"/>
<stop offset="0.9964" stop-color="#26264F"/>
</linearGradient>
<linearGradient id="paint24_linear_185_496" x1="667.883" y1="203.39" x2="-340.022" y2="2294.71" gradientUnits="userSpaceOnUse">
<stop stop-color="#FFC444"/>
<stop offset="0.9964" stop-color="#F36F56"/>
</linearGradient>
<linearGradient id="paint25_linear_185_496" x1="671.511" y1="205.139" x2="-336.393" y2="2296.46" gradientUnits="userSpaceOnUse">
<stop stop-color="#FFC444"/>
<stop offset="0.9964" stop-color="#F36F56"/>
</linearGradient>
<linearGradient id="paint26_linear_185_496" x1="445.422" y1="335.161" x2="519.666" y2="335.161" gradientUnits="userSpaceOnUse">
<stop stop-color="#FF9085"/>
<stop offset="1" stop-color="#FB6FBB"/>
</linearGradient>
<linearGradient id="paint27_linear_185_496" x1="593.195" y1="335.161" x2="667.438" y2="335.161" gradientUnits="userSpaceOnUse">
<stop stop-color="#FF9085"/>
<stop offset="1" stop-color="#FB6FBB"/>
</linearGradient>
<linearGradient id="paint28_linear_185_496" x1="740.958" y1="335.161" x2="815.202" y2="335.161" gradientUnits="userSpaceOnUse">
<stop stop-color="#FF9085"/>
<stop offset="1" stop-color="#FB6FBB"/>
</linearGradient>
<linearGradient id="paint29_linear_185_496" x1="141.049" y1="208.994" x2="965.962" y2="208.994" gradientUnits="userSpaceOnUse">
<stop stop-color="#FF9085"/>
<stop offset="1" stop-color="#FB6FBB"/>
</linearGradient>
<linearGradient id="paint30_linear_185_496" x1="889.111" y1="360.015" x2="962.595" y2="360.015" gradientUnits="userSpaceOnUse">
<stop stop-color="#FF9085"/>
<stop offset="1" stop-color="#FB6FBB"/>
</linearGradient>
<linearGradient id="paint31_linear_185_496" x1="291.808" y1="824.203" x2="698.087" y2="824.203" gradientUnits="userSpaceOnUse">
<stop stop-color="#FFC444"/>
<stop offset="0.9964" stop-color="#F36F56"/>
</linearGradient>
<linearGradient id="paint32_linear_185_496" x1="312.158" y1="939.463" x2="704.831" y2="939.463" gradientUnits="userSpaceOnUse">
<stop stop-color="#FFC444"/>
<stop offset="0.9964" stop-color="#F36F56"/>
</linearGradient>
<linearGradient id="paint33_linear_185_496" x1="302.907" y1="547.536" x2="635.467" y2="547.536" gradientUnits="userSpaceOnUse">
<stop stop-color="#FFC444"/>
<stop offset="0.9964" stop-color="#F36F56"/>
</linearGradient>
<linearGradient id="paint34_linear_185_496" x1="329.708" y1="628.479" x2="617.575" y2="628.479" gradientUnits="userSpaceOnUse">
<stop stop-color="#FFC444"/>
<stop offset="0.9964" stop-color="#F36F56"/>
</linearGradient>
<linearGradient id="paint35_linear_185_496" x1="338.18" y1="509.44" x2="361.823" y2="509.44" gradientUnits="userSpaceOnUse">
<stop stop-color="#FFC444"/>
<stop offset="0.9964" stop-color="#F36F56"/>
</linearGradient>
<linearGradient id="paint36_linear_185_496" x1="348.834" y1="464.184" x2="450.922" y2="464.184" gradientUnits="userSpaceOnUse">
<stop stop-color="#FFC444"/>
<stop offset="0.9964" stop-color="#F36F56"/>
</linearGradient>
<linearGradient id="paint37_linear_185_496" x1="575.818" y1="510.369" x2="597.156" y2="510.369" gradientUnits="userSpaceOnUse">
<stop stop-color="#FFC444"/>
<stop offset="0.9964" stop-color="#F36F56"/>
</linearGradient>
<linearGradient id="paint38_linear_185_496" x1="472.452" y1="464.949" x2="587.115" y2="464.949" gradientUnits="userSpaceOnUse">
<stop stop-color="#FFC444"/>
<stop offset="0.9964" stop-color="#F36F56"/>
</linearGradient>
<linearGradient id="paint39_linear_185_496" x1="154.5" y1="908.654" x2="181.06" y2="918.523" gradientUnits="userSpaceOnUse">
<stop stop-color="#AB316D"/>
<stop offset="1" stop-color="#792D3D"/>
</linearGradient>
<linearGradient id="paint40_linear_185_496" x1="80.0964" y1="999.913" x2="154.051" y2="1123.97" gradientUnits="userSpaceOnUse">
<stop stop-color="#FF9085"/>
<stop offset="1" stop-color="#FB6FBB"/>
</linearGradient>
<linearGradient id="paint41_linear_185_496" x1="91.5394" y1="993.093" x2="165.494" y2="1117.15" gradientUnits="userSpaceOnUse">
<stop stop-color="#FF9085"/>
<stop offset="1" stop-color="#FB6FBB"/>
</linearGradient>
<linearGradient id="paint42_linear_185_496" x1="208.905" y1="1049.88" x2="417.169" y2="1210.4" gradientUnits="userSpaceOnUse">
<stop stop-color="#FF9085"/>
<stop offset="1" stop-color="#FB6FBB"/>
</linearGradient>
<linearGradient id="paint43_linear_185_496" x1="249.844" y1="862.891" x2="271.079" y2="998.317" gradientUnits="userSpaceOnUse">
<stop stop-color="#AB316D"/>
<stop offset="1" stop-color="#792D3D"/>
</linearGradient>
<linearGradient id="paint44_linear_185_496" x1="211.606" y1="1046.39" x2="419.87" y2="1206.91" gradientUnits="userSpaceOnUse">
<stop stop-color="#FF9085"/>
<stop offset="1" stop-color="#FB6FBB"/>
</linearGradient>
<linearGradient id="paint45_linear_185_496" x1="202.91" y1="983.745" x2="206.329" y2="985.015" gradientUnits="userSpaceOnUse">
<stop stop-color="#AB316D"/>
<stop offset="1" stop-color="#792D3D"/>
</linearGradient>
<linearGradient id="paint46_linear_185_496" x1="313.554" y1="982.958" x2="316.974" y2="984.229" gradientUnits="userSpaceOnUse">
<stop stop-color="#AB316D"/>
<stop offset="1" stop-color="#792D3D"/>
</linearGradient>
</defs>
</svg>
