<svg width="40" height="40" viewBox="0 0 40 40" fill="none" xmlns="http://www.w3.org/2000/svg">
<path d="M17.4994 2.5C17.4994 1.83696 17.7628 1.20107 18.2317 0.732233C18.7005 0.263393 19.3364 0 19.9994 0C20.6625 0 21.2984 0.263393 21.7672 0.732233C22.236 1.20107 22.4994 1.83696 22.4994 2.5V20.395L30.6069 12.2875L34.1419 15.8225L19.9994 29.965L5.85693 15.825L9.39193 12.29L17.4994 20.395V2.5Z" fill="#F29993"/>
<path d="M0 25H5V35H35V25H40V35C40 36.3261 39.4732 37.5979 38.5355 38.5355C37.5979 39.4732 36.3261 40 35 40H5C3.67392 40 2.40215 39.4732 1.46447 38.5355C0.526784 37.5979 0 36.3261 0 35V25Z" fill="#F29993"/>
</svg>
