<svg width="58" height="63" viewBox="0 0 58 63" fill="none" xmlns="http://www.w3.org/2000/svg">
<path d="M28.7505 2.168e-08C31.3307 -0.000168918 33.8131 0.987009 35.6886 2.75902C37.5641 4.53104 38.6904 6.95355 38.8364 9.52962L38.852 10.1015H55.1698C55.7604 10.1017 56.329 10.3261 56.7605 10.7293C57.1921 11.1325 57.4545 11.6845 57.4948 12.2737C57.5351 12.863 57.3501 13.4456 56.9774 13.9037C56.6047 14.3619 56.072 14.6615 55.4869 14.742L55.1698 14.7638H52.6957L48.7173 55.232C48.518 57.2495 47.608 59.1305 46.1499 60.5391C44.6918 61.9476 42.7805 62.7921 40.7573 62.9216L40.2103 62.9402H17.2907C15.2625 62.9402 13.3004 62.2189 11.7551 60.9053C10.2097 59.5917 9.18187 57.7714 8.85514 55.7697L8.78366 55.2289L4.80211 14.7638H2.33112C1.7678 14.7637 1.22355 14.5597 0.799012 14.1895C0.374473 13.8192 0.0983679 13.3078 0.021757 12.7497L0 12.4326C2.37553e-05 11.8693 0.204028 11.3251 0.574285 10.9005C0.944543 10.476 1.45601 10.1999 2.01409 10.1233L2.33112 10.1015H18.649C18.649 7.42243 19.7132 4.85307 21.6076 2.95867C23.502 1.06426 26.0714 2.168e-08 28.7505 2.168e-08ZM48.0117 14.7638H9.4861L13.4241 54.772C13.5113 55.6647 13.9047 56.4997 14.5376 57.1354C15.1704 57.771 16.0036 58.1681 16.896 58.2593L17.2907 58.278H40.2103C42.0751 58.278 43.6572 56.957 44.0177 55.1636L44.0799 54.772L48.0086 14.7638H48.0117ZM34.1897 23.3112C34.7531 23.3112 35.2973 23.5152 35.7219 23.8855C36.1464 24.2557 36.4225 24.7672 36.4991 25.3253L36.5209 25.6423V47.3994C36.5207 47.99 36.2963 48.5586 35.8931 48.9902C35.4899 49.4217 34.9379 49.6842 34.3486 49.7244C33.7594 49.7647 33.1768 49.5798 32.7187 49.207C32.2605 48.8343 31.9609 48.3016 31.8804 47.7165L31.8586 47.3994V25.6423C31.8586 25.0241 32.1042 24.4311 32.5414 23.994C32.9786 23.5568 33.5715 23.3112 34.1897 23.3112ZM23.3112 23.3112C23.8745 23.3112 24.4188 23.5152 24.8433 23.8855C25.2678 24.2557 25.5439 24.7672 25.6206 25.3253L25.6423 25.6423V47.3994C25.6421 47.99 25.4178 48.5586 25.0145 48.9902C24.6113 49.4217 24.0593 49.6842 23.4701 49.7244C22.8808 49.7647 22.2983 49.5798 21.8401 49.207C21.3819 48.8343 21.0823 48.3016 21.0018 47.7165L20.9801 47.3994V25.6423C20.9801 25.0241 21.2257 24.4311 21.6628 23.994C22.1 23.5568 22.6929 23.3112 23.3112 23.3112ZM28.7505 4.66224C27.3854 4.66229 26.0702 5.17562 25.0661 6.10032C24.0619 7.02503 23.4422 8.2935 23.3298 9.65394L23.3112 10.1015H34.1897C34.1897 8.65893 33.6167 7.27543 32.5966 6.25537C31.5766 5.2353 30.1931 4.66224 28.7505 4.66224Z" fill="black" fill-opacity="0.8"/>
</svg>
